Aleo-Light.ufo
<glyph name="exclam" format="1">
  <advance width="213"/>
  <unicode hex="0021"/>
  <note>
    exclam
  </note>
  <outline>
    <contour>
      <point x="129" y="708" type="line"/>
      <point x="83" y="708" type="line"/>
      <point x="83" y="422" type="line"/>
      <point x="89" y="244" type="line"/>
      <point x="122" y="244" type="line"/>
      <point x="129" y="422" type="line"/>
    </contour>
    <contour>
      <point x="131" y="-8"/>
      <point x="152" y="13"/>
      <point x="152" y="39" type="curve" smooth="yes"/>
      <point x="152" y="64"/>
      <point x="131" y="85"/>
      <point x="106" y="85" type="curve" smooth="yes"/>
      <point x="80" y="85"/>
      <point x="59" y="64"/>
      <point x="59" y="39" type="curve" smooth="yes"/>
      <point x="59" y="13"/>
      <point x="80" y="-8"/>
      <point x="106" y="-8" type="curve" smooth="yes"/>
    </contour>
  </outline>
</glyph>
<glyph name="dollar" format="1">
  <advance width="503"/>
  <unicode hex="0024"/>
  <note>
    dollar
  </note>
  <outline>
    <contour>
      <point x="215" y="-128" type="line"/>
      <point x="233" y="-128" type="line" smooth="yes"/>
      <point x="243" y="-128"/>
      <point x="247" y="-121"/>
      <point x="248" y="-113" type="curve"/>
      <point x="253" y="-8" type="line"/>
      <point x="382" y="0"/>
      <point x="467" y="83"/>
      <point x="467" y="206" type="curve" smooth="yes"/>
      <point x="467" y="315"/>
      <point x="392" y="349"/>
      <point x="273" y="387" type="curve"/>
      <point x="287" y="673" type="line"/>
      <point x="328" y="669"/>
      <point x="384" y="648"/>
      <point x="408" y="624" type="curve" smooth="yes"/>
      <point x="419" y="613"/>
      <point x="428" y="613"/>
      <point x="436" y="624" type="curve"/>
      <point x="447" y="641" type="line"/>
      <point x="403" y="685"/>
      <point x="351" y="709"/>
      <point x="289" y="713" type="curve"/>
      <point x="295" y="814" type="line"/>
      <point x="277" y="814" type="line" smooth="yes"/>
      <point x="267" y="814"/>
      <point x="262" y="805"/>
      <point x="262" y="798" type="curve"/>
      <point x="257" y="714" type="line"/>
      <point x="150" y="710"/>
      <point x="60" y="644"/>
      <point x="60" y="532" type="curve" smooth="yes"/>
      <point x="60" y="427"/>
      <point x="127" y="384"/>
      <point x="240" y="350" type="curve"/>
      <point x="224" y="32" type="line"/>
      <point x="165" y="36"/>
      <point x="105" y="66"/>
      <point x="65" y="106" type="curve" smooth="yes"/>
      <point x="57" y="114"/>
      <point x="48" y="114"/>
      <point x="40" y="104" type="curve"/>
      <point x="26" y="84" type="line"/>
      <point x="74" y="30"/>
      <point x="142" y="-4"/>
      <point x="221" y="-8" type="curve"/>
    </contour>
    <contour>
      <point x="422" y="102"/>
      <point x="355" y="39"/>
      <point x="256" y="32" type="curve"/>
      <point x="271" y="341" type="line"/>
      <point x="359" y="315"/>
      <point x="422" y="282"/>
      <point x="422" y="199" type="curve" smooth="yes"/>
    </contour>
    <contour>
      <point x="104" y="614"/>
      <point x="166" y="670"/>
      <point x="256" y="674" type="curve"/>
      <point x="242" y="398" type="line"/>
      <point x="156" y="425"/>
      <point x="104" y="461"/>
      <point x="104" y="536" type="curve" smooth="yes"/>
    </contour>
  </outline>
</glyph>
<glyph name="percent" format="1">
  <advance width="764"/>
  <unicode hex="0025"/>
  <note>
    percent
  </note>
  <outline>
    <contour>
      <point x="342" y="641"/>
      <point x="288" y="716"/>
      <point x="194" y="716" type="curve" smooth="yes"/>
      <point x="101" y="716"/>
      <point x="45" y="644"/>
      <point x="45" y="538" type="curve" smooth="yes"/>
      <point x="45" y="434"/>
      <point x="99" y="361"/>
      <point x="194" y="361" type="curve" smooth="yes"/>
      <point x="285" y="361"/>
      <point x="342" y="437"/>
      <point x="342" y="538" type="curve" smooth="yes"/>
    </contour>
    <contour>
      <point x="304" y="456"/>
      <point x="272" y="393"/>
      <point x="194" y="393" type="curve" smooth="yes"/>
      <point x="120" y="393"/>
      <point x="84" y="450"/>
      <point x="84" y="538" type="curve" smooth="yes"/>
      <point x="84" y="620"/>
      <point x="116" y="683"/>
      <point x="194" y="683" type="curve" smooth="yes"/>
      <point x="267" y="683"/>
      <point x="304" y="627"/>
      <point x="304" y="538" type="curve" smooth="yes"/>
    </contour>
    <contour>
      <point x="104" y="0" type="line"/>
      <point x="138" y="0" type="line" smooth="yes"/>
      <point x="145" y="0"/>
      <point x="151" y="3"/>
      <point x="155" y="9" type="curve"/>
      <point x="663" y="708" type="line"/>
      <point x="630" y="708" type="line" smooth="yes"/>
      <point x="622" y="708"/>
      <point x="615" y="704"/>
      <point x="611" y="698" type="curve"/>
    </contour>
    <contour>
      <point x="724" y="272"/>
      <point x="671" y="346"/>
      <point x="576" y="346" type="curve" smooth="yes"/>
      <point x="479" y="346"/>
      <point x="427" y="270"/>
      <point x="427" y="168" type="curve" smooth="yes"/>
      <point x="427" y="67"/>
      <point x="480" y="-8"/>
      <point x="576" y="-8" type="curve" smooth="yes"/>
      <point x="669" y="-8"/>
      <point x="724" y="65"/>
      <point x="724" y="168" type="curve" smooth="yes"/>
    </contour>
    <contour>
      <point x="686" y="87"/>
      <point x="654" y="24"/>
      <point x="576" y="24" type="curve" smooth="yes"/>
      <point x="503" y="24"/>
      <point x="465" y="82"/>
      <point x="465" y="168" type="curve" smooth="yes"/>
      <point x="465" y="251"/>
      <point x="500" y="314"/>
      <point x="576" y="314" type="curve" smooth="yes"/>
      <point x="649" y="314"/>
      <point x="686" y="257"/>
      <point x="686" y="168" type="curve" smooth="yes"/>
    </contour>
  </outline>
</glyph>
<glyph name="quotesingle" format="1">
  <advance width="183"/>
  <unicode hex="0027"/>
  <note>
    quotesingle
  </note>
  <outline>
    <contour>
      <point x="112" y="708" type="line"/>
      <point x="70" y="708" type="line"/>
      <point x="70" y="562" type="line"/>
      <point x="75" y="485" type="line"/>
      <point x="76" y="479"/>
      <point x="78" y="467"/>
      <point x="91" y="467" type="curve" smooth="yes"/>
      <point x="99" y="467"/>
      <point x="106" y="470"/>
      <point x="108" y="485" type="curve"/>
      <point x="112" y="562" type="line"/>
    </contour>
  </outline>
</glyph>
<glyph name="parenright" format="1">
  <advance width="252"/>
  <unicode hex="0029"/>
  <note>
    parenright
  </note>
  <outline>
    <contour>
      <point x="156" y="166"/>
      <point x="115" y="29"/>
      <point x="36" y="-98" type="curve"/>
      <point x="33" y="-104"/>
      <point x="33" y="-114"/>
      <point x="40" y="-120" type="curve"/>
      <point x="60" y="-132" type="line"/>
      <point x="154" y="14"/>
      <point x="198" y="140"/>
      <point x="198" y="315" type="curve" smooth="yes"/>
      <point x="198" y="485"/>
      <point x="154" y="617"/>
      <point x="60" y="763" type="curve"/>
      <point x="40" y="750" type="line"/>
      <point x="34" y="746"/>
      <point x="32" y="738"/>
      <point x="36" y="729" type="curve"/>
      <point x="115" y="602"/>
      <point x="156" y="463"/>
      <point x="156" y="315" type="curve" smooth="yes"/>
    </contour>
  </outline>
</glyph>
<glyph name="asterisk" format="1">
  <advance width="378"/>
  <unicode hex="002A"/>
  <note>
    asterisk
  </note>
  <outline>
    <contour>
      <point x="176" y="448" type="line"/>
      <point x="202" y="448" type="line"/>
      <point x="202" y="556" type="line" smooth="yes"/>
      <point x="202" y="563"/>
      <point x="199" y="575"/>
      <point x="195" y="586" type="curve"/>
      <point x="198" y="581"/>
      <point x="211" y="570"/>
      <point x="219" y="565" type="curve" smooth="yes"/>
      <point x="314" y="510" type="line"/>
      <point x="327" y="532" type="line"/>
      <point x="232" y="588" type="line" smooth="yes"/>
      <point x="225" y="592"/>
      <point x="214" y="595"/>
      <point x="203" y="597" type="curve"/>
      <point x="218" y="601"/>
      <point x="221" y="602"/>
      <point x="232" y="608" type="curve" smooth="yes"/>
      <point x="326" y="662" type="line"/>
      <point x="313" y="684" type="line"/>
      <point x="219" y="630" type="line" smooth="yes"/>
      <point x="209" y="624"/>
      <point x="202" y="618"/>
      <point x="195" y="608" type="curve"/>
      <point x="198" y="615"/>
      <point x="202" y="632"/>
      <point x="202" y="640" type="curve" smooth="yes"/>
      <point x="202" y="746" type="line"/>
      <point x="176" y="746" type="line"/>
      <point x="176" y="639" type="line" smooth="yes"/>
      <point x="176" y="631"/>
      <point x="177" y="619"/>
      <point x="183" y="607" type="curve"/>
      <point x="178" y="613"/>
      <point x="167" y="625"/>
      <point x="158" y="630" type="curve" smooth="yes"/>
      <point x="64" y="685" type="line"/>
      <point x="51" y="662" type="line"/>
      <point x="146" y="607" type="line" smooth="yes"/>
      <point x="153" y="603"/>
      <point x="166" y="598"/>
      <point x="175" y="597" type="curve"/>
      <point x="171" y="596"/>
      <point x="153" y="591"/>
      <point x="146" y="587" type="curve" smooth="yes"/>
      <point x="52" y="532" type="line"/>
      <point x="64" y="510" type="line"/>
      <point x="158" y="565" type="line" smooth="yes"/>
      <point x="168" y="571"/>
      <point x="172" y="572"/>
      <point x="182" y="585" type="curve"/>
      <point x="178" y="576"/>
      <point x="176" y="566"/>
      <point x="176" y="555" type="curve" smooth="yes"/>
    </contour>
  </outline>
</glyph>
<glyph name="plus" format="1">
  <advance width="561"/>
  <unicode hex="002B"/>
  <note>
    plus
  </note>
  <outline>
    <contour>
      <point x="300" y="579" type="line"/>
      <point x="260" y="579" type="line"/>
      <point x="260" y="354" type="line"/>
      <point x="46" y="354" type="line"/>
      <point x="46" y="317" type="line"/>
      <point x="260" y="317" type="line"/>
      <point x="260" y="90" type="line"/>
      <point x="300" y="90" type="line"/>
      <point x="300" y="317" type="line"/>
      <point x="515" y="317" type="line"/>
      <point x="515" y="354" type="line"/>
      <point x="300" y="354" type="line"/>
    </contour>
  </outline>
</glyph>
<glyph name="comma" format="1">
  <advance width="228"/>
  <unicode hex="002C"/>
  <note>
    comma
  </note>
  <outline>
    <contour>
      <point x="129" y="-83"/>
      <point x="161" y="-31"/>
      <point x="161" y="32" type="curve" smooth="yes"/>
      <point x="161" y="62"/>
      <point x="144" y="85"/>
      <point x="116" y="85" type="curve" smooth="yes"/>
      <point x="92" y="85"/>
      <point x="72" y="66"/>
      <point x="72" y="42" type="curve" smooth="yes"/>
      <point x="72" y="18"/>
      <point x="92" y="-2"/>
      <point x="116" y="-2" type="curve" smooth="yes"/>
      <point x="121" y="-2"/>
      <point x="126" y="-1"/>
      <point x="130" y="0" type="curve"/>
      <point x="129" y="-25"/>
      <point x="103" y="-77"/>
      <point x="79" y="-101" type="curve" smooth="yes"/>
      <point x="76" y="-104"/>
      <point x="74" y="-107"/>
      <point x="74" y="-110" type="curve" smooth="yes"/>
      <point x="74" y="-113"/>
      <point x="75" y="-116"/>
      <point x="78" y="-119" type="curve" smooth="yes"/>
      <point x="86" y="-126" type="line"/>
    </contour>
  </outline>
</glyph>
<glyph name="one" format="1">
  <advance width="451"/>
  <unicode hex="0031"/>
  <note>
    one
  </note>
  <outline>
    <contour>
      <point x="426" y="0" type="line"/>
      <point x="426" y="16" type="line" smooth="yes"/>
      <point x="426" y="25"/>
      <point x="420" y="30"/>
      <point x="409" y="31" type="curve"/>
      <point x="271" y="38" type="line"/>
      <point x="271" y="710" type="line"/>
      <point x="234" y="710" type="line"/>
      <point x="30" y="530" type="line"/>
      <point x="44" y="510" type="line" smooth="yes"/>
      <point x="50" y="502"/>
      <point x="63" y="502"/>
      <point x="69" y="508" type="curve"/>
      <point x="225" y="647" type="line"/>
      <point x="223" y="38" type="line"/>
      <point x="77" y="31" type="line"/>
      <point x="66" y="30"/>
      <point x="61" y="25"/>
      <point x="61" y="16" type="curve" smooth="yes"/>
      <point x="61" y="0" type="line"/>
    </contour>
  </outline>
</glyph>
<glyph name="two" format="1">
  <advance width="543"/>
  <unicode hex="0032"/>
  <note>
    two
  </note>
  <outline>
    <contour>
      <point x="469" y="134" type="line" smooth="yes"/>
      <point x="455" y="134"/>
      <point x="449" y="126"/>
      <point x="448" y="110" type="curve"/>
      <point x="442" y="45" type="line"/>
      <point x="171" y="45" type="line" smooth="yes"/>
      <point x="154" y="45"/>
      <point x="122" y="42"/>
      <point x="103" y="37" type="curve"/>
      <point x="324" y="263" type="line" smooth="yes"/>
      <point x="413" y="356"/>
      <point x="477" y="422"/>
      <point x="477" y="525" type="curve" smooth="yes"/>
      <point x="477" y="640"/>
      <point x="398" y="715"/>
      <point x="274" y="715" type="curve" smooth="yes"/>
      <point x="156" y="715"/>
      <point x="71" y="647"/>
      <point x="55" y="524" type="curve"/>
      <point x="80" y="521" type="line" smooth="yes"/>
      <point x="94" y="519"/>
      <point x="101" y="525"/>
      <point x="104" y="537" type="curve"/>
      <point x="122" y="625"/>
      <point x="185" y="675"/>
      <point x="271" y="675" type="curve" smooth="yes"/>
      <point x="365" y="675"/>
      <point x="428" y="616"/>
      <point x="428" y="523" type="curve" smooth="yes"/>
      <point x="428" y="440"/>
      <point x="373" y="367"/>
      <point x="288" y="282" type="curve" smooth="yes"/>
      <point x="46" y="38" type="line" smooth="yes"/>
      <point x="41" y="32"/>
      <point x="37" y="24"/>
      <point x="37" y="16" type="curve" smooth="yes"/>
      <point x="37" y="0" type="line"/>
      <point x="493" y="0" type="line"/>
      <point x="493" y="134" type="line"/>
    </contour>
  </outline>
</glyph>
<glyph name="four" format="1">
  <advance width="589"/>
  <unicode hex="0034"/>
  <note>
    four
  </note>
  <outline>
    <contour>
      <point x="432" y="241" type="line"/>
      <point x="432" y="708" type="line"/>
      <point x="389" y="708" type="line"/>
      <point x="34" y="238" type="line"/>
      <point x="38" y="215" type="line"/>
      <point x="40" y="206"/>
      <point x="47" y="203"/>
      <point x="55" y="203" type="curve" smooth="yes"/>
      <point x="388" y="203" type="line"/>
      <point x="388" y="0" type="line"/>
      <point x="432" y="0" type="line"/>
      <point x="432" y="203" type="line"/>
      <point x="548" y="203" type="line" smooth="yes"/>
      <point x="553" y="203"/>
      <point x="561" y="204"/>
      <point x="561" y="215" type="curve" smooth="yes"/>
      <point x="561" y="241" type="line"/>
    </contour>
    <contour>
      <point x="388" y="241" type="line"/>
      <point x="86" y="241" type="line"/>
      <point x="391" y="649" type="line"/>
      <point x="390" y="641"/>
      <point x="388" y="620"/>
      <point x="388" y="612" type="curve" smooth="yes"/>
    </contour>
  </outline>
</glyph>
<glyph name="five" format="1">
  <advance width="508"/>
  <unicode hex="0035"/>
  <note>
    five
  </note>
  <outline>
    <contour>
      <point x="442" y="708" type="line"/>
      <point x="124" y="708" type="line"/>
      <point x="68" y="394" type="line"/>
      <point x="99" y="384" type="line"/>
      <point x="137" y="395"/>
      <point x="191" y="404"/>
      <point x="227" y="404" type="curve" smooth="yes"/>
      <point x="342" y="404"/>
      <point x="412" y="343"/>
      <point x="412" y="230" type="curve" smooth="yes"/>
      <point x="412" y="114"/>
      <point x="334" y="34"/>
      <point x="218" y="34" type="curve" smooth="yes"/>
      <point x="175" y="34"/>
      <point x="116" y="51"/>
      <point x="80" y="74" type="curve" smooth="yes"/>
      <point x="66" y="83"/>
      <point x="53" y="86"/>
      <point x="44" y="73" type="curve"/>
      <point x="32" y="55" type="line"/>
      <point x="79" y="17"/>
      <point x="147" y="-8"/>
      <point x="216" y="-8" type="curve" smooth="yes"/>
      <point x="358" y="-8"/>
      <point x="460" y="91"/>
      <point x="460" y="232" type="curve" smooth="yes"/>
      <point x="460" y="362"/>
      <point x="374" y="444"/>
      <point x="236" y="444" type="curve" smooth="yes"/>
      <point x="201" y="444"/>
      <point x="148" y="437"/>
      <point x="115" y="428" type="curve"/>
      <point x="158" y="664" type="line"/>
      <point x="414" y="664" type="line" smooth="yes"/>
      <point x="430" y="664"/>
      <point x="442" y="671"/>
      <point x="442" y="687" type="curve" smooth="yes"/>
    </contour>
  </outline>
</glyph>
<glyph name="six" format="1">
  <advance width="539"/>
  <unicode hex="0036"/>
  <note>
    six
  </note>
  <outline>
    <contour>
      <point x="228" y="423"/>
      <point x="175" y="402"/>
      <point x="131" y="358" type="curve"/>
      <point x="155" y="399"/>
      <point x="164" y="407"/>
      <point x="183" y="432" type="curve" smooth="yes"/>
      <point x="394" y="708" type="line"/>
      <point x="352" y="708" type="line" smooth="yes"/>
      <point x="341" y="708"/>
      <point x="332" y="704"/>
      <point x="326" y="696" type="curve" smooth="yes"/>
      <point x="134" y="436" type="line" smooth="yes"/>
      <point x="85" y="370"/>
      <point x="44" y="300"/>
      <point x="44" y="225" type="curve" smooth="yes"/>
      <point x="44" y="85"/>
      <point x="128" y="-8"/>
      <point x="266" y="-8" type="curve" smooth="yes"/>
      <point x="400" y="-8"/>
      <point x="499" y="80"/>
      <point x="499" y="213" type="curve" smooth="yes"/>
      <point x="499" y="337"/>
      <point x="414" y="423"/>
      <point x="290" y="423" type="curve" smooth="yes"/>
    </contour>
    <contour>
      <point x="90" y="313"/>
      <point x="175" y="386"/>
      <point x="276" y="386" type="curve" smooth="yes"/>
      <point x="383" y="386"/>
      <point x="452" y="316"/>
      <point x="452" y="210" type="curve" smooth="yes"/>
      <point x="452" y="107"/>
      <point x="378" y="32"/>
      <point x="265" y="32" type="curve" smooth="yes"/>
      <point x="157" y="32"/>
      <point x="90" y="106"/>
      <point x="90" y="214" type="curve" smooth="yes"/>
    </contour>
  </outline>
</glyph>
<glyph name="seven" format="1">
  <advance width="550"/>
  <unicode hex="0037"/>
  <note>
    seven
  </note>
  <outline>
    <contour>
      <point x="44" y="707" type="line"/>
      <point x="44" y="573" type="line"/>
      <point x="68" y="573" type="line" smooth="yes"/>
      <point x="82" y="573"/>
      <point x="88" y="581"/>
      <point x="89" y="597" type="curve"/>
      <point x="93" y="664" type="line"/>
      <point x="464" y="664" type="line"/>
      <point x="123" y="0" type="line"/>
      <point x="155" y="0" type="line" smooth="yes"/>
      <point x="169" y="0"/>
      <point x="177" y="6"/>
      <point x="184" y="18" type="curve"/>
      <point x="508" y="661" type="line"/>
      <point x="511" y="666"/>
      <point x="514" y="679"/>
      <point x="514" y="686" type="curve" smooth="yes"/>
      <point x="514" y="708" type="line"/>
    </contour>
  </outline>
</glyph>
<glyph name="colon" format="1">
  <advance width="228"/>
  <unicode hex="003A"/>
  <note>
    colon
  </note>
  <outline>
    <contour>
      <point x="140" y="391"/>
      <point x="161" y="412"/>
      <point x="161" y="438" type="curve" smooth="yes"/>
      <point x="161" y="463"/>
      <point x="140" y="484"/>
      <point x="115" y="484" type="curve" smooth="yes"/>
      <point x="89" y="484"/>
      <point x="68" y="463"/>
      <point x="68" y="438" type="curve" smooth="yes"/>
      <point x="68" y="412"/>
      <point x="89" y="391"/>
      <point x="115" y="391" type="curve" smooth="yes"/>
    </contour>
    <contour>
      <point x="140" y="-8"/>
      <point x="161" y="13"/>
      <point x="161" y="39" type="curve" smooth="yes"/>
      <point x="161" y="64"/>
      <point x="140" y="85"/>
      <point x="115" y="85" type="curve" smooth="yes"/>
      <point x="89" y="85"/>
      <point x="68" y="64"/>
      <point x="68" y="39" type="curve" smooth="yes"/>
      <point x="68" y="13"/>
      <point x="89" y="-8"/>
      <point x="115" y="-8" type="curve" smooth="yes"/>
    </contour>
  </outline>
</glyph>
<glyph name="less" format="1">
  <advance width="475"/>
  <unicode hex="003C"/>
  <note>
    less
  </note>
  <outline>
    <contour>
      <point x="46" y="346" type="line"/>
      <point x="46" y="326" type="line"/>
      <point x="422" y="132" type="line"/>
      <point x="422" y="165" type="line" smooth="yes"/>
      <point x="422" y="169"/>
      <point x="419" y="175"/>
      <point x="408" y="182" type="curve"/>
      <point x="132" y="323" type="line" smooth="yes"/>
      <point x="122" y="328"/>
      <point x="110" y="332"/>
      <point x="96" y="335" type="curve"/>
      <point x="109" y="338"/>
      <point x="121" y="342"/>
      <point x="132" y="348" type="curve" smooth="yes"/>
      <point x="408" y="488" type="line"/>
      <point x="412" y="490"/>
      <point x="422" y="496"/>
      <point x="422" y="506" type="curve" smooth="yes"/>
      <point x="422" y="538" type="line"/>
    </contour>
  </outline>
</glyph>
<glyph name="equal" format="1">
  <advance width="551"/>
  <unicode hex="003D"/>
  <note>
    equal
  </note>
  <outline>
    <contour>
      <point x="70" y="278" type="line"/>
      <point x="70" y="241" type="line"/>
      <point x="483" y="241" type="line"/>
      <point x="483" y="278" type="line"/>
    </contour>
    <contour>
      <point x="70" y="434" type="line"/>
      <point x="70" y="398" type="line"/>
      <point x="483" y="398" type="line"/>
      <point x="483" y="434" type="line"/>
    </contour>
  </outline>
</glyph>
<glyph name="greater" format="1">
  <advance width="475"/>
  <unicode hex="003E"/>
  <note>
    greater
  </note>
  <outline>
    <contour>
      <point x="54" y="132" type="line"/>
      <point x="428" y="326" type="line"/>
      <point x="428" y="346" type="line"/>
      <point x="54" y="538" type="line"/>
      <point x="54" y="506" type="line" smooth="yes"/>
      <point x="54" y="499"/>
      <point x="57" y="493"/>
      <point x="66" y="488" type="curve"/>
      <point x="344" y="348" type="line" smooth="yes"/>
      <point x="355" y="342"/>
      <point x="367" y="339"/>
      <point x="379" y="336" type="curve"/>
      <point x="366" y="333"/>
      <point x="354" y="328"/>
      <point x="344" y="323" type="curve" smooth="yes"/>
      <point x="66" y="183" type="line"/>
      <point x="59" y="179"/>
      <point x="54" y="174"/>
      <point x="54" y="165" type="curve" smooth="yes"/>
    </contour>
  </outline>
</glyph>
<glyph name="question" format="1">
  <advance width="411"/>
  <unicode hex="003F"/>
  <note>
    question
  </note>
  <outline>
    <contour>
      <point x="42" y="632" type="line"/>
      <point x="49" y="622"/>
      <point x="60" y="624"/>
      <point x="68" y="629" type="curve" smooth="yes"/>
      <point x="101" y="650"/>
      <point x="143" y="676"/>
      <point x="192" y="676" type="curve" smooth="yes"/>
      <point x="261" y="676"/>
      <point x="322" y="635"/>
      <point x="322" y="562" type="curve" smooth="yes"/>
      <point x="322" y="507"/>
      <point x="290" y="461"/>
      <point x="242" y="427" type="curve" smooth="yes"/>
      <point x="199" y="397"/>
      <point x="162" y="368"/>
      <point x="162" y="331" type="curve" smooth="yes"/>
      <point x="164" y="243" type="line"/>
      <point x="196" y="243" type="line"/>
      <point x="202" y="325" type="line" smooth="yes"/>
      <point x="205" y="355"/>
      <point x="233" y="372"/>
      <point x="286" y="414" type="curve"/>
      <point x="338" y="451"/>
      <point x="367" y="502"/>
      <point x="367" y="564" type="curve" smooth="yes"/>
      <point x="367" y="654"/>
      <point x="289" y="716"/>
      <point x="196" y="716" type="curve" smooth="yes"/>
      <point x="138" y="716"/>
      <point x="78" y="692"/>
      <point x="32" y="646" type="curve"/>
    </contour>
    <contour>
      <point x="205" y="-8"/>
      <point x="225" y="13"/>
      <point x="225" y="39" type="curve" smooth="yes"/>
      <point x="225" y="64"/>
      <point x="205" y="85"/>
      <point x="179" y="85" type="curve" smooth="yes"/>
      <point x="153" y="85"/>
      <point x="133" y="64"/>
      <point x="133" y="39" type="curve" smooth="yes"/>
      <point x="133" y="13"/>
      <point x="153" y="-8"/>
      <point x="179" y="-8" type="curve" smooth="yes"/>
    </contour>
  </outline>
</glyph>
<glyph name="at" format="1">
  <advance width="811"/>
  <unicode hex="0040"/>
  <note>
    at
  </note>
  <outline>
    <contour>
      <point x="692" y="94"/>
      <point x="763" y="209"/>
      <point x="763" y="339" type="curve" smooth="yes"/>
      <point x="763" y="536"/>
      <point x="618" y="666"/>
      <point x="422" y="666" type="curve" smooth="yes"/>
      <point x="213" y="666"/>
      <point x="48" y="495"/>
      <point x="48" y="274" type="curve" smooth="yes"/>
      <point x="48" y="39"/>
      <point x="205" y="-119"/>
      <point x="440" y="-119" type="curve" smooth="yes"/>
      <point x="539" y="-119"/>
      <point x="634" y="-95"/>
      <point x="712" y="-42" type="curve"/>
      <point x="704" y="-29" type="line" smooth="yes"/>
      <point x="699" y="-20"/>
      <point x="690" y="-18"/>
      <point x="680" y="-24" type="curve"/>
      <point x="613" y="-67"/>
      <point x="526" y="-86"/>
      <point x="440" y="-86" type="curve" smooth="yes"/>
      <point x="230" y="-86"/>
      <point x="84" y="55"/>
      <point x="84" y="274" type="curve" smooth="yes"/>
      <point x="84" y="474"/>
      <point x="229" y="632"/>
      <point x="422" y="632" type="curve" smooth="yes"/>
      <point x="605" y="632"/>
      <point x="728" y="520"/>
      <point x="728" y="339" type="curve" smooth="yes"/>
      <point x="728" y="236"/>
      <point x="679" y="126"/>
      <point x="583" y="126" type="curve" smooth="yes"/>
      <point x="540" y="126"/>
      <point x="517" y="144"/>
      <point x="517" y="196" type="curve" smooth="yes"/>
      <point x="517" y="211"/>
      <point x="523" y="253"/>
      <point x="528" y="270" type="curve" smooth="yes"/>
      <point x="574" y="444" type="line"/>
      <point x="555" y="454"/>
      <point x="514" y="462"/>
      <point x="482" y="462" type="curve" smooth="yes"/>
      <point x="347" y="462"/>
      <point x="238" y="353"/>
      <point x="238" y="222" type="curve" smooth="yes"/>
      <point x="238" y="152"/>
      <point x="273" y="96"/>
      <point x="348" y="96" type="curve" smooth="yes"/>
      <point x="409" y="96"/>
      <point x="453" y="129"/>
      <point x="487" y="184" type="curve"/>
      <point x="489" y="126"/>
      <point x="519" y="94"/>
      <point x="577" y="94" type="curve" smooth="yes"/>
    </contour>
    <contour>
      <point x="305" y="129"/>
      <point x="277" y="168"/>
      <point x="277" y="223" type="curve" smooth="yes"/>
      <point x="277" y="329"/>
      <point x="364" y="430"/>
      <point x="476" y="430" type="curve" smooth="yes"/>
      <point x="500" y="430"/>
      <point x="505" y="428"/>
      <point x="530" y="422" type="curve"/>
      <point x="490" y="268" type="line" smooth="yes"/>
      <point x="471" y="195"/>
      <point x="433" y="129"/>
      <point x="357" y="129" type="curve" smooth="yes"/>
    </contour>
  </outline>
</glyph>
<glyph name="A" format="1">
  <advance width="771"/>
  <unicode hex="0041"/>
  <note>
    A
  </note>
  <outline>
    <contour>
      <point x="126" y="0" type="line"/>
      <point x="216" y="232" type="line"/>
      <point x="558" y="232" type="line"/>
      <point x="648" y="0" type="line"/>
      <point x="704" y="0" type="line"/>
      <point x="414" y="708" type="line"/>
      <point x="387" y="708" type="line"/>
      <point x="360" y="708" type="line"/>
      <point x="70" y="0" type="line"/>
    </contour>
    <contour>
      <point x="371" y="614" type="line"/>
      <point x="387" y="659" type="line"/>
      <point x="403" y="614" type="line"/>
      <point x="542" y="270" type="line"/>
      <point x="232" y="270" type="line"/>
    </contour>
    <component base="SerfiBottomSymmetrical" xOffset="91"/>
    <component base="SerfiBottomSymmetrical" xOffset="639"/>
    <contour>
      <point x="759" y="10" type="move" name="ogonek"/>
    </contour>
    <contour>
      <point x="386" y="0" type="move" name="bottom"/>
    </contour>
    <contour>
      <point x="386" y="708" type="move" name="top"/>
    </contour>
  </outline>
</glyph>
<glyph name="B" format="1">
  <advance width="638"/>
  <unicode hex="0042"/>
  <note>
    B
  </note>
  <outline>
    <contour>
      <point x="364" y="0" type="line" smooth="yes"/>
      <point x="464" y="0"/>
      <point x="551" y="32"/>
      <point x="587" y="112" type="curve" smooth="yes"/>
      <point x="598" y="136"/>
      <point x="603" y="163"/>
      <point x="603" y="193" type="curve" smooth="yes"/>
      <point x="603" y="293"/>
      <point x="534" y="347"/>
      <point x="429" y="362" type="curve"/>
      <point x="513" y="384"/>
      <point x="574" y="446"/>
      <point x="574" y="528" type="curve" smooth="yes"/>
      <point x="574" y="611"/>
      <point x="531" y="673"/>
      <point x="443" y="696" type="curve" smooth="yes"/>
      <point x="413" y="704"/>
      <point x="378" y="708"/>
      <point x="338" y="708" type="curve" smooth="yes"/>
      <point x="135" y="708" type="line"/>
      <point x="135" y="0" type="line"/>
    </contour>
    <contour>
      <point x="186" y="339" type="line"/>
      <point x="364" y="339" type="line" smooth="yes"/>
      <point x="469" y="339"/>
      <point x="552" y="292"/>
      <point x="552" y="194" type="curve" smooth="yes"/>
      <point x="552" y="91"/>
      <point x="480" y="41"/>
      <point x="363" y="41" type="curve" smooth="yes"/>
      <point x="186" y="41" type="line"/>
    </contour>
    <contour>
      <point x="186" y="668" type="line"/>
      <point x="338" y="668" type="line" smooth="yes"/>
      <point x="451" y="668"/>
      <point x="523" y="628"/>
      <point x="523" y="523" type="curve" smooth="yes"/>
      <point x="523" y="430"/>
      <point x="445" y="376"/>
      <point x="339" y="376" type="curve" smooth="yes"/>
      <point x="186" y="376" type="line"/>
    </contour>
    <component base="SerfiBottomSymmetrical" xOffset="169" yOffset="708" xScale="-1" yScale="-1"/>
    <component base="SerfiBottomSymmetrical" xOffset="123"/>
    <contour>
      <point x="319" y="708" type="move" name="top"/>
    </contour>
  </outline>
</glyph>
<glyph name="C" format="1">
  <advance width="644"/>
  <unicode hex="0043"/>
  <note>
    C
  </note>
  <outline>
    <contour>
      <point x="525" y="699"/>
      <point x="449" y="715"/>
      <point x="383" y="715" type="curve" smooth="yes"/>
      <point x="177" y="715"/>
      <point x="37" y="569"/>
      <point x="37" y="354" type="curve" smooth="yes"/>
      <point x="37" y="146"/>
      <point x="166" y="-8"/>
      <point x="369" y="-8" type="curve" smooth="yes"/>
      <point x="468" y="-8"/>
      <point x="555" y="24"/>
      <point x="622" y="94" type="curve"/>
      <point x="602" y="115" type="line" smooth="yes"/>
      <point x="596" y="121"/>
      <point x="590" y="119"/>
      <point x="584" y="114" type="curve"/>
      <point x="523" y="58"/>
      <point x="458" y="36"/>
      <point x="373" y="36" type="curve" smooth="yes"/>
      <point x="200" y="36"/>
      <point x="90" y="166"/>
      <point x="90" y="354" type="curve" smooth="yes"/>
      <point x="90" y="539"/>
      <point x="202" y="671"/>
      <point x="383" y="671" type="curve" smooth="yes"/>
      <point x="449" y="671"/>
      <point x="512" y="657"/>
      <point x="592" y="624" type="curve"/>
      <point x="609" y="665" type="line"/>
    </contour>
    <component base="SerifUpLeft" xOffset="609" yOffset="665" xScale="-1" yScale="-1"/>
    <contour>
      <point x="383" y="708" type="move" name="top"/>
    </contour>
    <contour>
      <point x="322" y="0" type="move" name="bottom"/>
    </contour>
  </outline>
</glyph>
<glyph name="D" format="1">
  <advance width="760"/>
  <unicode hex="0044"/>
  <note>
    D
  </note>
  <outline>
    <contour>
      <point x="718" y="560"/>
      <point x="590" y="708"/>
      <point x="380" y="708" type="curve" smooth="yes"/>
      <point x="50" y="708" type="line"/>
      <point x="50" y="689" type="line" smooth="yes"/>
      <point x="50" y="678"/>
      <point x="57" y="672"/>
      <point x="70" y="671" type="curve"/>
      <point x="135" y="669" type="line"/>
      <point x="135" y="40" type="line"/>
      <point x="70" y="38" type="line"/>
      <point x="57" y="37"/>
      <point x="50" y="31"/>
      <point x="50" y="20" type="curve" smooth="yes"/>
      <point x="50" y="0" type="line"/>
      <point x="135" y="0" type="line"/>
      <point x="380" y="0" type="line" smooth="yes"/>
      <point x="590" y="0"/>
      <point x="718" y="145"/>
      <point x="718" y="354" type="curve" smooth="yes"/>
    </contour>
    <contour>
      <point x="665" y="171"/>
      <point x="565" y="41"/>
      <point x="380" y="41" type="curve" smooth="yes"/>
      <point x="186" y="41" type="line"/>
      <point x="186" y="667" type="line"/>
      <point x="380" y="667" type="line" smooth="yes"/>
      <point x="562" y="667"/>
      <point x="665" y="539"/>
      <point x="665" y="354" type="curve" smooth="yes"/>
    </contour>
    <contour>
      <point x="380" y="354" type="move" name="center"/>
    </contour>
    <contour>
      <point x="380" y="0" type="move" name="bottom"/>
    </contour>
    <contour>
      <point x="380" y="708" type="move" name="top"/>
    </contour>
  </outline>
</glyph>
<glyph name="E" format="1">
  <advance width="622"/>
  <unicode hex="0045"/>
  <note>
    E
  </note>
  <outline>
    <contour>
      <point x="50" y="708" type="line"/>
      <point x="50" y="689" type="line" smooth="yes"/>
      <point x="50" y="678"/>
      <point x="57" y="672"/>
      <point x="70" y="671" type="curve"/>
      <point x="135" y="669" type="line"/>
      <point x="135" y="40" type="line"/>
      <point x="70" y="38" type="line"/>
      <point x="57" y="37"/>
      <point x="51" y="31"/>
      <point x="51" y="20" type="curve" smooth="yes"/>
      <point x="51" y="0" type="line"/>
      <point x="559" y="0" type="line"/>
      <point x="559" y="147" type="line"/>
      <point x="534" y="147" type="line" smooth="yes"/>
      <point x="520" y="147"/>
      <point x="514" y="138"/>
      <point x="513" y="122" type="curve"/>
      <point x="509" y="43" type="line"/>
      <point x="186" y="43" type="line"/>
      <point x="186" y="338" type="line"/>
      <point x="468" y="338" type="line"/>
      <point x="468" y="379" type="line"/>
      <point x="186" y="379" type="line"/>
      <point x="186" y="666" type="line"/>
      <point x="509" y="666" type="line"/>
      <point x="513" y="586" type="line"/>
      <point x="514" y="570"/>
      <point x="520" y="562"/>
      <point x="534" y="562" type="curve" smooth="yes"/>
      <point x="559" y="562" type="line"/>
      <point x="559" y="708" type="line"/>
    </contour>
    <contour>
      <point x="560" y="10" type="move" name="ogonek"/>
    </contour>
    <contour>
      <point x="311" y="0" type="move" name="bottom"/>
    </contour>
    <contour>
      <point x="311" y="708" type="move" name="top"/>
    </contour>
  </outline>
</glyph>
<glyph name="F" format="1">
  <advance width="595"/>
  <unicode hex="0046"/>
  <note>
    F
  </note>
  <outline>
    <contour>
      <point x="50" y="708" type="line"/>
      <point x="50" y="689" type="line" smooth="yes"/>
      <point x="50" y="678"/>
      <point x="57" y="672"/>
      <point x="70" y="671" type="curve"/>
      <point x="135" y="669" type="line"/>
      <point x="135" y="40" type="line"/>
      <point x="70" y="38" type="line"/>
      <point x="57" y="37"/>
      <point x="50" y="31"/>
      <point x="50" y="20" type="curve" smooth="yes"/>
      <point x="50" y="0" type="line"/>
      <point x="270" y="0" type="line"/>
      <point x="270" y="20" type="line" smooth="yes"/>
      <point x="270" y="31"/>
      <point x="264" y="37"/>
      <point x="251" y="38" type="curve"/>
      <point x="186" y="40" type="line"/>
      <point x="186" y="325" type="line"/>
      <point x="450" y="325" type="line"/>
      <point x="450" y="368" type="line"/>
      <point x="186" y="368" type="line"/>
      <point x="186" y="666" type="line"/>
      <point x="515" y="666" type="line"/>
      <point x="519" y="586" type="line"/>
      <point x="520" y="570"/>
      <point x="527" y="562"/>
      <point x="541" y="562" type="curve" smooth="yes"/>
      <point x="565" y="562" type="line"/>
      <point x="565" y="708" type="line"/>
    </contour>
    <contour>
      <point x="298" y="708" type="move" name="top"/>
    </contour>
    <contour>
      <point x="298" y="0" type="move" name="bottom"/>
    </contour>
  </outline>
</glyph>
<glyph name="G" format="1">
  <advance width="698"/>
  <unicode hex="0047"/>
  <note>
    G
  </note>
  <outline>
    <contour>
      <point x="453" y="321" type="line"/>
      <point x="453" y="293" type="line" smooth="yes"/>
      <point x="453" y="290"/>
      <point x="456" y="282"/>
      <point x="466" y="282" type="curve" smooth="yes"/>
      <point x="602" y="282" type="line"/>
      <point x="602" y="91" type="line"/>
      <point x="526" y="48"/>
      <point x="471" y="34"/>
      <point x="384" y="34" type="curve" smooth="yes"/>
      <point x="199" y="34"/>
      <point x="89" y="166"/>
      <point x="89" y="354" type="curve" smooth="yes"/>
      <point x="89" y="540"/>
      <point x="200" y="671"/>
      <point x="390" y="671" type="curve" smooth="yes"/>
      <point x="474" y="671"/>
      <point x="541" y="660"/>
      <point x="590" y="637" type="curve"/>
      <point x="595" y="529" type="line"/>
      <point x="596" y="513"/>
      <point x="603" y="505"/>
      <point x="617" y="505" type="curve" smooth="yes"/>
      <point x="641" y="505" type="line"/>
      <point x="641" y="665" type="line"/>
      <point x="580" y="693"/>
      <point x="468" y="715"/>
      <point x="392" y="715" type="curve" smooth="yes"/>
      <point x="173" y="715"/>
      <point x="37" y="573"/>
      <point x="37" y="354" type="curve" smooth="yes"/>
      <point x="37" y="140"/>
      <point x="172" y="-8"/>
      <point x="380" y="-8" type="curve" smooth="yes"/>
      <point x="488" y="-8"/>
      <point x="562" y="13"/>
      <point x="648" y="70" type="curve"/>
      <point x="648" y="321" type="line"/>
    </contour>
    <contour>
      <point x="375" y="708" type="move" name="top"/>
    </contour>
    <contour>
      <point x="349" y="0" type="move" name="bottom"/>
    </contour>
  </outline>
</glyph>
<glyph name="H" format="1">
  <advance width="811"/>
  <unicode hex="0048"/>
  <note>
    H
  </note>
  <outline>
    <contour>
      <point x="745" y="671" type="line"/>
      <point x="758" y="672"/>
      <point x="765" y="678"/>
      <point x="765" y="689" type="curve" smooth="yes"/>
      <point x="765" y="708" type="line"/>
      <point x="545" y="708" type="line"/>
      <point x="545" y="689" type="line" smooth="yes"/>
      <point x="545" y="678"/>
      <point x="552" y="672"/>
      <point x="565" y="671" type="curve"/>
      <point x="629" y="669" type="line"/>
      <point x="629" y="378" type="line"/>
      <point x="186" y="378" type="line"/>
      <point x="186" y="669" type="line"/>
      <point x="251" y="671" type="line"/>
      <point x="264" y="672"/>
      <point x="270" y="678"/>
      <point x="270" y="689" type="curve" smooth="yes"/>
      <point x="270" y="708" type="line"/>
      <point x="50" y="708" type="line"/>
      <point x="50" y="689" type="line" smooth="yes"/>
      <point x="50" y="678"/>
      <point x="57" y="672"/>
      <point x="70" y="671" type="curve"/>
      <point x="135" y="669" type="line"/>
      <point x="135" y="40" type="line"/>
      <point x="70" y="38" type="line"/>
      <point x="57" y="37"/>
      <point x="50" y="31"/>
      <point x="50" y="20" type="curve" smooth="yes"/>
      <point x="50" y="0" type="line"/>
      <point x="270" y="0" type="line"/>
      <point x="270" y="20" type="line" smooth="yes"/>
      <point x="270" y="31"/>
      <point x="264" y="37"/>
      <point x="251" y="38" type="curve"/>
      <point x="186" y="40" type="line"/>
      <point x="186" y="339" type="line"/>
      <point x="629" y="339" type="line"/>
      <point x="629" y="40" type="line"/>
      <point x="565" y="38" type="line"/>
      <point x="552" y="37"/>
      <point x="545" y="31"/>
      <point x="545" y="20" type="curve" smooth="yes"/>
      <point x="545" y="0" type="line"/>
      <point x="765" y="0" type="line"/>
      <point x="765" y="20" type="line" smooth="yes"/>
      <point x="765" y="31"/>
      <point x="758" y="37"/>
      <point x="745" y="38" type="curve"/>
      <point x="681" y="40" type="line"/>
      <point x="681" y="669" type="line"/>
    </contour>
    <contour>
      <point x="406" y="354" type="move" name="center"/>
    </contour>
    <contour>
      <point x="406" y="0" type="move" name="bottom"/>
    </contour>
    <contour>
      <point x="406" y="708" type="move" name="top"/>
    </contour>
  </outline>
</glyph>
<glyph name="I" format="1">
  <advance width="316"/>
  <unicode hex="0049"/>
  <note>
    I
  </note>
  <outline>
    <contour>
      <point x="251" y="670" type="line"/>
      <point x="264" y="671"/>
      <point x="270" y="677"/>
      <point x="270" y="688" type="curve" smooth="yes"/>
      <point x="270" y="708" type="line"/>
      <point x="50" y="708" type="line"/>
      <point x="50" y="688" type="line" smooth="yes"/>
      <point x="50" y="677"/>
      <point x="57" y="671"/>
      <point x="70" y="670" type="curve"/>
      <point x="135" y="668" type="line"/>
      <point x="135" y="40" type="line"/>
      <point x="70" y="38" type="line"/>
      <point x="57" y="37"/>
      <point x="50" y="31"/>
      <point x="50" y="20" type="curve" smooth="yes"/>
      <point x="50" y="0" type="line"/>
      <point x="270" y="0" type="line"/>
      <point x="270" y="20" type="line" smooth="yes"/>
      <point x="270" y="31"/>
      <point x="264" y="37"/>
      <point x="251" y="38" type="curve"/>
      <point x="186" y="40" type="line"/>
      <point x="186" y="668" type="line"/>
    </contour>
    <contour>
      <point x="251" y="10" type="move" name="ogonek"/>
    </contour>
    <contour>
      <point x="158" y="0" type="move" name="bottom"/>
    </contour>
    <contour>
      <point x="158" y="708" type="move" name="top"/>
    </contour>
  </outline>
</glyph>
<glyph name="J" format="1">
  <advance width="450"/>
  <unicode hex="004A"/>
  <note>
    J
  </note>
  <outline>
    <contour>
      <point x="199" y="708" type="line"/>
      <point x="199" y="688" type="line" smooth="yes"/>
      <point x="199" y="677"/>
      <point x="206" y="671"/>
      <point x="219" y="670" type="curve"/>
      <point x="291" y="668" type="line"/>
      <point x="291" y="235" type="line" smooth="yes"/>
      <point x="291" y="112"/>
      <point x="239" y="35"/>
      <point x="127" y="35" type="curve" smooth="yes"/>
      <point x="111" y="35"/>
      <point x="86" y="39"/>
      <point x="65" y="44" type="curve" smooth="yes"/>
      <point x="50" y="47"/>
      <point x="47" y="45"/>
      <point x="43" y="29" type="curve"/>
      <point x="38" y="7" type="line"/>
      <point x="65" y="-1"/>
      <point x="104" y="-8"/>
      <point x="131" y="-8" type="curve" smooth="yes"/>
      <point x="268" y="-8"/>
      <point x="342" y="85"/>
      <point x="342" y="236" type="curve" smooth="yes"/>
      <point x="342" y="668" type="line"/>
      <point x="407" y="670" type="line"/>
      <point x="420" y="671"/>
      <point x="427" y="677"/>
      <point x="427" y="688" type="curve" smooth="yes"/>
      <point x="427" y="708" type="line"/>
    </contour>
    <contour>
      <point x="316" y="708" type="move" name="top"/>
    </contour>
    <contour>
      <point x="225" y="0" type="move" name="bottom"/>
    </contour>
  </outline>
</glyph>
<glyph name="K" format="1">
  <advance width="718"/>
  <unicode hex="004B"/>
  <note>
    K
  </note>
  <outline>
    <contour>
      <point x="618" y="39" type="line"/>
      <point x="330" y="340" type="line"/>
      <point x="321" y="350"/>
      <point x="310" y="360"/>
      <point x="294" y="365" type="curve"/>
      <point x="301" y="367"/>
      <point x="316" y="377"/>
      <point x="327" y="390" type="curve"/>
      <point x="598" y="669" type="line"/>
      <point x="636" y="670" type="line"/>
      <point x="649" y="671"/>
      <point x="656" y="677"/>
      <point x="656" y="688" type="curve" smooth="yes"/>
      <point x="656" y="708" type="line"/>
      <point x="448" y="708" type="line"/>
      <point x="448" y="688" type="line" smooth="yes"/>
      <point x="448" y="677"/>
      <point x="455" y="671"/>
      <point x="468" y="670" type="curve"/>
      <point x="540" y="669" type="line"/>
      <point x="278" y="400" type="line" smooth="yes"/>
      <point x="264" y="386"/>
      <point x="254" y="381"/>
      <point x="227" y="381" type="curve" smooth="yes"/>
      <point x="185" y="381" type="line"/>
      <point x="185" y="669" type="line"/>
      <point x="250" y="671" type="line"/>
      <point x="263" y="672"/>
      <point x="269" y="678"/>
      <point x="269" y="689" type="curve" smooth="yes"/>
      <point x="269" y="708" type="line"/>
      <point x="50" y="708" type="line"/>
      <point x="50" y="689" type="line" smooth="yes"/>
      <point x="50" y="678"/>
      <point x="57" y="672"/>
      <point x="70" y="671" type="curve"/>
      <point x="134" y="669" type="line"/>
      <point x="134" y="40" type="line"/>
      <point x="70" y="38" type="line"/>
      <point x="57" y="37"/>
      <point x="50" y="31"/>
      <point x="50" y="20" type="curve" smooth="yes"/>
      <point x="50" y="0" type="line"/>
      <point x="269" y="0" type="line"/>
      <point x="269" y="20" type="line" smooth="yes"/>
      <point x="269" y="31"/>
      <point x="263" y="37"/>
      <point x="250" y="38" type="curve"/>
      <point x="185" y="40" type="line"/>
      <point x="185" y="341" type="line"/>
      <point x="231" y="341" type="line" smooth="yes"/>
      <point x="252" y="341"/>
      <point x="266" y="339"/>
      <point x="285" y="320" type="curve" smooth="yes"/>
      <point x="560" y="39" type="line"/>
      <point x="484" y="38" type="line"/>
      <point x="471" y="37"/>
      <point x="464" y="31"/>
      <point x="464" y="20" type="curve" smooth="yes"/>
      <point x="464" y="0" type="line"/>
      <point x="677" y="0" type="line"/>
      <point x="677" y="20" type="line" smooth="yes"/>
      <point x="677" y="31"/>
      <point x="670" y="37"/>
      <point x="657" y="38" type="curve"/>
    </contour>
    <contour>
      <point x="359" y="708" type="move" name="top"/>
    </contour>
    <contour>
      <point x="359" y="0" type="move" name="bottom"/>
    </contour>
  </outline>
</glyph>
<glyph name="M" format="1">
  <advance width="964"/>
  <unicode hex="004D"/>
  <note>
    M
  </note>
  <outline>
    <contour>
      <point x="898" y="671" type="line"/>
      <point x="911" y="672"/>
      <point x="918" y="678"/>
      <point x="918" y="689" type="curve" smooth="yes"/>
      <point x="918" y="708" type="line"/>
      <point x="834" y="708" type="line"/>
      <point x="798" y="708" type="line" smooth="yes"/>
      <point x="787" y="708"/>
      <point x="785" y="707"/>
      <point x="779" y="699" type="curve"/>
      <point x="501" y="207" type="line" smooth="yes"/>
      <point x="501" y="207"/>
      <point x="492" y="187"/>
      <point x="488" y="176" type="curve"/>
      <point x="484" y="187"/>
      <point x="480" y="197"/>
      <point x="475" y="206" type="curve" smooth="yes"/>
      <point x="189" y="699" type="line"/>
      <point x="183" y="708"/>
      <point x="181" y="708"/>
      <point x="170" y="708" type="curve" smooth="yes"/>
      <point x="135" y="708" type="line"/>
      <point x="50" y="708" type="line"/>
      <point x="50" y="689" type="line" smooth="yes"/>
      <point x="50" y="678"/>
      <point x="57" y="672"/>
      <point x="70" y="671" type="curve"/>
      <point x="135" y="669" type="line"/>
      <point x="135" y="40" type="line"/>
      <point x="70" y="38" type="line"/>
      <point x="57" y="37"/>
      <point x="50" y="31"/>
      <point x="50" y="20" type="curve" smooth="yes"/>
      <point x="50" y="0" type="line"/>
      <point x="266" y="0" type="line"/>
      <point x="266" y="20" type="line" smooth="yes"/>
      <point x="266" y="31"/>
      <point x="259" y="37"/>
      <point x="246" y="38" type="curve"/>
      <point x="179" y="40" type="line"/>
      <point x="179" y="604" type="line" smooth="yes"/>
      <point x="179" y="613"/>
      <point x="179" y="622"/>
      <point x="178" y="632" type="curve"/>
      <point x="464" y="136" type="line" smooth="yes"/>
      <point x="469" y="127"/>
      <point x="476" y="123"/>
      <point x="484" y="123" type="curve" smooth="yes"/>
      <point x="492" y="123" type="line" smooth="yes"/>
      <point x="501" y="123"/>
      <point x="507" y="127"/>
      <point x="512" y="136" type="curve" smooth="yes"/>
      <point x="790" y="632" type="line"/>
      <point x="789" y="622"/>
      <point x="789" y="613"/>
      <point x="789" y="604" type="curve" smooth="yes"/>
      <point x="789" y="40" type="line"/>
      <point x="722" y="38" type="line"/>
      <point x="709" y="37"/>
      <point x="702" y="31"/>
      <point x="702" y="20" type="curve" smooth="yes"/>
      <point x="702" y="0" type="line"/>
      <point x="918" y="0" type="line"/>
      <point x="918" y="20" type="line" smooth="yes"/>
      <point x="918" y="31"/>
      <point x="911" y="37"/>
      <point x="898" y="38" type="curve"/>
      <point x="834" y="40" type="line"/>
      <point x="834" y="669" type="line"/>
    </contour>
    <contour>
      <point x="482" y="708" type="move" name="top"/>
    </contour>
    <contour>
      <point x="482" y="0" type="move" name="bottom"/>
    </contour>
  </outline>
</glyph>
<glyph name="N" format="1">
  <advance width="789"/>
  <unicode hex="004E"/>
  <note>
    N
  </note>
  <outline>
    <contour>
      <point x="549" y="708" type="line"/>
      <point x="549" y="689" type="line" smooth="yes"/>
      <point x="549" y="678"/>
      <point x="556" y="672"/>
      <point x="569" y="671" type="curve"/>
      <point x="636" y="669" type="line"/>
      <point x="636" y="114" type="line" smooth="yes"/>
      <point x="636" y="105"/>
      <point x="636" y="95"/>
      <point x="637" y="85" type="curve"/>
      <point x="179" y="698" type="line" smooth="yes"/>
      <point x="175" y="703"/>
      <point x="172" y="708"/>
      <point x="160" y="708" type="curve" smooth="yes"/>
      <point x="50" y="708" type="line"/>
      <point x="50" y="688" type="line" smooth="yes"/>
      <point x="50" y="677"/>
      <point x="57" y="671"/>
      <point x="70" y="670" type="curve"/>
      <point x="135" y="668" type="line"/>
      <point x="135" y="40" type="line"/>
      <point x="70" y="38" type="line"/>
      <point x="57" y="37"/>
      <point x="50" y="31"/>
      <point x="50" y="20" type="curve" smooth="yes"/>
      <point x="50" y="0" type="line"/>
      <point x="266" y="0" type="line"/>
      <point x="266" y="20" type="line" smooth="yes"/>
      <point x="266" y="31"/>
      <point x="259" y="37"/>
      <point x="246" y="38" type="curve"/>
      <point x="179" y="40" type="line"/>
      <point x="179" y="595" type="line" smooth="yes"/>
      <point x="179" y="604"/>
      <point x="179" y="614"/>
      <point x="178" y="624" type="curve"/>
      <point x="638" y="10" type="line" smooth="yes"/>
      <point x="643" y="3"/>
      <point x="648" y="0"/>
      <point x="656" y="0" type="curve" smooth="yes"/>
      <point x="681" y="0" type="line"/>
      <point x="681" y="669" type="line"/>
      <point x="745" y="671" type="line"/>
      <point x="758" y="672"/>
      <point x="765" y="678"/>
      <point x="765" y="689" type="curve" smooth="yes"/>
      <point x="765" y="708" type="line"/>
    </contour>
    <contour>
      <point x="395" y="708" type="move" name="top"/>
    </contour>
    <contour>
      <point x="395" y="0" type="move" name="bottom"/>
    </contour>
  </outline>
</glyph>
<glyph name="O" format="1">
  <advance width="753"/>
  <unicode hex="004F"/>
  <note>
    O
  </note>
  <outline>
    <contour>
      <point x="712" y="560"/>
      <point x="583" y="716"/>
      <point x="374" y="716" type="curve" smooth="yes"/>
      <point x="169" y="716"/>
      <point x="37" y="563"/>
      <point x="37" y="354" type="curve" smooth="yes"/>
      <point x="37" y="144"/>
      <point x="169" y="-8"/>
      <point x="374" y="-8" type="curve" smooth="yes"/>
      <point x="581" y="-8"/>
      <point x="712" y="143"/>
      <point x="712" y="354" type="curve" smooth="yes"/>
    </contour>
    <contour>
      <point x="658" y="165"/>
      <point x="554" y="37"/>
      <point x="374" y="37" type="curve" smooth="yes"/>
      <point x="193" y="37"/>
      <point x="90" y="169"/>
      <point x="90" y="354" type="curve" smooth="yes"/>
      <point x="90" y="541"/>
      <point x="197" y="672"/>
      <point x="374" y="672" type="curve" smooth="yes"/>
      <point x="551" y="672"/>
      <point x="658" y="544"/>
      <point x="658" y="354" type="curve" smooth="yes"/>
    </contour>
    <contour>
      <point x="377" y="0" type="move" name="bottom"/>
    </contour>
    <contour>
      <point x="678" y="10" type="move" name="ogonek"/>
    </contour>
    <contour>
      <point x="377" y="708" type="move" name="top"/>
    </contour>
    <contour>
      <point x="733" y="708" type="move" name="topright"/>
    </contour>
    <contour>
      <point x="377" y="354" type="move" name="center"/>
    </contour>
  </outline>
</glyph>
<glyph name="P" format="1">
  <advance width="593"/>
  <unicode hex="0050"/>
  <note>
    P
  </note>
  <outline>
    <contour>
      <point x="464" y="708"/>
      <point x="307" y="708" type="curve" smooth="yes"/>
      <point x="50" y="708" type="line"/>
      <point x="50" y="689" type="line" smooth="yes"/>
      <point x="50" y="678"/>
      <point x="57" y="672"/>
      <point x="70" y="671" type="curve"/>
      <point x="135" y="669" type="line"/>
      <point x="135" y="40" type="line"/>
      <point x="70" y="38" type="line"/>
      <point x="57" y="37"/>
      <point x="50" y="31"/>
      <point x="50" y="20" type="curve" smooth="yes"/>
      <point x="50" y="0" type="line"/>
      <point x="270" y="0" type="line"/>
      <point x="270" y="20" type="line" smooth="yes"/>
      <point x="270" y="31"/>
      <point x="263" y="37"/>
      <point x="250" y="38" type="curve"/>
      <point x="186" y="40" type="line"/>
      <point x="186" y="285" type="line"/>
      <point x="307" y="285" type="line" smooth="yes"/>
      <point x="449" y="285"/>
      <point x="558" y="363"/>
      <point x="558" y="497" type="curve" smooth="yes"/>
      <point x="558" y="641"/>
    </contour>
    <contour>
      <point x="424" y="326"/>
      <point x="307" y="326" type="curve" smooth="yes"/>
      <point x="186" y="326" type="line"/>
      <point x="186" y="668" type="line"/>
      <point x="307" y="668" type="line" smooth="yes"/>
      <point x="430" y="668"/>
      <point x="507" y="614"/>
      <point x="507" y="498" type="curve" smooth="yes"/>
      <point x="507" y="392"/>
    </contour>
    <contour>
      <point x="297" y="708" type="move" name="top"/>
    </contour>
    <contour>
      <point x="297" y="0" type="move" name="bottom"/>
    </contour>
  </outline>
</glyph>
<glyph name="Q" format="1">
  <advance width="759"/>
  <unicode hex="0051"/>
  <note>
    Q
  </note>
  <outline>
    <contour>
      <point x="711" y="560"/>
      <point x="582" y="716"/>
      <point x="374" y="716" type="curve" smooth="yes"/>
      <point x="168" y="716"/>
      <point x="36" y="563"/>
      <point x="36" y="354" type="curve" smooth="yes"/>
      <point x="36" y="143"/>
      <point x="168" y="-8"/>
      <point x="374" y="-8" type="curve" smooth="yes"/>
      <point x="415" y="-8"/>
      <point x="479" y="4"/>
      <point x="514" y="19" type="curve"/>
      <point x="665" y="-144" type="line"/>
      <point x="670" y="-150"/>
      <point x="681" y="-156"/>
      <point x="697" y="-156" type="curve" smooth="yes"/>
      <point x="740" y="-156" type="line"/>
      <point x="556" y="41" type="line"/>
      <point x="661" y="107"/>
      <point x="711" y="223"/>
      <point x="711" y="354" type="curve" smooth="yes"/>
    </contour>
    <contour>
      <point x="658" y="165"/>
      <point x="554" y="37"/>
      <point x="374" y="37" type="curve" smooth="yes"/>
      <point x="193" y="37"/>
      <point x="89" y="168"/>
      <point x="89" y="354" type="curve" smooth="yes"/>
      <point x="89" y="539"/>
      <point x="195" y="672"/>
      <point x="374" y="672" type="curve" smooth="yes"/>
      <point x="551" y="672"/>
      <point x="658" y="545"/>
      <point x="658" y="354" type="curve" smooth="yes"/>
    </contour>
    <contour>
      <point x="380" y="708" type="move" name="top"/>
    </contour>
    <contour>
      <point x="380" y="0" type="move" name="bottom"/>
    </contour>
  </outline>
</glyph>
<glyph name="U" format="1">
  <advance width="751"/>
  <unicode hex="0055"/>
  <note>
    U
  </note>
  <outline>
    <contour>
      <point x="496" y="708" type="line"/>
      <point x="496" y="689" type="line" smooth="yes"/>
      <point x="496" y="678"/>
      <point x="503" y="672"/>
      <point x="516" y="671" type="curve"/>
      <point x="593" y="669" type="line"/>
      <point x="593" y="270" type="line" smooth="yes"/>
      <point x="593" y="138"/>
      <point x="511" y="36"/>
      <point x="376" y="36" type="curve" smooth="yes"/>
      <point x="242" y="36"/>
      <point x="159" y="137"/>
      <point x="159" y="270" type="curve" smooth="yes"/>
      <point x="159" y="669" type="line"/>
      <point x="236" y="671" type="line"/>
      <point x="249" y="672"/>
      <point x="256" y="678"/>
      <point x="256" y="689" type="curve" smooth="yes"/>
      <point x="256" y="708" type="line"/>
      <point x="24" y="708" type="line"/>
      <point x="24" y="689" type="line" smooth="yes"/>
      <point x="24" y="678"/>
      <point x="30" y="672"/>
      <point x="43" y="671" type="curve"/>
      <point x="108" y="669" type="line"/>
      <point x="108" y="270" type="line" smooth="yes"/>
      <point x="108" y="110"/>
      <point x="211" y="-8"/>
      <point x="376" y="-8" type="curve" smooth="yes"/>
      <point x="538" y="-8"/>
      <point x="644" y="110"/>
      <point x="644" y="270" type="curve" smooth="yes"/>
      <point x="644" y="669" type="line"/>
      <point x="708" y="671" type="line"/>
      <point x="721" y="672"/>
      <point x="728" y="678"/>
      <point x="728" y="689" type="curve" smooth="yes"/>
      <point x="728" y="708" type="line"/>
    </contour>
    <contour>
      <point x="469" y="10" type="move" name="ogonek"/>
    </contour>
    <contour>
      <point x="376" y="708" type="move" name="top"/>
    </contour>
    <contour>
      <point x="731" y="708" type="move" name="topright"/>
    </contour>
    <contour>
      <point x="376" y="0" type="move" name="bottom"/>
    </contour>
  </outline>
</glyph>
<glyph name="V" format="1">
  <advance width="763"/>
  <unicode hex="0056"/>
  <note>
    V
  </note>
  <outline>
    <contour>
      <point x="549" y="708" type="line"/>
      <point x="549" y="689" type="line" smooth="yes"/>
      <point x="549" y="678"/>
      <point x="555" y="672"/>
      <point x="568" y="671" type="curve"/>
      <point x="626" y="669" type="line"/>
      <point x="397" y="107" type="line" smooth="yes"/>
      <point x="391" y="92"/>
      <point x="386" y="76"/>
      <point x="382" y="58" type="curve"/>
      <point x="378" y="75"/>
      <point x="373" y="92"/>
      <point x="367" y="107" type="curve" smooth="yes"/>
      <point x="136" y="669" type="line"/>
      <point x="194" y="671" type="line"/>
      <point x="207" y="672"/>
      <point x="214" y="678"/>
      <point x="214" y="689" type="curve" smooth="yes"/>
      <point x="214" y="708" type="line"/>
      <point x="24" y="708" type="line"/>
      <point x="24" y="689" type="line" smooth="yes"/>
      <point x="24" y="678"/>
      <point x="31" y="672"/>
      <point x="44" y="671" type="curve"/>
      <point x="83" y="669" type="line"/>
      <point x="359" y="0" type="line"/>
      <point x="404" y="0" type="line"/>
      <point x="680" y="669" type="line"/>
      <point x="718" y="671" type="line"/>
      <point x="731" y="672"/>
      <point x="738" y="678"/>
      <point x="738" y="689" type="curve" smooth="yes"/>
      <point x="738" y="708" type="line"/>
    </contour>
    <contour>
      <point x="382" y="708" type="move" name="top"/>
    </contour>
    <contour>
      <point x="382" y="0" type="move" name="bottom"/>
    </contour>
  </outline>
</glyph>
<glyph name="W" format="1">
  <advance width="1103"/>
  <unicode hex="0057"/>
  <note>
    W
  </note>
  <outline>
    <contour>
      <point x="889" y="708" type="line"/>
      <point x="889" y="689" type="line" smooth="yes"/>
      <point x="889" y="678"/>
      <point x="895" y="672"/>
      <point x="908" y="671" type="curve"/>
      <point x="970" y="669" type="line"/>
      <point x="800" y="113" type="line" smooth="yes"/>
      <point x="796" y="100"/>
      <point x="793" y="83"/>
      <point x="790" y="68" type="curve"/>
      <point x="787" y="83"/>
      <point x="783" y="100"/>
      <point x="779" y="113" type="curve"/>
      <point x="579" y="695" type="line"/>
      <point x="576" y="702"/>
      <point x="573" y="708"/>
      <point x="560" y="708" type="curve" smooth="yes"/>
      <point x="546" y="708" type="line" smooth="yes"/>
      <point x="536" y="708"/>
      <point x="528" y="701"/>
      <point x="527" y="695" type="curve"/>
      <point x="327" y="112" type="line"/>
      <point x="324" y="102"/>
      <point x="320" y="82"/>
      <point x="316" y="67" type="curve"/>
      <point x="313" y="82"/>
      <point x="309" y="102"/>
      <point x="306" y="113" type="curve" smooth="yes"/>
      <point x="136" y="669" type="line"/>
      <point x="194" y="671" type="line"/>
      <point x="207" y="672"/>
      <point x="214" y="678"/>
      <point x="214" y="689" type="curve" smooth="yes"/>
      <point x="214" y="708" type="line"/>
      <point x="24" y="708" type="line"/>
      <point x="24" y="689" type="line" smooth="yes"/>
      <point x="24" y="678"/>
      <point x="31" y="672"/>
      <point x="44" y="671" type="curve"/>
      <point x="79" y="669" type="line"/>
      <point x="290" y="0" type="line"/>
      <point x="335" y="0" type="line"/>
      <point x="545" y="614" type="line" smooth="yes"/>
      <point x="548" y="622"/>
      <point x="550" y="630"/>
      <point x="552" y="639" type="curve"/>
      <point x="554" y="630"/>
      <point x="556" y="622"/>
      <point x="559" y="614" type="curve" smooth="yes"/>
      <point x="768" y="0" type="line"/>
      <point x="814" y="0" type="line"/>
      <point x="1024" y="669" type="line"/>
      <point x="1059" y="671" type="line"/>
      <point x="1072" y="672"/>
      <point x="1078" y="678"/>
      <point x="1078" y="689" type="curve" smooth="yes"/>
      <point x="1078" y="708" type="line"/>
    </contour>
    <contour>
      <point x="552" y="708" type="move" name="top"/>
    </contour>
    <contour>
      <point x="552" y="0" type="move" name="bottom"/>
    </contour>
  </outline>
</glyph>
<glyph name="X" format="1">
  <advance width="732"/>
  <unicode hex="0058"/>
  <note>
    X
  </note>
  <outline>
    <contour>
      <point x="662" y="38" type="line" smooth="yes"/>
      <point x="659" y="38"/>
      <point x="654" y="39"/>
      <point x="649" y="39" type="curve" smooth="yes"/>
      <point x="644" y="39"/>
      <point x="638" y="40"/>
      <point x="631" y="40" type="curve"/>
      <point x="404" y="366" type="line"/>
      <point x="621" y="669" type="line"/>
      <point x="661" y="671" type="line"/>
      <point x="674" y="672"/>
      <point x="681" y="678"/>
      <point x="681" y="689" type="curve" smooth="yes"/>
      <point x="681" y="708" type="line"/>
      <point x="483" y="708" type="line"/>
      <point x="483" y="689" type="line" smooth="yes"/>
      <point x="483" y="678"/>
      <point x="490" y="672"/>
      <point x="503" y="671" type="curve"/>
      <point x="564" y="669" type="line"/>
      <point x="377" y="403" type="line" smooth="yes"/>
      <point x="375" y="400"/>
      <point x="372" y="393"/>
      <point x="370" y="387" type="curve"/>
      <point x="176" y="669" type="line"/>
      <point x="231" y="671" type="line"/>
      <point x="244" y="672"/>
      <point x="250" y="678"/>
      <point x="250" y="689" type="curve" smooth="yes"/>
      <point x="250" y="708" type="line"/>
      <point x="56" y="708" type="line"/>
      <point x="56" y="689" type="line" smooth="yes"/>
      <point x="56" y="678"/>
      <point x="63" y="672"/>
      <point x="76" y="671" type="curve"/>
      <point x="117" y="669" type="line"/>
      <point x="332" y="363" type="line"/>
      <point x="105" y="40" type="line"/>
      <point x="64" y="38" type="line"/>
      <point x="51" y="37"/>
      <point x="44" y="31"/>
      <point x="44" y="20" type="curve" smooth="yes"/>
      <point x="44" y="0" type="line"/>
      <point x="243" y="0" type="line"/>
      <point x="243" y="20" type="line" smooth="yes"/>
      <point x="243" y="31"/>
      <point x="236" y="37"/>
      <point x="223" y="38" type="curve"/>
      <point x="161" y="40" type="line"/>
      <point x="361" y="324" type="line"/>
      <point x="364" y="329"/>
      <point x="367" y="333"/>
      <point x="368" y="338" type="curve"/>
      <point x="572" y="40" type="line"/>
      <point x="561" y="40"/>
      <point x="551" y="39"/>
      <point x="542" y="39" type="curve" smooth="yes"/>
      <point x="533" y="39"/>
      <point x="526" y="38"/>
      <point x="523" y="38" type="curve" smooth="yes"/>
      <point x="516" y="38" type="line"/>
      <point x="503" y="37"/>
      <point x="496" y="31"/>
      <point x="496" y="20" type="curve" smooth="yes"/>
      <point x="496" y="0" type="line"/>
      <point x="604" y="0" type="line"/>
      <point x="608" y="0" type="line"/>
      <point x="644" y="0" type="line"/>
      <point x="659" y="0" type="line"/>
      <point x="688" y="0" type="line"/>
      <point x="688" y="20" type="line" smooth="yes"/>
      <point x="688" y="31"/>
      <point x="681" y="37"/>
      <point x="668" y="38" type="curve"/>
    </contour>
  </outline>
</glyph>
<glyph name="Y" format="1">
  <advance width="687"/>
  <unicode hex="0059"/>
  <note>
    Y
  </note>
  <outline>
    <contour>
      <point x="478" y="708" type="line"/>
      <point x="478" y="689" type="line" smooth="yes"/>
      <point x="478" y="678"/>
      <point x="485" y="672"/>
      <point x="498" y="671" type="curve"/>
      <point x="550" y="669" type="line"/>
      <point x="365" y="370" type="line" smooth="yes"/>
      <point x="356" y="356"/>
      <point x="354" y="349"/>
      <point x="344" y="326" type="curve"/>
      <point x="336" y="345"/>
      <point x="333" y="354"/>
      <point x="323" y="370" type="curve" smooth="yes"/>
      <point x="137" y="669" type="line"/>
      <point x="189" y="671" type="line"/>
      <point x="202" y="672"/>
      <point x="209" y="678"/>
      <point x="209" y="689" type="curve" smooth="yes"/>
      <point x="209" y="708" type="line"/>
      <point x="24" y="708" type="line"/>
      <point x="24" y="689" type="line" smooth="yes"/>
      <point x="24" y="678"/>
      <point x="31" y="672"/>
      <point x="44" y="671" type="curve"/>
      <point x="81" y="669" type="line"/>
      <point x="318" y="292" type="line"/>
      <point x="318" y="40" type="line"/>
      <point x="254" y="38" type="line"/>
      <point x="241" y="37"/>
      <point x="234" y="31"/>
      <point x="234" y="20" type="curve" smooth="yes"/>
      <point x="234" y="0" type="line"/>
      <point x="453" y="0" type="line"/>
      <point x="453" y="20" type="line" smooth="yes"/>
      <point x="453" y="31"/>
      <point x="447" y="37"/>
      <point x="434" y="38" type="curve"/>
      <point x="369" y="40" type="line"/>
      <point x="369" y="292" type="line"/>
      <point x="606" y="669" type="line"/>
      <point x="643" y="671" type="line"/>
      <point x="656" y="672"/>
      <point x="663" y="678"/>
      <point x="663" y="689" type="curve" smooth="yes"/>
      <point x="663" y="708" type="line"/>
    </contour>
    <contour>
      <point x="344" y="708" type="move" name="top"/>
    </contour>
    <contour>
      <point x="344" y="0" type="move" name="bottom"/>
    </contour>
  </outline>
</glyph>
<glyph name="Z" format="1">
  <advance width="633"/>
  <unicode hex="005A"/>
  <note>
    Z
  </note>
  <outline>
    <contour>
      <point x="571" y="0" type="line"/>
      <point x="571" y="42" type="line"/>
      <point x="119" y="42" type="line"/>
      <point x="568" y="670" type="line" smooth="yes"/>
      <point x="573" y="677"/>
      <point x="575" y="684"/>
      <point x="575" y="691" type="curve" smooth="yes"/>
      <point x="575" y="708" type="line"/>
      <point x="64" y="708" type="line"/>
      <point x="64" y="666" type="line"/>
      <point x="507" y="666" type="line"/>
      <point x="57" y="36" type="line" smooth="yes"/>
      <point x="53" y="30"/>
      <point x="52" y="25"/>
      <point x="52" y="19" type="curve" smooth="yes"/>
      <point x="52" y="0" type="line"/>
    </contour>
    <component base="SerifUpRight" xOffset="571"/>
    <component base="SerifUpRight" xOffset="64" yOffset="708" xScale="-1" yScale="-1"/>
    <contour>
      <point x="317" y="708" type="move" name="top"/>
    </contour>
    <contour>
      <point x="317" y="0" type="move" name="bottom"/>
    </contour>
  </outline>
</glyph>
<glyph name="bracketright" format="1">
  <advance width="268"/>
  <unicode hex="005D"/>
  <note>
    bracketright
  </note>
  <outline>
    <contour>
      <point x="25" y="-132" type="line"/>
      <point x="184" y="-132" type="line"/>
      <point x="184" y="758" type="line"/>
      <point x="25" y="758" type="line"/>
      <point x="25" y="740" type="line" smooth="yes"/>
      <point x="25" y="732"/>
      <point x="31" y="726"/>
      <point x="40" y="726" type="curve" smooth="yes"/>
      <point x="143" y="726" type="line"/>
      <point x="143" y="-100" type="line"/>
      <point x="40" y="-100" type="line" smooth="yes"/>
      <point x="31" y="-100"/>
      <point x="25" y="-106"/>
      <point x="25" y="-114" type="curve" smooth="yes"/>
    </contour>
  </outline>
</glyph>
<glyph name="asciicircum" format="1">
  <advance width="455"/>
  <unicode hex="005E"/>
  <note>
    asciicircum
  </note>
  <outline>
    <contour>
      <point x="212" y="708" type="line"/>
      <point x="42" y="400" type="line"/>
      <point x="78" y="400" type="line" smooth="yes"/>
      <point x="86" y="400"/>
      <point x="90" y="406"/>
      <point x="94" y="412" type="curve"/>
      <point x="214" y="630" type="line"/>
      <point x="220" y="640"/>
      <point x="222" y="646"/>
      <point x="228" y="661" type="curve"/>
      <point x="233" y="646"/>
      <point x="237" y="640"/>
      <point x="242" y="630" type="curve"/>
      <point x="362" y="412" type="line"/>
      <point x="365" y="408"/>
      <point x="368" y="400"/>
      <point x="379" y="400" type="curve" smooth="yes"/>
      <point x="413" y="400" type="line"/>
      <point x="242" y="708" type="line"/>
    </contour>
  </outline>
</glyph>
<glyph name="underscore" format="1">
  <advance width="570"/>
  <unicode hex="005F"/>
  <note>
    underscore
  </note>
  <outline>
    <contour>
      <point x="482" y="-102" type="line"/>
      <point x="88" y="-102" type="line"/>
      <point x="88" y="-136" type="line"/>
      <point x="482" y="-136" type="line"/>
    </contour>
  </outline>
</glyph>
<glyph name="grave" format="1">
  <advance width="271"/>
  <unicode hex="0060"/>
  <note>
    grave
  </note>
  <outline>
    <contour>
      <point x="58" y="716" type="line"/>
      <point x="167" y="589" type="line"/>
      <point x="171" y="585"/>
      <point x="174" y="580"/>
      <point x="186" y="580" type="curve" smooth="yes"/>
      <point x="212" y="580" type="line"/>
      <point x="134" y="700" type="line" smooth="yes"/>
      <point x="128" y="709"/>
      <point x="120" y="716"/>
      <point x="104" y="716" type="curve" smooth="yes"/>
    </contour>
    <contour>
      <point x="207" y="499" type="move" name="_top"/>
    </contour>
  </outline>
</glyph>
<glyph name="a" format="1">
  <advance width="513"/>
  <unicode hex="0061"/>
  <note>
    a
  </note>
  <outline>
    <contour>
      <point x="404" y="39" type="line"/>
      <point x="404" y="324" type="line" smooth="yes"/>
      <point x="404" y="431"/>
      <point x="353" y="506"/>
      <point x="244" y="506" type="curve" smooth="yes"/>
      <point x="173" y="506"/>
      <point x="117" y="479"/>
      <point x="65" y="427" type="curve"/>
      <point x="73" y="412" type="line" smooth="yes"/>
      <point x="79" y="400"/>
      <point x="92" y="399"/>
      <point x="107" y="414" type="curve" smooth="yes"/>
      <point x="135" y="442"/>
      <point x="190" y="467"/>
      <point x="239" y="467" type="curve" smooth="yes"/>
      <point x="319" y="467"/>
      <point x="357" y="416"/>
      <point x="357" y="324" type="curve" smooth="yes"/>
      <point x="357" y="272" type="line"/>
      <point x="224" y="271"/>
      <point x="40" y="240"/>
      <point x="40" y="121" type="curve" smooth="yes"/>
      <point x="40" y="40"/>
      <point x="95" y="-8"/>
      <point x="173" y="-8" type="curve" smooth="yes"/>
      <point x="254" y="-8"/>
      <point x="298" y="21"/>
      <point x="359" y="78" type="curve"/>
      <point x="366" y="14" type="line"/>
      <point x="368" y="5"/>
      <point x="375" y="0"/>
      <point x="385" y="0" type="curve" smooth="yes"/>
      <point x="386" y="0" type="line"/>
      <point x="470" y="0" type="line"/>
      <point x="470" y="20" type="line" smooth="yes"/>
      <point x="470" y="31"/>
      <point x="463" y="37"/>
      <point x="450" y="38" type="curve"/>
    </contour>
    <contour>
      <point x="357" y="111" type="line"/>
      <point x="303" y="57"/>
      <point x="263" y="27"/>
      <point x="185" y="27" type="curve" smooth="yes"/>
      <point x="124" y="27"/>
      <point x="86" y="61"/>
      <point x="86" y="122" type="curve" smooth="yes"/>
      <point x="86" y="218"/>
      <point x="246" y="239"/>
      <point x="357" y="240" type="curve"/>
    </contour>
    <contour>
      <point x="462" y="10" type="move" name="ogonek"/>
    </contour>
    <contour>
      <point x="257" y="0" type="move" name="bottom"/>
    </contour>
    <contour>
      <point x="246" y="498" type="move" name="top"/>
    </contour>
  </outline>
</glyph>
<glyph name="b" format="1">
  <advance width="547"/>
  <unicode hex="0062"/>
  <note>
    b
  </note>
  <outline>
    <contour>
      <point x="452" y="506"/>
      <point x="316" y="506" type="curve" smooth="yes"/>
      <point x="248" y="506"/>
      <point x="189" y="473"/>
      <point x="142" y="411" type="curve"/>
      <point x="141" y="728" type="line"/>
      <point x="94" y="728" type="line"/>
      <point x="22" y="728" type="line"/>
      <point x="22" y="708" type="line" smooth="yes"/>
      <point x="22" y="697"/>
      <point x="28" y="691"/>
      <point x="41" y="690" type="curve"/>
      <point x="94" y="688" type="line"/>
      <point x="94" y="47" type="line"/>
      <point x="94" y="22" type="line"/>
      <point x="182" y="3"/>
      <point x="248" y="-6"/>
      <point x="293" y="-6" type="curve" smooth="yes"/>
      <point x="430" y="-6"/>
      <point x="510" y="103"/>
      <point x="510" y="252" type="curve" smooth="yes"/>
      <point x="510" y="402"/>
    </contour>
    <contour>
      <point x="406" y="31"/>
      <point x="284" y="31" type="curve" smooth="yes"/>
      <point x="258" y="31"/>
      <point x="210" y="38"/>
      <point x="141" y="52" type="curve"/>
      <point x="141" y="371" type="line"/>
      <point x="182" y="429"/>
      <point x="236" y="468"/>
      <point x="302" y="468" type="curve" smooth="yes"/>
      <point x="416" y="468"/>
      <point x="461" y="383"/>
      <point x="461" y="252" type="curve" smooth="yes"/>
      <point x="461" y="126"/>
    </contour>
  </outline>
</glyph>
<glyph name="j" format="1">
  <advance width="252"/>
  <unicode hex="006A"/>
  <note>
    j
  </note>
  <outline>
    <contour>
      <point x="51" y="498" type="line"/>
      <point x="51" y="479" type="line" smooth="yes"/>
      <point x="51" y="468"/>
      <point x="58" y="462"/>
      <point x="71" y="461" type="curve"/>
      <point x="123" y="459" type="line"/>
      <point x="123" y="-63" type="line" smooth="yes"/>
      <point x="123" y="-118"/>
      <point x="99" y="-148"/>
      <point x="44" y="-148" type="curve" smooth="yes"/>
      <point x="38" y="-148"/>
      <point x="24" y="-146"/>
      <point x="22" y="-146" type="curve" smooth="yes"/>
      <point x="8" y="-144"/>
      <point x="5" y="-150"/>
      <point x="5" y="-157" type="curve"/>
      <point x="4" y="-174" type="line"/>
      <point x="17" y="-182"/>
      <point x="34" y="-184"/>
      <point x="52" y="-184" type="curve" smooth="yes"/>
      <point x="126" y="-184"/>
      <point x="171" y="-138"/>
      <point x="171" y="-63" type="curve" smooth="yes"/>
      <point x="171" y="498" type="line"/>
    </contour>
    <contour>
      <point x="171" y="624"/>
      <point x="191" y="644"/>
      <point x="191" y="669" type="curve" smooth="yes"/>
      <point x="191" y="693"/>
      <point x="171" y="713"/>
      <point x="147" y="713" type="curve" smooth="yes"/>
      <point x="123" y="713"/>
      <point x="103" y="693"/>
      <point x="103" y="669" type="curve" smooth="yes"/>
      <point x="103" y="644"/>
      <point x="123" y="624"/>
      <point x="147" y="624" type="curve" smooth="yes"/>
    </contour>
  </outline>
</glyph>
<glyph name="k" format="1">
  <advance width="564"/>
  <unicode hex="006B"/>
  <note>
    k
  </note>
  <outline>
    <contour>
      <point x="467" y="39" type="line"/>
      <point x="272" y="251" type="line"/>
      <point x="266" y="258"/>
      <point x="255" y="267"/>
      <point x="247" y="272" type="curve"/>
      <point x="253" y="278"/>
      <point x="262" y="284"/>
      <point x="267" y="289" type="curve" smooth="yes"/>
      <point x="445" y="458" type="line"/>
      <point x="481" y="460" type="line"/>
      <point x="494" y="461"/>
      <point x="500" y="467"/>
      <point x="500" y="478" type="curve" smooth="yes"/>
      <point x="500" y="498" type="line"/>
      <point x="346" y="498" type="line"/>
      <point x="346" y="478" type="line" smooth="yes"/>
      <point x="346" y="467"/>
      <point x="353" y="461"/>
      <point x="366" y="460" type="curve"/>
      <point x="391" y="459" type="line"/>
      <point x="219" y="295" type="line" smooth="yes"/>
      <point x="212" y="288"/>
      <point x="202" y="284"/>
      <point x="192" y="284" type="curve" smooth="yes"/>
      <point x="169" y="284" type="line"/>
      <point x="169" y="727" type="line"/>
      <point x="49" y="727" type="line"/>
      <point x="49" y="708" type="line" smooth="yes"/>
      <point x="49" y="697"/>
      <point x="56" y="691"/>
      <point x="69" y="690" type="curve"/>
      <point x="121" y="688" type="line"/>
      <point x="121" y="40" type="line"/>
      <point x="69" y="38" type="line"/>
      <point x="56" y="37"/>
      <point x="49" y="31"/>
      <point x="49" y="20" type="curve" smooth="yes"/>
      <point x="49" y="0" type="line"/>
      <point x="241" y="0" type="line"/>
      <point x="241" y="20" type="line" smooth="yes"/>
      <point x="241" y="31"/>
      <point x="234" y="37"/>
      <point x="221" y="38" type="curve"/>
      <point x="169" y="40" type="line"/>
      <point x="169" y="251" type="line"/>
      <point x="191" y="251" type="line" smooth="yes"/>
      <point x="210" y="251"/>
      <point x="215" y="249"/>
      <point x="229" y="235" type="curve" smooth="yes"/>
      <point x="438" y="12" type="line" smooth="yes"/>
      <point x="442" y="8"/>
      <point x="449" y="0"/>
      <point x="461" y="0" type="curve"/>
      <point x="525" y="0" type="line"/>
      <point x="525" y="20" type="line" smooth="yes"/>
      <point x="525" y="31"/>
      <point x="518" y="37"/>
      <point x="505" y="38" type="curve"/>
    </contour>
    <contour>
      <point x="282" y="498" type="move" name="top"/>
    </contour>
    <contour>
      <point x="282" y="0" type="move" name="bottom"/>
    </contour>
  </outline>
</glyph>
<glyph name="l" format="1">
  <advance width="279"/>
  <unicode hex="006C"/>
  <note>
    l
  </note>
  <outline>
    <contour>
      <point x="169" y="40" type="line"/>
      <point x="169" y="728" type="line"/>
      <point x="49" y="728" type="line"/>
      <point x="49" y="708" type="line" smooth="yes"/>
      <point x="49" y="697"/>
      <point x="56" y="691"/>
      <point x="69" y="690" type="curve"/>
      <point x="121" y="688" type="line"/>
      <point x="121" y="40" type="line"/>
      <point x="69" y="38" type="line"/>
      <point x="56" y="37"/>
      <point x="49" y="31"/>
      <point x="49" y="20" type="curve" smooth="yes"/>
      <point x="49" y="0" type="line"/>
      <point x="241" y="0" type="line"/>
      <point x="241" y="20" type="line" smooth="yes"/>
      <point x="241" y="31"/>
      <point x="234" y="37"/>
      <point x="221" y="38" type="curve"/>
    </contour>
    <contour>
      <point x="134" y="0" type="move" name="bottom"/>
    </contour>
    <contour>
      <point x="140" y="708" type="move" name="top"/>
    </contour>
    <contour>
      <point x="182" y="498" type="move" name="topright"/>
    </contour>
    <contour>
      <point x="140" y="249" type="move" name="center"/>
    </contour>
  </outline>
</glyph>
<glyph name="n" format="1">
  <advance width="629"/>
  <unicode hex="006E"/>
  <note>
    n
  </note>
  <outline>
    <contour>
      <point x="243" y="0" type="line"/>
      <point x="243" y="20" type="line" smooth="yes"/>
      <point x="243" y="31"/>
      <point x="237" y="37"/>
      <point x="224" y="38" type="curve"/>
      <point x="171" y="40" type="line"/>
      <point x="171" y="373" type="line"/>
      <point x="214" y="430"/>
      <point x="270" y="467"/>
      <point x="337" y="467" type="curve" smooth="yes"/>
      <point x="429" y="467"/>
      <point x="467" y="407"/>
      <point x="467" y="318" type="curve" smooth="yes"/>
      <point x="467" y="0" type="line"/>
      <point x="587" y="0" type="line"/>
      <point x="587" y="20" type="line" smooth="yes"/>
      <point x="587" y="31"/>
      <point x="580" y="37"/>
      <point x="567" y="38" type="curve"/>
      <point x="515" y="40" type="line"/>
      <point x="515" y="318" type="line" smooth="yes"/>
      <point x="515" y="431"/>
      <point x="460" y="505"/>
      <point x="349" y="505" type="curve" smooth="yes"/>
      <point x="274" y="505"/>
      <point x="214" y="467"/>
      <point x="169" y="410" type="curve"/>
      <point x="165" y="486" type="line"/>
      <point x="164" y="494"/>
      <point x="159" y="498"/>
      <point x="150" y="498" type="curve" smooth="yes"/>
      <point x="124" y="498" type="line"/>
      <point x="124" y="459" type="line"/>
      <point x="124" y="40" type="line"/>
      <point x="71" y="38" type="line"/>
      <point x="58" y="37"/>
      <point x="52" y="31"/>
      <point x="52" y="20" type="curve" smooth="yes"/>
      <point x="52" y="0" type="line"/>
    </contour>
    <component base="SerifSpur" xOffset="124" yOffset="498"/>
    <contour>
      <point x="337" y="498" type="move" name="top"/>
    </contour>
    <contour>
      <point x="315" y="0" type="move" name="bottom"/>
    </contour>
  </outline>
</glyph>
<glyph name="o" format="1">
  <advance width="530"/>
  <unicode hex="006F"/>
  <note>
    o
  </note>
  <outline>
    <contour>
      <point x="120" y="506"/>
      <point x="38" y="400"/>
      <point x="38" y="249" type="curve" smooth="yes"/>
      <point x="38" y="98"/>
      <point x="119" y="-6"/>
      <point x="266" y="-6" type="curve" smooth="yes"/>
      <point x="409" y="-6"/>
      <point x="492" y="95"/>
      <point x="492" y="249" type="curve" smooth="yes"/>
      <point x="492" y="401"/>
      <point x="410" y="506"/>
      <point x="266" y="506" type="curve" smooth="yes"/>
    </contour>
    <contour>
      <point x="142" y="31"/>
      <point x="88" y="121"/>
      <point x="88" y="249" type="curve" smooth="yes"/>
      <point x="88" y="380"/>
      <point x="144" y="468"/>
      <point x="266" y="468" type="curve" smooth="yes"/>
      <point x="388" y="468"/>
      <point x="443" y="376"/>
      <point x="443" y="249" type="curve" smooth="yes"/>
      <point x="443" y="120"/>
      <point x="387" y="31"/>
      <point x="266" y="31" type="curve" smooth="yes"/>
    </contour>
    <contour>
      <point x="265" y="0" type="move" name="bottom"/>
    </contour>
    <contour>
      <point x="477" y="10" type="move" name="ogonek"/>
    </contour>
    <contour>
      <point x="265" y="498" type="move" name="top"/>
    </contour>
    <contour>
      <point x="510" y="498" type="move" name="topright"/>
    </contour>
    <contour>
      <point x="265" y="249" type="move" name="center"/>
    </contour>
  </outline>
</glyph>
<glyph name="p" format="1">
  <advance width="548"/>
  <unicode hex="0070"/>
  <note>
    p
  </note>
  <outline>
    <contour>
      <point x="509" y="402"/>
      <point x="451" y="506"/>
      <point x="315" y="506" type="curve" smooth="yes"/>
      <point x="244" y="506"/>
      <point x="183" y="468"/>
      <point x="139" y="408" type="curve"/>
      <point x="134" y="486" type="line"/>
      <point x="134" y="496"/>
      <point x="130" y="498"/>
      <point x="119" y="498" type="curve" smooth="yes"/>
      <point x="21" y="498" type="line"/>
      <point x="21" y="479" type="line" smooth="yes"/>
      <point x="21" y="468"/>
      <point x="28" y="462"/>
      <point x="41" y="461" type="curve"/>
      <point x="93" y="459" type="line"/>
      <point x="93" y="-136" type="line"/>
      <point x="41" y="-138" type="line"/>
      <point x="28" y="-139"/>
      <point x="21" y="-145"/>
      <point x="21" y="-156" type="curve" smooth="yes"/>
      <point x="21" y="-176" type="line"/>
      <point x="213" y="-176" type="line"/>
      <point x="213" y="-156" type="line" smooth="yes"/>
      <point x="213" y="-145"/>
      <point x="206" y="-139"/>
      <point x="193" y="-138" type="curve"/>
      <point x="141" y="-136" type="line"/>
      <point x="141" y="67" type="line"/>
      <point x="179" y="16"/>
      <point x="228" y="-6"/>
      <point x="293" y="-6" type="curve" smooth="yes"/>
      <point x="429" y="-6"/>
      <point x="509" y="104"/>
      <point x="509" y="252" type="curve" smooth="yes"/>
    </contour>
    <contour>
      <point x="460" y="126"/>
      <point x="405" y="31"/>
      <point x="283" y="31" type="curve" smooth="yes"/>
      <point x="221" y="31"/>
      <point x="175" y="57"/>
      <point x="141" y="109" type="curve"/>
      <point x="141" y="370" type="line"/>
      <point x="182" y="431"/>
      <point x="233" y="467"/>
      <point x="302" y="467" type="curve" smooth="yes"/>
      <point x="415" y="467"/>
      <point x="460" y="383"/>
      <point x="460" y="252" type="curve" smooth="yes"/>
    </contour>
  </outline>
</glyph>
<glyph name="q" format="1">
  <advance width="538"/>
  <unicode hex="0071"/>
  <note>
    q
  </note>
  <outline>
    <contour>
      <point x="457" y="-137" type="line"/>
      <point x="457" y="452" type="line"/>
      <point x="457" y="477" type="line"/>
      <point x="369" y="496"/>
      <point x="303" y="505"/>
      <point x="258" y="505" type="curve" smooth="yes"/>
      <point x="119" y="505"/>
      <point x="40" y="391"/>
      <point x="40" y="247" type="curve" smooth="yes"/>
      <point x="40" y="100"/>
      <point x="98" y="-6"/>
      <point x="234" y="-6" type="curve" smooth="yes"/>
      <point x="306" y="-6"/>
      <point x="364" y="29"/>
      <point x="409" y="88" type="curve"/>
      <point x="409" y="-137" type="line"/>
      <point x="357" y="-139" type="line"/>
      <point x="344" y="-140"/>
      <point x="337" y="-146"/>
      <point x="337" y="-157" type="curve" smooth="yes"/>
      <point x="337" y="-176" type="line"/>
      <point x="529" y="-176" type="line"/>
      <point x="529" y="-157" type="line" smooth="yes"/>
      <point x="529" y="-146"/>
      <point x="522" y="-140"/>
      <point x="509" y="-139" type="curve"/>
    </contour>
    <contour>
      <point x="409" y="128" type="line"/>
      <point x="367" y="68"/>
      <point x="317" y="32"/>
      <point x="248" y="32" type="curve" smooth="yes"/>
      <point x="135" y="32"/>
      <point x="90" y="116"/>
      <point x="90" y="247" type="curve" smooth="yes"/>
      <point x="90" y="375"/>
      <point x="146" y="468"/>
      <point x="267" y="468" type="curve" smooth="yes"/>
      <point x="293" y="468"/>
      <point x="340" y="461"/>
      <point x="409" y="447" type="curve"/>
    </contour>
  </outline>
</glyph>
<glyph name="r" format="1">
  <advance width="436"/>
  <unicode hex="0072"/>
  <note>
    r
  </note>
  <outline>
    <contour>
      <point x="388" y="444"/>
      <point x="397" y="452"/>
      <point x="400" y="462" type="curve" smooth="yes"/>
      <point x="409" y="487" type="line"/>
      <point x="387" y="499"/>
      <point x="358" y="506"/>
      <point x="332" y="506" type="curve" smooth="yes"/>
      <point x="254" y="506"/>
      <point x="202" y="460"/>
      <point x="169" y="377" type="curve"/>
      <point x="165" y="483" type="line"/>
      <point x="165" y="489"/>
      <point x="163" y="493"/>
      <point x="161" y="495" type="curve" smooth="yes"/>
      <point x="159" y="497"/>
      <point x="155" y="498"/>
      <point x="149" y="498" type="curve"/>
      <point x="124" y="498" type="line"/>
      <point x="124" y="459" type="line"/>
      <point x="124" y="40" type="line"/>
      <point x="124" y="0" type="line"/>
      <point x="171" y="0" type="line"/>
      <point x="171" y="40" type="line"/>
      <point x="171" y="323" type="line"/>
      <point x="199" y="406"/>
      <point x="245" y="459"/>
      <point x="323" y="459" type="curve" smooth="yes"/>
      <point x="349" y="459"/>
      <point x="364" y="453"/>
      <point x="377" y="448" type="curve"/>
    </contour>
    <component base="SerifSpur" xOffset="124" yOffset="498"/>
    <component base="SerfiBottomSymmetrical" xOffset="124"/>
    <contour>
      <point x="218" y="498" type="move" name="top"/>
    </contour>
    <contour>
      <point x="149" y="0" type="move" name="bottom"/>
    </contour>
  </outline>
</glyph>
<glyph name="s" format="1">
  <advance width="427"/>
  <unicode hex="0073"/>
  <note>
    s
  </note>
  <outline>
    <contour>
      <point x="388" y="217"/>
      <point x="328" y="251"/>
      <point x="249" y="274" type="curve" smooth="yes"/>
      <point x="171" y="297"/>
      <point x="111" y="316"/>
      <point x="111" y="374" type="curve" smooth="yes"/>
      <point x="111" y="433"/>
      <point x="169" y="469"/>
      <point x="231" y="469" type="curve" smooth="yes"/>
      <point x="257" y="469"/>
      <point x="283" y="465"/>
      <point x="310" y="456" type="curve"/>
      <point x="316" y="384" type="line"/>
      <point x="317" y="368"/>
      <point x="324" y="360"/>
      <point x="338" y="360" type="curve" smooth="yes"/>
      <point x="362" y="360" type="line"/>
      <point x="362" y="479" type="line"/>
      <point x="310" y="497"/>
      <point x="266" y="505"/>
      <point x="230" y="505" type="curve" smooth="yes"/>
      <point x="142" y="505"/>
      <point x="66" y="453"/>
      <point x="66" y="371" type="curve" smooth="yes"/>
      <point x="66" y="297"/>
      <point x="122" y="266"/>
      <point x="204" y="243" type="curve" smooth="yes"/>
      <point x="282" y="220"/>
      <point x="343" y="199"/>
      <point x="343" y="138" type="curve" smooth="yes"/>
      <point x="343" y="69"/>
      <point x="287" y="27"/>
      <point x="215" y="27" type="curve" smooth="yes"/>
      <point x="177" y="27"/>
      <point x="145" y="32"/>
      <point x="118" y="43" type="curve"/>
      <point x="112" y="117" type="line"/>
      <point x="111" y="133"/>
      <point x="104" y="141"/>
      <point x="90" y="141" type="curve" smooth="yes"/>
      <point x="66" y="141" type="line"/>
      <point x="66" y="20" type="line"/>
      <point x="114" y="2"/>
      <point x="163" y="-8"/>
      <point x="213" y="-8" type="curve" smooth="yes"/>
      <point x="312" y="-8"/>
      <point x="388" y="50"/>
      <point x="388" y="146" type="curve" smooth="yes"/>
    </contour>
    <contour>
      <point x="214" y="498" type="move" name="top"/>
    </contour>
    <contour>
      <point x="176" y="0" type="move" name="bottom"/>
    </contour>
  </outline>
</glyph>
<glyph name="t" format="1">
  <advance width="355"/>
  <unicode hex="0074"/>
  <note>
    t
  </note>
  <outline>
    <contour>
      <point x="247" y="-8"/>
      <point x="291" y="10"/>
      <point x="317" y="38" type="curve"/>
      <point x="306" y="56" type="line"/>
      <point x="303" y="61"/>
      <point x="296" y="66"/>
      <point x="286" y="59" type="curve" smooth="yes"/>
      <point x="271" y="48"/>
      <point x="245" y="31"/>
      <point x="218" y="31" type="curve" smooth="yes"/>
      <point x="176" y="31"/>
      <point x="149" y="59"/>
      <point x="149" y="109" type="curve" smooth="yes"/>
      <point x="149" y="446" type="line"/>
      <point x="306" y="446" type="line"/>
      <point x="306" y="482" type="line"/>
      <point x="149" y="482" type="line"/>
      <point x="149" y="672" type="line"/>
      <point x="126" y="672" type="line" smooth="yes"/>
      <point x="119" y="672"/>
      <point x="114" y="664"/>
      <point x="114" y="660" type="curve"/>
      <point x="102" y="482" type="line"/>
      <point x="17" y="476" type="line"/>
      <point x="17" y="458" type="line" smooth="yes"/>
      <point x="17" y="450"/>
      <point x="23" y="446"/>
      <point x="30" y="446" type="curve" smooth="yes"/>
      <point x="101" y="446" type="line"/>
      <point x="101" y="106" type="line" smooth="yes"/>
      <point x="101" y="33"/>
      <point x="136" y="-8"/>
      <point x="208" y="-8" type="curve" smooth="yes"/>
    </contour>
    <contour>
      <point x="155" y="0" type="move" name="bottom"/>
    </contour>
    <contour>
      <point x="178" y="498" type="move" name="top"/>
    </contour>
    <contour>
      <point x="169" y="498" type="move" name="topright"/>
    </contour>
    <contour>
      <point x="178" y="249" type="move" name="center"/>
    </contour>
  </outline>
</glyph>
<glyph name="u" format="1">
  <advance width="598"/>
  <unicode hex="0075"/>
  <note>
    u
  </note>
  <outline>
    <contour>
      <point x="484" y="40" type="line"/>
      <point x="484" y="498" type="line"/>
      <point x="436" y="497" type="line"/>
      <point x="364" y="497" type="line"/>
      <point x="364" y="478" type="line" smooth="yes"/>
      <point x="364" y="467"/>
      <point x="371" y="461"/>
      <point x="384" y="460" type="curve"/>
      <point x="436" y="458" type="line"/>
      <point x="436" y="124" type="line"/>
      <point x="394" y="68"/>
      <point x="335" y="30"/>
      <point x="270" y="30" type="curve" smooth="yes"/>
      <point x="181" y="30"/>
      <point x="140" y="88"/>
      <point x="140" y="180" type="curve" smooth="yes"/>
      <point x="140" y="498" type="line"/>
      <point x="92" y="497" type="line"/>
      <point x="20" y="497" type="line"/>
      <point x="20" y="478" type="line" smooth="yes"/>
      <point x="20" y="467"/>
      <point x="27" y="461"/>
      <point x="40" y="460" type="curve"/>
      <point x="92" y="458" type="line"/>
      <point x="92" y="180" type="line" smooth="yes"/>
      <point x="92" y="70"/>
      <point x="146" y="-8"/>
      <point x="258" y="-8" type="curve" smooth="yes"/>
      <point x="330" y="-8"/>
      <point x="392" y="28"/>
      <point x="439" y="87" type="curve"/>
      <point x="443" y="13" type="line"/>
      <point x="443" y="4"/>
      <point x="449" y="0"/>
      <point x="458" y="0" type="curve" smooth="yes"/>
      <point x="556" y="0" type="line"/>
      <point x="556" y="20" type="line" smooth="yes"/>
      <point x="556" y="31"/>
      <point x="549" y="37"/>
      <point x="536" y="38" type="curve"/>
    </contour>
    <contour>
      <point x="559" y="10" type="move" name="ogonek"/>
    </contour>
    <contour>
      <point x="270" y="498" type="move" name="top"/>
    </contour>
    <contour>
      <point x="578" y="498" type="move" name="topright"/>
    </contour>
    <contour>
      <point x="299" y="0" type="move" name="bottom"/>
    </contour>
  </outline>
</glyph>
<glyph name="v" format="1">
  <advance width="579"/>
  <unicode hex="0076"/>
  <note>
    v
  </note>
  <outline>
    <contour>
      <point x="379" y="498" type="line"/>
      <point x="379" y="479" type="line" smooth="yes"/>
      <point x="379" y="468"/>
      <point x="386" y="462"/>
      <point x="399" y="461" type="curve"/>
      <point x="451" y="459" type="line"/>
      <point x="298" y="93" type="line" smooth="yes"/>
      <point x="294" y="84"/>
      <point x="288" y="61"/>
      <point x="285" y="50" type="curve"/>
      <point x="283" y="61"/>
      <point x="277" y="84"/>
      <point x="273" y="93" type="curve"/>
      <point x="120" y="459" type="line"/>
      <point x="172" y="461" type="line"/>
      <point x="185" y="462"/>
      <point x="192" y="468"/>
      <point x="192" y="479" type="curve" smooth="yes"/>
      <point x="192" y="498" type="line"/>
      <point x="18" y="498" type="line"/>
      <point x="18" y="479" type="line" smooth="yes"/>
      <point x="18" y="468"/>
      <point x="24" y="462"/>
      <point x="37" y="461" type="curve"/>
      <point x="70" y="460" type="line"/>
      <point x="264" y="0" type="line"/>
      <point x="306" y="0" type="line"/>
      <point x="499" y="460" type="line"/>
      <point x="534" y="461" type="line"/>
      <point x="547" y="462"/>
      <point x="554" y="468"/>
      <point x="554" y="479" type="curve" smooth="yes"/>
      <point x="554" y="498" type="line"/>
    </contour>
  </outline>
</glyph>
<glyph name="w" format="1">
  <advance width="839"/>
  <unicode hex="0077"/>
  <note>
    w
  </note>
  <outline>
    <contour>
      <point x="640" y="497" type="line"/>
      <point x="640" y="478" type="line" smooth="yes"/>
      <point x="640" y="467"/>
      <point x="647" y="461"/>
      <point x="660" y="460" type="curve"/>
      <point x="711" y="458" type="line"/>
      <point x="594" y="93" type="line"/>
      <point x="591" y="78"/>
      <point x="586" y="61"/>
      <point x="584" y="50" type="curve"/>
      <point x="581" y="61"/>
      <point x="577" y="78"/>
      <point x="572" y="93" type="curve" smooth="yes"/>
      <point x="440" y="489" type="line"/>
      <point x="438" y="496"/>
      <point x="433" y="500"/>
      <point x="426" y="500" type="curve" smooth="yes"/>
      <point x="406" y="500" type="line" smooth="yes"/>
      <point x="399" y="500"/>
      <point x="394" y="496"/>
      <point x="392" y="489" type="curve"/>
      <point x="259" y="93" type="line" smooth="yes"/>
      <point x="256" y="83"/>
      <point x="249" y="61"/>
      <point x="246" y="50" type="curve"/>
      <point x="244" y="61"/>
      <point x="239" y="83"/>
      <point x="237" y="93" type="curve"/>
      <point x="120" y="458" type="line"/>
      <point x="172" y="460" type="line"/>
      <point x="185" y="461"/>
      <point x="192" y="467"/>
      <point x="192" y="478" type="curve" smooth="yes"/>
      <point x="192" y="497" type="line"/>
      <point x="18" y="497" type="line"/>
      <point x="18" y="478" type="line" smooth="yes"/>
      <point x="18" y="467"/>
      <point x="24" y="461"/>
      <point x="37" y="460" type="curve"/>
      <point x="70" y="459" type="line"/>
      <point x="224" y="0" type="line"/>
      <point x="257" y="0" type="line" smooth="yes"/>
      <point x="263" y="0"/>
      <point x="267" y="4"/>
      <point x="269" y="11" type="curve"/>
      <point x="407" y="415" type="line"/>
      <point x="409" y="424"/>
      <point x="412" y="433"/>
      <point x="415" y="444" type="curve"/>
      <point x="417" y="433"/>
      <point x="420" y="424"/>
      <point x="423" y="415" type="curve"/>
      <point x="559" y="11" type="line"/>
      <point x="561" y="4"/>
      <point x="566" y="0"/>
      <point x="571" y="0" type="curve" smooth="yes"/>
      <point x="606" y="0" type="line"/>
      <point x="759" y="459" type="line"/>
      <point x="794" y="460" type="line"/>
      <point x="807" y="461"/>
      <point x="814" y="467"/>
      <point x="814" y="478" type="curve" smooth="yes"/>
      <point x="814" y="497" type="line"/>
    </contour>
    <contour>
      <point x="420" y="498" type="move" name="top"/>
    </contour>
    <contour>
      <point x="420" y="0" type="move" name="bottom"/>
    </contour>
  </outline>
</glyph>
<glyph name="y" format="1">
  <advance width="578"/>
  <unicode hex="0079"/>
  <note>
    y
  </note>
  <outline>
    <contour>
      <point x="378" y="498" type="line"/>
      <point x="378" y="479" type="line" smooth="yes"/>
      <point x="378" y="468"/>
      <point x="385" y="462"/>
      <point x="398" y="461" type="curve"/>
      <point x="449" y="459" type="line"/>
      <point x="296" y="98" type="line"/>
      <point x="292" y="89"/>
      <point x="286" y="72"/>
      <point x="285" y="68" type="curve"/>
      <point x="284" y="72"/>
      <point x="279" y="89"/>
      <point x="275" y="98" type="curve" smooth="yes"/>
      <point x="120" y="459" type="line"/>
      <point x="171" y="461" type="line"/>
      <point x="184" y="462"/>
      <point x="191" y="468"/>
      <point x="191" y="479" type="curve" smooth="yes"/>
      <point x="191" y="498" type="line"/>
      <point x="90" y="498" type="line"/>
      <point x="90" y="498" type="line"/>
      <point x="17" y="498" type="line"/>
      <point x="17" y="479" type="line" smooth="yes"/>
      <point x="17" y="468"/>
      <point x="24" y="462"/>
      <point x="37" y="461" type="curve"/>
      <point x="67" y="460" type="line"/>
      <point x="261" y="18" type="line"/>
      <point x="173" y="-176" type="line"/>
      <point x="207" y="-176" type="line" smooth="yes"/>
      <point x="217" y="-176"/>
      <point x="225" y="-169"/>
      <point x="229" y="-160" type="curve" smooth="yes"/>
      <point x="498" y="460" type="line"/>
      <point x="532" y="461" type="line"/>
      <point x="545" y="462"/>
      <point x="552" y="468"/>
      <point x="552" y="479" type="curve" smooth="yes"/>
      <point x="552" y="498" type="line"/>
    </contour>
    <contour>
      <point x="289" y="498" type="move" name="top"/>
    </contour>
    <contour>
      <point x="289" y="0" type="move" name="bottom"/>
    </contour>
  </outline>
</glyph>
<glyph name="braceleft" format="1">
  <advance width="279"/>
  <unicode hex="007B"/>
  <note>
    braceleft
  </note>
  <outline>
    <contour>
      <point x="115" y="187"/>
      <point x="109" y="156"/>
      <point x="100" y="117" type="curve" smooth="yes"/>
      <point x="93" y="86"/>
      <point x="86" y="44"/>
      <point x="86" y="10" type="curve" smooth="yes"/>
      <point x="86" y="-75"/>
      <point x="142" y="-132"/>
      <point x="226" y="-132" type="curve" smooth="yes"/>
      <point x="254" y="-132" type="line"/>
      <point x="254" y="-115" type="line" smooth="yes"/>
      <point x="254" y="-106"/>
      <point x="249" y="-100"/>
      <point x="239" y="-100" type="curve" smooth="yes"/>
      <point x="224" y="-100" type="line" smooth="yes"/>
      <point x="168" y="-100"/>
      <point x="128" y="-57"/>
      <point x="128" y="8" type="curve" smooth="yes"/>
      <point x="128" y="40"/>
      <point x="134" y="79"/>
      <point x="142" y="116" type="curve" smooth="yes"/>
      <point x="149" y="148"/>
      <point x="156" y="189"/>
      <point x="156" y="222" type="curve" smooth="yes"/>
      <point x="156" y="267"/>
      <point x="125" y="305"/>
      <point x="82" y="313" type="curve"/>
      <point x="121" y="321"/>
      <point x="156" y="358"/>
      <point x="156" y="404" type="curve" smooth="yes"/>
      <point x="156" y="435"/>
      <point x="150" y="475"/>
      <point x="142" y="510" type="curve" smooth="yes"/>
      <point x="135" y="543"/>
      <point x="128" y="583"/>
      <point x="128" y="618" type="curve" smooth="yes"/>
      <point x="128" y="681"/>
      <point x="166" y="726"/>
      <point x="224" y="726" type="curve" smooth="yes"/>
      <point x="239" y="726" type="line" smooth="yes"/>
      <point x="248" y="726"/>
      <point x="253" y="732"/>
      <point x="253" y="741" type="curve" smooth="yes"/>
      <point x="253" y="758" type="line"/>
      <point x="226" y="758" type="line" smooth="yes"/>
      <point x="139" y="758"/>
      <point x="85" y="699"/>
      <point x="85" y="616" type="curve" smooth="yes"/>
      <point x="85" y="592"/>
      <point x="93" y="539"/>
      <point x="100" y="509" type="curve" smooth="yes"/>
      <point x="108" y="475"/>
      <point x="116" y="435"/>
      <point x="116" y="404" type="curve" smooth="yes"/>
      <point x="116" y="361"/>
      <point x="81" y="328"/>
      <point x="38" y="328" type="curve"/>
      <point x="38" y="298" type="line"/>
      <point x="81" y="298"/>
      <point x="115" y="272"/>
      <point x="115" y="222" type="curve" smooth="yes"/>
    </contour>
  </outline>
</glyph>
<glyph name="bar" format="1">
  <advance width="208"/>
  <unicode hex="007C"/>
  <note>
    bar
  </note>
  <outline>
    <contour>
      <point x="85" y="758" type="line"/>
      <point x="85" y="-176" type="line"/>
      <point x="122" y="-176" type="line"/>
      <point x="122" y="758" type="line"/>
    </contour>
  </outline>
</glyph>
<glyph name="braceright" format="1">
  <advance width="278"/>
  <unicode hex="007D"/>
  <note>
    braceright
  </note>
  <outline>
    <contour>
      <point x="164" y="270"/>
      <point x="196" y="298"/>
      <point x="241" y="298" type="curve"/>
      <point x="241" y="328" type="line"/>
      <point x="196" y="328"/>
      <point x="164" y="359"/>
      <point x="164" y="404" type="curve" smooth="yes"/>
      <point x="164" y="440"/>
      <point x="170" y="471"/>
      <point x="179" y="510" type="curve" smooth="yes"/>
      <point x="186" y="538"/>
      <point x="194" y="589"/>
      <point x="194" y="616" type="curve" smooth="yes"/>
      <point x="194" y="698"/>
      <point x="140" y="759"/>
      <point x="53" y="759" type="curve" smooth="yes"/>
      <point x="26" y="759" type="line"/>
      <point x="26" y="738" type="line" smooth="yes"/>
      <point x="26" y="730"/>
      <point x="32" y="726"/>
      <point x="38" y="726" type="curve" smooth="yes"/>
      <point x="55" y="726" type="line" smooth="yes"/>
      <point x="115" y="726"/>
      <point x="152" y="678"/>
      <point x="152" y="618" type="curve" smooth="yes"/>
      <point x="152" y="592"/>
      <point x="145" y="544"/>
      <point x="137" y="510" type="curve" smooth="yes"/>
      <point x="130" y="478"/>
      <point x="123" y="437"/>
      <point x="123" y="404" type="curve" smooth="yes"/>
      <point x="123" y="360"/>
      <point x="154" y="321"/>
      <point x="196" y="313" type="curve"/>
      <point x="156" y="303"/>
      <point x="122" y="270"/>
      <point x="122" y="222" type="curve" smooth="yes"/>
      <point x="122" y="197"/>
      <point x="129" y="151"/>
      <point x="137" y="117" type="curve" smooth="yes"/>
      <point x="144" y="87"/>
      <point x="152" y="36"/>
      <point x="152" y="8" type="curve" smooth="yes"/>
      <point x="152" y="-48"/>
      <point x="116" y="-100"/>
      <point x="54" y="-100" type="curve" smooth="yes"/>
      <point x="38" y="-100" type="line" smooth="yes"/>
      <point x="34" y="-100"/>
      <point x="26" y="-101"/>
      <point x="26" y="-111" type="curve" smooth="yes"/>
      <point x="26" y="-132" type="line"/>
      <point x="53" y="-132" type="line" smooth="yes"/>
      <point x="138" y="-132"/>
      <point x="194" y="-71"/>
      <point x="194" y="11" type="curve" smooth="yes"/>
      <point x="194" y="41"/>
      <point x="187" y="79"/>
      <point x="178" y="117" type="curve" smooth="yes"/>
      <point x="171" y="148"/>
      <point x="164" y="189"/>
      <point x="164" y="222" type="curve" smooth="yes"/>
    </contour>
  </outline>
</glyph>
<glyph name="exclamdown" format="1">
  <advance width="221"/>
  <unicode hex="00A1"/>
  <note>
    exclamdown
  </note>
  <outline>
    <contour>
      <point x="89" y="-176" type="line"/>
      <point x="136" y="-176" type="line"/>
      <point x="136" y="99" type="line"/>
      <point x="128" y="277" type="line"/>
      <point x="96" y="277" type="line"/>
      <point x="89" y="99" type="line"/>
    </contour>
    <contour>
      <point x="137" y="413"/>
      <point x="157" y="434"/>
      <point x="157" y="460" type="curve" smooth="yes"/>
      <point x="157" y="485"/>
      <point x="137" y="506"/>
      <point x="111" y="506" type="curve" smooth="yes"/>
      <point x="85" y="506"/>
      <point x="65" y="485"/>
      <point x="65" y="460" type="curve" smooth="yes"/>
      <point x="65" y="434"/>
      <point x="85" y="413"/>
      <point x="111" y="413" type="curve" smooth="yes"/>
    </contour>
  </outline>
</glyph>
<glyph name="sterling" format="1">
  <advance width="589"/>
  <unicode hex="00A3"/>
  <note>
    sterling
  </note>
  <outline>
    <contour>
      <point x="37" y="316" type="line"/>
      <point x="138" y="316" type="line"/>
      <point x="138" y="153" type="line" smooth="yes"/>
      <point x="138" y="98"/>
      <point x="102" y="51"/>
      <point x="49" y="32" type="curve"/>
      <point x="49" y="0" type="line"/>
      <point x="534" y="0" type="line" smooth="yes"/>
      <point x="547" y="0"/>
      <point x="556" y="11"/>
      <point x="556" y="22" type="curve" smooth="yes"/>
      <point x="556" y="42" type="line"/>
      <point x="162" y="42" type="line"/>
      <point x="118" y="38" type="line"/>
      <point x="165" y="69"/>
      <point x="186" y="108"/>
      <point x="186" y="164" type="curve" smooth="yes"/>
      <point x="186" y="316" type="line"/>
      <point x="410" y="316" type="line" smooth="yes"/>
      <point x="419" y="316"/>
      <point x="426" y="323"/>
      <point x="426" y="330" type="curve" smooth="yes"/>
      <point x="426" y="350" type="line"/>
      <point x="186" y="350" type="line"/>
      <point x="186" y="496" type="line" smooth="yes"/>
      <point x="186" y="603"/>
      <point x="241" y="674"/>
      <point x="344" y="674" type="curve" smooth="yes"/>
      <point x="415" y="674"/>
      <point x="440" y="650"/>
      <point x="480" y="592" type="curve" smooth="yes"/>
      <point x="486" y="583"/>
      <point x="500" y="582"/>
      <point x="506" y="586" type="curve"/>
      <point x="525" y="597" type="line"/>
      <point x="492" y="671"/>
      <point x="432" y="715"/>
      <point x="344" y="715" type="curve" smooth="yes"/>
      <point x="217" y="715"/>
      <point x="138" y="633"/>
      <point x="138" y="496" type="curve" smooth="yes"/>
      <point x="138" y="349" type="line"/>
      <point x="55" y="349" type="line" smooth="yes"/>
      <point x="45" y="349"/>
      <point x="37" y="342"/>
      <point x="37" y="332" type="curve" smooth="yes"/>
    </contour>
  </outline>
</glyph>
<glyph name="yen" format="1">
  <advance width="559"/>
  <unicode hex="00A5"/>
  <note>
    yen
  </note>
  <outline>
    <contour>
      <point x="74" y="308" type="line"/>
      <point x="74" y="279" type="line"/>
      <point x="257" y="279" type="line"/>
      <point x="257" y="220" type="line"/>
      <point x="74" y="220" type="line"/>
      <point x="74" y="191" type="line"/>
      <point x="257" y="191" type="line"/>
      <point x="257" y="0" type="line"/>
      <point x="305" y="0" type="line"/>
      <point x="305" y="191" type="line"/>
      <point x="488" y="191" type="line"/>
      <point x="488" y="220" type="line"/>
      <point x="305" y="220" type="line"/>
      <point x="305" y="279" type="line"/>
      <point x="488" y="279" type="line"/>
      <point x="488" y="308" type="line"/>
      <point x="314" y="308" type="line"/>
      <point x="526" y="708" type="line"/>
      <point x="486" y="708" type="line" smooth="yes"/>
      <point x="477" y="708"/>
      <point x="471" y="703"/>
      <point x="467" y="695" type="curve" smooth="yes"/>
      <point x="294" y="362" type="line"/>
      <point x="288" y="349"/>
      <point x="284" y="337"/>
      <point x="281" y="326" type="curve"/>
      <point x="277" y="337"/>
      <point x="275" y="349"/>
      <point x="268" y="362" type="curve"/>
      <point x="96" y="695" type="line" smooth="yes"/>
      <point x="92" y="703"/>
      <point x="85" y="708"/>
      <point x="76" y="708" type="curve" smooth="yes"/>
      <point x="36" y="708" type="line"/>
      <point x="248" y="308" type="line"/>
    </contour>
  </outline>
</glyph>
<glyph name="brokenbar" format="1">
  <advance width="202"/>
  <unicode hex="00A6"/>
  <note>
    brokenbar
  </note>
  <outline>
    <contour>
      <point x="83" y="758" type="line"/>
      <point x="83" y="370" type="line"/>
      <point x="120" y="370" type="line"/>
      <point x="120" y="758" type="line"/>
    </contour>
    <contour>
      <point x="83" y="212" type="line"/>
      <point x="83" y="-176" type="line"/>
      <point x="120" y="-176" type="line"/>
      <point x="120" y="212" type="line"/>
    </contour>
  </outline>
</glyph>
<glyph name="dieresis" format="1">
  <advance width="387"/>
  <unicode hex="00A8"/>
  <note>
    dieresis
  </note>
  <outline>
    <contour>
      <point x="303" y="602"/>
      <point x="321" y="620"/>
      <point x="321" y="643" type="curve" smooth="yes"/>
      <point x="321" y="666"/>
      <point x="303" y="684"/>
      <point x="280" y="684" type="curve" smooth="yes"/>
      <point x="257" y="684"/>
      <point x="239" y="666"/>
      <point x="239" y="643" type="curve" smooth="yes"/>
      <point x="239" y="620"/>
      <point x="257" y="602"/>
      <point x="280" y="602" type="curve" smooth="yes"/>
    </contour>
    <contour>
      <point x="132" y="602"/>
      <point x="150" y="620"/>
      <point x="150" y="643" type="curve" smooth="yes"/>
      <point x="150" y="666"/>
      <point x="132" y="684"/>
      <point x="109" y="684" type="curve" smooth="yes"/>
      <point x="86" y="684"/>
      <point x="68" y="666"/>
      <point x="68" y="643" type="curve" smooth="yes"/>
      <point x="68" y="620"/>
      <point x="86" y="602"/>
      <point x="109" y="602" type="curve" smooth="yes"/>
    </contour>
  </outline>
</glyph>
<glyph name="ordfeminine" format="1">
  <advance width="356"/>
  <unicode hex="00AA"/>
  <note>
    ordfeminine
  </note>
  <outline>
    <contour>
      <point x="286" y="420" type="line"/>
      <point x="286" y="608" type="line" smooth="yes"/>
      <point x="286" y="670"/>
      <point x="254" y="715"/>
      <point x="184" y="715" type="curve" smooth="yes"/>
      <point x="138" y="715"/>
      <point x="107" y="701"/>
      <point x="74" y="668" type="curve"/>
      <point x="80" y="657" type="line"/>
      <point x="85" y="648"/>
      <point x="96" y="651"/>
      <point x="103" y="656" type="curve" smooth="yes"/>
      <point x="119" y="668"/>
      <point x="153" y="685"/>
      <point x="180" y="685" type="curve" smooth="yes"/>
      <point x="229" y="685"/>
      <point x="251" y="658"/>
      <point x="251" y="607" type="curve" smooth="yes"/>
      <point x="251" y="582" type="line"/>
      <point x="172" y="581"/>
      <point x="57" y="564"/>
      <point x="57" y="490" type="curve" smooth="yes"/>
      <point x="57" y="446"/>
      <point x="88" y="415"/>
      <point x="140" y="415" type="curve" smooth="yes"/>
      <point x="185" y="415"/>
      <point x="220" y="431"/>
      <point x="252" y="463" type="curve"/>
      <point x="257" y="431" type="line"/>
      <point x="258" y="423"/>
      <point x="261" y="419"/>
      <point x="270" y="419" type="curve"/>
    </contour>
    <contour>
      <point x="119" y="441"/>
      <point x="91" y="456"/>
      <point x="91" y="492" type="curve" smooth="yes"/>
      <point x="91" y="544"/>
      <point x="176" y="554"/>
      <point x="251" y="557" type="curve"/>
      <point x="251" y="488" type="line"/>
      <point x="225" y="462"/>
      <point x="189" y="441"/>
      <point x="150" y="441" type="curve" smooth="yes"/>
    </contour>
  </outline>
</glyph>
<glyph name="logicalnot" format="1">
  <advance width="550"/>
  <unicode hex="00AC"/>
  <note>
    logicalnot
  </note>
  <outline>
    <contour>
      <point x="62" y="354" type="line"/>
      <point x="62" y="317" type="line"/>
      <point x="436" y="317" type="line"/>
      <point x="436" y="170" type="line"/>
      <point x="476" y="170" type="line"/>
      <point x="476" y="354" type="line"/>
    </contour>
  </outline>
</glyph>
<glyph name="uni00AD" format="1">
  <advance width="370"/>
  <unicode hex="00AD"/>
  <note>
    uni00AD
  </note>
  <outline>
    <contour>
      <point x="70" y="317" type="line"/>
      <point x="70" y="276" type="line"/>
      <point x="302" y="276" type="line"/>
      <point x="302" y="317" type="line"/>
    </contour>
  </outline>
</glyph>
<glyph name="macron" format="1">
  <advance width="405"/>
  <unicode hex="00AF"/>
  <note>
    macron
  </note>
  <outline>
    <contour>
      <point x="66" y="658" type="line"/>
      <point x="66" y="626" type="line"/>
      <point x="339" y="626" type="line"/>
      <point x="339" y="658" type="line"/>
    </contour>
  </outline>
</glyph>
<glyph name="degree" format="1">
  <advance width="411"/>
  <unicode hex="00B0"/>
  <note>
    degree
  </note>
  <outline>
    <contour>
      <point x="54" y="482"/>
      <point x="122" y="418"/>
      <point x="204" y="418" type="curve" smooth="yes"/>
      <point x="284" y="418"/>
      <point x="354" y="480"/>
      <point x="354" y="567" type="curve" smooth="yes"/>
      <point x="354" y="653"/>
      <point x="286" y="716"/>
      <point x="204" y="716" type="curve" smooth="yes"/>
      <point x="123" y="716"/>
      <point x="54" y="655"/>
      <point x="54" y="567" type="curve" smooth="yes"/>
    </contour>
    <contour>
      <point x="89" y="629"/>
      <point x="135" y="682"/>
      <point x="204" y="682" type="curve" smooth="yes"/>
      <point x="268" y="682"/>
      <point x="319" y="631"/>
      <point x="319" y="567" type="curve" smooth="yes"/>
      <point x="319" y="508"/>
      <point x="270" y="452"/>
      <point x="204" y="452" type="curve" smooth="yes"/>
      <point x="145" y="452"/>
      <point x="89" y="501"/>
      <point x="89" y="567" type="curve" smooth="yes"/>
    </contour>
  </outline>
</glyph>
<glyph name="plusminus" format="1">
  <advance width="570"/>
  <unicode hex="00B1"/>
  <note>
    plusminus
  </note>
  <outline>
    <contour>
      <point x="304" y="576" type="line"/>
      <point x="266" y="576" type="line"/>
      <point x="266" y="374" type="line"/>
      <point x="50" y="374" type="line"/>
      <point x="50" y="337" type="line"/>
      <point x="266" y="337" type="line"/>
      <point x="266" y="136" type="line"/>
      <point x="304" y="136" type="line"/>
      <point x="304" y="337" type="line"/>
      <point x="520" y="337" type="line"/>
      <point x="520" y="374" type="line"/>
      <point x="304" y="374" type="line"/>
    </contour>
    <contour>
      <point x="50" y="76" type="line"/>
      <point x="50" y="40" type="line"/>
      <point x="520" y="40" type="line"/>
      <point x="520" y="76" type="line"/>
    </contour>
  </outline>
</glyph>
<glyph name="threesuperior" format="1">
  <advance width="336"/>
  <unicode hex="00B3"/>
  <note>
    threesuperior
  </note>
  <outline>
    <contour>
      <point x="109" y="812"/>
      <point x="64" y="777"/>
      <point x="54" y="712" type="curve"/>
      <point x="67" y="710" type="line"/>
      <point x="80" y="708"/>
      <point x="87" y="709"/>
      <point x="90" y="719" type="curve" smooth="yes"/>
      <point x="102" y="760"/>
      <point x="126" y="781"/>
      <point x="167" y="781" type="curve" smooth="yes"/>
      <point x="206" y="781"/>
      <point x="238" y="759"/>
      <point x="238" y="714" type="curve" smooth="yes"/>
      <point x="238" y="669"/>
      <point x="203" y="646"/>
      <point x="148" y="644" type="curve"/>
      <point x="148" y="620" type="line"/>
      <point x="204" y="620"/>
      <point x="244" y="602"/>
      <point x="244" y="549" type="curve" smooth="yes"/>
      <point x="244" y="505"/>
      <point x="206" y="476"/>
      <point x="162" y="476" type="curve" smooth="yes"/>
      <point x="124" y="476"/>
      <point x="92" y="500"/>
      <point x="79" y="538" type="curve"/>
      <point x="75" y="548"/>
      <point x="66" y="547"/>
      <point x="58" y="544" type="curve"/>
      <point x="44" y="538" type="line"/>
      <point x="64" y="475"/>
      <point x="92" y="446"/>
      <point x="164" y="446" type="curve" smooth="yes"/>
      <point x="223" y="446"/>
      <point x="281" y="485"/>
      <point x="281" y="551" type="curve" smooth="yes"/>
      <point x="281" y="598"/>
      <point x="254" y="622"/>
      <point x="206" y="634" type="curve"/>
      <point x="243" y="645"/>
      <point x="272" y="675"/>
      <point x="272" y="720" type="curve" smooth="yes"/>
      <point x="272" y="778"/>
      <point x="225" y="812"/>
      <point x="168" y="812" type="curve" smooth="yes"/>
    </contour>
  </outline>
</glyph>
<glyph name="acute" format="1">
  <advance width="269"/>
  <unicode hex="00B4"/>
  <note>
    acute
  </note>
  <outline>
    <contour>
      <point x="213" y="716" type="line"/>
      <point x="166" y="716" type="line" smooth="yes"/>
      <point x="156" y="716"/>
      <point x="145" y="714"/>
      <point x="136" y="700" type="curve" smooth="yes"/>
      <point x="58" y="580" type="line"/>
      <point x="86" y="580" type="line" smooth="yes"/>
      <point x="96" y="580"/>
      <point x="99" y="583"/>
      <point x="105" y="589" type="curve"/>
    </contour>
  </outline>
</glyph>
<glyph name="paragraph" format="1">
  <advance width="654"/>
  <unicode hex="00B6"/>
  <note>
    paragraph
  </note>
  <outline>
    <contour>
      <point x="624" y="708" type="line"/>
      <point x="262" y="708" type="line" smooth="yes"/>
      <point x="140" y="708"/>
      <point x="41" y="649"/>
      <point x="41" y="532" type="curve" smooth="yes"/>
      <point x="41" y="415"/>
      <point x="140" y="350"/>
      <point x="262" y="350" type="curve"/>
      <point x="262" y="-95" type="line"/>
      <point x="305" y="-95" type="line"/>
      <point x="305" y="666" type="line"/>
      <point x="469" y="666" type="line"/>
      <point x="469" y="-95" type="line"/>
      <point x="512" y="-95" type="line"/>
      <point x="512" y="666" type="line"/>
      <point x="624" y="666" type="line"/>
    </contour>
  </outline>
</glyph>
<glyph name="periodcentered" format="1">
  <advance width="237"/>
  <unicode hex="00B7"/>
  <note>
    periodcentered
  </note>
  <outline>
    <contour>
      <point x="146" y="247"/>
      <point x="168" y="269"/>
      <point x="168" y="297" type="curve" smooth="yes"/>
      <point x="168" y="325"/>
      <point x="146" y="347"/>
      <point x="119" y="347" type="curve" smooth="yes"/>
      <point x="91" y="347"/>
      <point x="69" y="325"/>
      <point x="69" y="297" type="curve" smooth="yes"/>
      <point x="69" y="269"/>
      <point x="91" y="247"/>
      <point x="119" y="247" type="curve" smooth="yes"/>
    </contour>
  </outline>
</glyph>
<glyph name="cedilla" format="1">
  <advance width="287"/>
  <unicode hex="00B8"/>
  <note>
    cedilla
  </note>
  <outline>
    <contour>
      <point x="69" y="-138"/>
      <point x="64" y="-148" type="curve"/>
      <point x="60" y="-156" type="line"/>
      <point x="82" y="-171"/>
      <point x="105" y="-178"/>
      <point x="132" y="-178" type="curve" smooth="yes"/>
      <point x="177" y="-178"/>
      <point x="224" y="-159"/>
      <point x="224" y="-113" type="curve" smooth="yes"/>
      <point x="224" y="-71"/>
      <point x="191" y="-56"/>
      <point x="134" y="-46" type="curve"/>
      <point x="148" y="2" type="line"/>
      <point x="118" y="2" type="line"/>
      <point x="97" y="-64" type="line"/>
      <point x="140" y="-71"/>
      <point x="186" y="-74"/>
      <point x="186" y="-113" type="curve" smooth="yes"/>
      <point x="186" y="-142"/>
      <point x="162" y="-154"/>
      <point x="132" y="-154" type="curve" smooth="yes"/>
      <point x="117" y="-154"/>
      <point x="96" y="-147"/>
      <point x="83" y="-141" type="curve" smooth="yes"/>
      <point x="74" y="-137"/>
    </contour>
  </outline>
</glyph>
<glyph name="ordmasculine" format="1">
  <advance width="401"/>
  <unicode hex="00BA"/>
  <note>
    ordmasculine
  </note>
  <outline>
    <contour>
      <point x="110" y="714"/>
      <point x="56" y="655"/>
      <point x="56" y="564" type="curve" smooth="yes"/>
      <point x="56" y="473"/>
      <point x="110" y="414"/>
      <point x="200" y="414" type="curve" smooth="yes"/>
      <point x="292" y="414"/>
      <point x="343" y="474"/>
      <point x="343" y="564" type="curve" smooth="yes"/>
      <point x="343" y="624"/>
      <point x="319" y="680"/>
      <point x="260" y="704" type="curve" smooth="yes"/>
      <point x="242" y="711"/>
      <point x="222" y="714"/>
      <point x="200" y="714" type="curve" smooth="yes"/>
    </contour>
    <contour>
      <point x="129" y="442"/>
      <point x="94" y="491"/>
      <point x="94" y="564" type="curve" smooth="yes"/>
      <point x="94" y="634"/>
      <point x="126" y="686"/>
      <point x="200" y="686" type="curve" smooth="yes"/>
      <point x="271" y="686"/>
      <point x="305" y="639"/>
      <point x="305" y="564" type="curve" smooth="yes"/>
      <point x="305" y="489"/>
      <point x="271" y="442"/>
      <point x="200" y="442" type="curve" smooth="yes"/>
    </contour>
  </outline>
</glyph>
<glyph name="threequarters" format="1">
  <advance width="718"/>
  <unicode hex="00BE"/>
  <note>
    threequarters
  </note>
  <outline>
    <contour>
      <point x="630" y="124" type="line"/>
      <point x="630" y="358" type="line"/>
      <point x="597" y="358" type="line"/>
      <point x="421" y="122" type="line"/>
      <point x="424" y="106" type="line" smooth="yes"/>
      <point x="425" y="101"/>
      <point x="428" y="98"/>
      <point x="436" y="98" type="curve" smooth="yes"/>
      <point x="599" y="98" type="line"/>
      <point x="599" y="0" type="line"/>
      <point x="630" y="0" type="line"/>
      <point x="630" y="98" type="line"/>
      <point x="685" y="98" type="line" smooth="yes"/>
      <point x="691" y="98"/>
      <point x="694" y="101"/>
      <point x="694" y="106" type="curve" smooth="yes"/>
      <point x="694" y="124" type="line"/>
    </contour>
    <contour>
      <point x="599" y="123" type="line"/>
      <point x="456" y="123" type="line"/>
      <point x="600" y="317" type="line"/>
      <point x="599" y="307"/>
      <point x="599" y="299"/>
      <point x="599" y="291" type="curve" smooth="yes"/>
    </contour>
    <contour>
      <point x="606" y="707" type="line"/>
      <point x="585" y="707" type="line" smooth="yes"/>
      <point x="575" y="707"/>
      <point x="565" y="704"/>
      <point x="558" y="690" type="curve"/>
      <point x="158" y="0" type="line"/>
      <point x="178" y="0" type="line" smooth="yes"/>
      <point x="187" y="0"/>
      <point x="196" y="2"/>
      <point x="205" y="15" type="curve"/>
    </contour>
    <component base="threesuperior" xOffset="-6" yOffset="-100"/>
  </outline>
</glyph>
<glyph name="multiply" format="1">
  <advance width="479"/>
  <unicode hex="00D7"/>
  <note>
    multiply
  </note>
  <outline>
    <contour>
      <point x="448" y="518" type="line"/>
      <point x="421" y="545" type="line"/>
      <point x="238" y="362" type="line"/>
      <point x="54" y="546" type="line"/>
      <point x="28" y="519" type="line"/>
      <point x="212" y="335" type="line"/>
      <point x="25" y="148" type="line"/>
      <point x="51" y="122" type="line"/>
      <point x="238" y="309" type="line"/>
      <point x="424" y="123" type="line"/>
      <point x="450" y="149" type="line"/>
      <point x="264" y="335" type="line"/>
    </contour>
  </outline>
</glyph>
<glyph name="Thorn" format="1">
  <advance width="553"/>
  <unicode hex="00DE"/>
  <note>
    Thorn
  </note>
  <outline>
    <contour>
      <point x="134" y="143" type="line"/>
      <point x="266" y="143" type="line" smooth="yes"/>
      <point x="408" y="143"/>
      <point x="517" y="221"/>
      <point x="517" y="356" type="curve" smooth="yes"/>
      <point x="517" y="498"/>
      <point x="422" y="566"/>
      <point x="266" y="566" type="curve" smooth="yes"/>
      <point x="134" y="566" type="line"/>
      <point x="134" y="708" type="line"/>
      <point x="84" y="708" type="line"/>
      <point x="84" y="0" type="line"/>
      <point x="134" y="0" type="line"/>
    </contour>
    <contour>
      <point x="134" y="184" type="line"/>
      <point x="134" y="524" type="line"/>
      <point x="266" y="524" type="line" smooth="yes"/>
      <point x="386" y="524"/>
      <point x="466" y="476"/>
      <point x="466" y="356" type="curve" smooth="yes"/>
      <point x="466" y="250"/>
      <point x="383" y="184"/>
      <point x="266" y="184" type="curve" smooth="yes"/>
    </contour>
  </outline>
</glyph>
<glyph name="germandbls" format="1">
  <advance width="538"/>
  <unicode hex="00DF"/>
  <note>
    germandbls
  </note>
  <outline>
    <contour>
      <point x="161" y="716"/>
      <point x="75" y="630"/>
      <point x="75" y="500" type="curve" smooth="yes"/>
      <point x="75" y="0" type="line"/>
      <point x="122" y="0" type="line"/>
      <point x="122" y="500" type="line" smooth="yes"/>
      <point x="122" y="607"/>
      <point x="182" y="680"/>
      <point x="294" y="680" type="curve" smooth="yes"/>
      <point x="365" y="680"/>
      <point x="428" y="640"/>
      <point x="428" y="576" type="curve" smooth="yes"/>
      <point x="428" y="526"/>
      <point x="395" y="493"/>
      <point x="346" y="458" type="curve" smooth="yes"/>
      <point x="300" y="425"/>
      <point x="264" y="396"/>
      <point x="264" y="352" type="curve" smooth="yes"/>
      <point x="264" y="301"/>
      <point x="300" y="272"/>
      <point x="364" y="249" type="curve" smooth="yes"/>
      <point x="425" y="227"/>
      <point x="463" y="193"/>
      <point x="463" y="140" type="curve" smooth="yes"/>
      <point x="463" y="75"/>
      <point x="413" y="27"/>
      <point x="339" y="27" type="curve" smooth="yes"/>
      <point x="294" y="27"/>
      <point x="259" y="41"/>
      <point x="224" y="70" type="curve" smooth="yes"/>
      <point x="212" y="80"/>
      <point x="202" y="82"/>
      <point x="194" y="70" type="curve" smooth="yes"/>
      <point x="183" y="53" type="line"/>
      <point x="229" y="12"/>
      <point x="275" y="-8"/>
      <point x="336" y="-8" type="curve" smooth="yes"/>
      <point x="437" y="-8"/>
      <point x="507" y="53"/>
      <point x="507" y="147" type="curve" smooth="yes"/>
      <point x="507" y="223"/>
      <point x="469" y="253"/>
      <point x="375" y="292" type="curve" smooth="yes"/>
      <point x="338" y="307"/>
      <point x="314" y="326"/>
      <point x="314" y="360" type="curve" smooth="yes"/>
      <point x="314" y="391"/>
      <point x="345" y="418"/>
      <point x="393" y="449" type="curve" smooth="yes"/>
      <point x="436" y="476"/>
      <point x="473" y="522"/>
      <point x="473" y="576" type="curve" smooth="yes"/>
      <point x="473" y="658"/>
      <point x="392" y="716"/>
      <point x="296" y="716" type="curve" smooth="yes"/>
    </contour>
  </outline>
</glyph>
<glyph name="ae" format="1">
  <advance width="783"/>
  <unicode hex="00E6"/>
  <note>
    ae
  </note>
  <outline>
    <contour>
      <point x="481" y="506"/>
      <point x="418" y="461"/>
      <point x="386" y="386" type="curve"/>
      <point x="369" y="466"/>
      <point x="321" y="506"/>
      <point x="240" y="506" type="curve" smooth="yes"/>
      <point x="170" y="506"/>
      <point x="116" y="479"/>
      <point x="64" y="427" type="curve"/>
      <point x="73" y="412" type="line"/>
      <point x="81" y="400"/>
      <point x="94" y="402"/>
      <point x="106" y="414" type="curve" smooth="yes"/>
      <point x="136" y="444"/>
      <point x="188" y="468"/>
      <point x="239" y="468" type="curve" smooth="yes"/>
      <point x="321" y="468"/>
      <point x="357" y="411"/>
      <point x="357" y="324" type="curve" smooth="yes"/>
      <point x="357" y="290" type="line"/>
      <point x="223" y="289"/>
      <point x="40" y="251"/>
      <point x="40" y="129" type="curve" smooth="yes"/>
      <point x="40" y="36"/>
      <point x="97" y="-8"/>
      <point x="188" y="-8" type="curve" smooth="yes"/>
      <point x="278" y="-8"/>
      <point x="357" y="39"/>
      <point x="382" y="131" type="curve"/>
      <point x="413" y="43"/>
      <point x="475" y="-7"/>
      <point x="566" y="-7" type="curve" smooth="yes"/>
      <point x="620" y="-7"/>
      <point x="699" y="18"/>
      <point x="736" y="64" type="curve"/>
      <point x="724" y="79" type="line"/>
      <point x="716" y="87"/>
      <point x="707" y="85"/>
      <point x="698" y="76" type="curve" smooth="yes"/>
      <point x="674" y="52"/>
      <point x="616" y="31"/>
      <point x="569" y="31" type="curve" smooth="yes"/>
      <point x="454" y="31"/>
      <point x="401" y="129"/>
      <point x="401" y="258" type="curve"/>
      <point x="731" y="258" type="line" smooth="yes"/>
      <point x="743" y="258"/>
      <point x="743" y="264"/>
      <point x="743" y="277" type="curve" smooth="yes"/>
      <point x="743" y="405"/>
      <point x="680" y="506"/>
      <point x="566" y="506" type="curve" smooth="yes"/>
    </contour>
    <contour>
      <point x="357" y="192" type="line" smooth="yes"/>
      <point x="357" y="96"/>
      <point x="292" y="26"/>
      <point x="197" y="26" type="curve" smooth="yes"/>
      <point x="128" y="26"/>
      <point x="85" y="63"/>
      <point x="85" y="131" type="curve" smooth="yes"/>
      <point x="85" y="230"/>
      <point x="241" y="252"/>
      <point x="357" y="257" type="curve"/>
    </contour>
    <contour>
      <point x="653" y="470"/>
      <point x="701" y="392"/>
      <point x="701" y="289" type="curve"/>
      <point x="402" y="289" type="line"/>
      <point x="409" y="388"/>
      <point x="464" y="470"/>
      <point x="564" y="470" type="curve" smooth="yes"/>
    </contour>
  </outline>
</glyph>
<glyph name="eth" format="1">
  <advance width="523"/>
  <unicode hex="00F0"/>
  <note>
    eth
  </note>
  <outline>
    <contour>
      <point x="225" y="521" type="line"/>
      <point x="307" y="594" type="line"/>
      <point x="390" y="538"/>
      <point x="431" y="450"/>
      <point x="440" y="344" type="curve"/>
      <point x="401" y="414"/>
      <point x="335" y="460"/>
      <point x="251" y="460" type="curve" smooth="yes"/>
      <point x="122" y="460"/>
      <point x="34" y="366"/>
      <point x="34" y="228" type="curve" smooth="yes"/>
      <point x="34" y="95"/>
      <point x="121" y="-6"/>
      <point x="252" y="-6" type="curve" smooth="yes"/>
      <point x="410" y="-6"/>
      <point x="482" y="126"/>
      <point x="482" y="300" type="curve" smooth="yes"/>
      <point x="482" y="429"/>
      <point x="440" y="542"/>
      <point x="338" y="619" type="curve"/>
      <point x="395" y="669" type="line"/>
      <point x="403" y="677"/>
      <point x="404" y="680"/>
      <point x="399" y="688" type="curve"/>
      <point x="390" y="703" type="line"/>
      <point x="314" y="635" type="line"/>
      <point x="264" y="666"/>
      <point x="203" y="686"/>
      <point x="142" y="696" type="curve"/>
      <point x="137" y="679" type="line"/>
      <point x="134" y="668"/>
      <point x="138" y="659"/>
      <point x="148" y="656" type="curve"/>
      <point x="191" y="647"/>
      <point x="240" y="632"/>
      <point x="282" y="609" type="curve"/>
      <point x="219" y="554" type="line"/>
      <point x="215" y="550"/>
      <point x="210" y="545"/>
      <point x="216" y="535" type="curve" smooth="yes"/>
    </contour>
    <contour>
      <point x="151" y="32"/>
      <point x="82" y="114"/>
      <point x="82" y="228" type="curve" smooth="yes"/>
      <point x="82" y="341"/>
      <point x="143" y="423"/>
      <point x="259" y="423" type="curve" smooth="yes"/>
      <point x="345" y="423"/>
      <point x="412" y="366"/>
      <point x="437" y="282" type="curve"/>
      <point x="433" y="143"/>
      <point x="383" y="32"/>
      <point x="254" y="32" type="curve" smooth="yes"/>
    </contour>
  </outline>
</glyph>
<glyph name="thorn" format="1">
  <advance width="536"/>
  <unicode hex="00FE"/>
  <note>
    thorn
  </note>
  <outline>
    <contour>
      <point x="84" y="-176" type="line"/>
      <point x="131" y="-176" type="line"/>
      <point x="131" y="70" type="line"/>
      <point x="169" y="18"/>
      <point x="218" y="-6"/>
      <point x="283" y="-6" type="curve" smooth="yes"/>
      <point x="425" y="-6"/>
      <point x="500" y="109"/>
      <point x="500" y="252" type="curve" smooth="yes"/>
      <point x="500" y="401"/>
      <point x="440" y="506"/>
      <point x="306" y="506" type="curve" smooth="yes"/>
      <point x="235" y="506"/>
      <point x="176" y="469"/>
      <point x="131" y="410" type="curve"/>
      <point x="131" y="728" type="line"/>
      <point x="84" y="728" type="line"/>
    </contour>
    <contour>
      <point x="408" y="468"/>
      <point x="450" y="381"/>
      <point x="450" y="252" type="curve" smooth="yes"/>
      <point x="450" y="125"/>
      <point x="396" y="31"/>
      <point x="274" y="31" type="curve" smooth="yes"/>
      <point x="209" y="31"/>
      <point x="167" y="54"/>
      <point x="131" y="109" type="curve"/>
      <point x="131" y="370" type="line"/>
      <point x="172" y="430"/>
      <point x="224" y="468"/>
      <point x="292" y="468" type="curve" smooth="yes"/>
    </contour>
  </outline>
</glyph>
<glyph name="dcroat" format="1">
  <advance width="560"/>
  <unicode hex="0111"/>
  <outline>
    <contour>
      <point x="529" y="581" type="line"/>
      <point x="529" y="614" type="line"/>
      <point x="282" y="614" type="line"/>
      <point x="282" y="581" type="line"/>
    </contour>
    <component base="d"/>
  </outline>
</glyph>
<glyph name="dotlessi" format="1">
  <advance width="282"/>
  <unicode hex="0131"/>
  <note>
    dotlessi
  </note>
  <outline>
    <contour>
      <point x="170" y="40" type="line"/>
      <point x="170" y="498" type="line"/>
      <point x="122" y="498" type="line"/>
      <point x="50" y="498" type="line"/>
      <point x="50" y="478" type="line" smooth="yes"/>
      <point x="50" y="467"/>
      <point x="57" y="461"/>
      <point x="70" y="460" type="curve"/>
      <point x="122" y="458" type="line"/>
      <point x="122" y="40" type="line"/>
      <point x="70" y="38" type="line"/>
      <point x="57" y="37"/>
      <point x="50" y="31"/>
      <point x="50" y="20" type="curve" smooth="yes"/>
      <point x="50" y="0" type="line"/>
      <point x="242" y="0" type="line"/>
      <point x="242" y="20" type="line" smooth="yes"/>
      <point x="242" y="31"/>
      <point x="235" y="37"/>
      <point x="222" y="38" type="curve"/>
    </contour>
    <contour>
      <point x="254" y="10" type="move" name="ogonek"/>
    </contour>
    <contour>
      <point x="141" y="0" type="move" name="bottom"/>
    </contour>
    <contour>
      <point x="127" y="498" type="move" name="top"/>
    </contour>
  </outline>
</glyph>
<glyph name="lslash" format="1">
  <advance width="301"/>
  <unicode hex="0142"/>
  <note>
    lslash
  </note>
  <outline>
    <contour>
      <point x="173" y="431" type="line"/>
      <point x="173" y="728" type="line"/>
      <point x="54" y="728" type="line"/>
      <point x="54" y="708" type="line" smooth="yes"/>
      <point x="54" y="697"/>
      <point x="61" y="691"/>
      <point x="74" y="690" type="curve"/>
      <point x="126" y="688" type="line"/>
      <point x="126" y="413" type="line"/>
      <point x="38" y="371" type="line" smooth="yes"/>
      <point x="32" y="368"/>
      <point x="28" y="363"/>
      <point x="28" y="356" type="curve" smooth="yes"/>
      <point x="28" y="330" type="line"/>
      <point x="126" y="375" type="line"/>
      <point x="126" y="40" type="line"/>
      <point x="74" y="38" type="line"/>
      <point x="61" y="37"/>
      <point x="54" y="31"/>
      <point x="54" y="20" type="curve" smooth="yes"/>
      <point x="54" y="0" type="line"/>
      <point x="246" y="0" type="line"/>
      <point x="246" y="20" type="line" smooth="yes"/>
      <point x="246" y="31"/>
      <point x="239" y="37"/>
      <point x="226" y="38" type="curve"/>
      <point x="173" y="40" type="line"/>
      <point x="173" y="393" type="line"/>
      <point x="262" y="435" type="line" smooth="yes"/>
      <point x="266" y="437"/>
      <point x="271" y="439"/>
      <point x="271" y="451" type="curve" smooth="yes"/>
      <point x="271" y="476" type="line"/>
    </contour>
  </outline>
</glyph>
<glyph name="Eng" format="1">
  <advance width="789"/>
  <unicode hex="014A"/>
  <outline>
    <contour>
      <point x="636" y="-23" type="line" smooth="yes"/>
      <point x="636" y="-103"/>
      <point x="601" y="-144"/>
      <point x="538" y="-144" type="curve" smooth="yes"/>
      <point x="523" y="-144"/>
      <point x="511" y="-142"/>
      <point x="502" y="-139" type="curve" smooth="yes"/>
      <point x="482" y="-132"/>
      <point x="475" y="-135"/>
      <point x="473" y="-145" type="curve"/>
      <point x="468" y="-165" type="line"/>
      <point x="493" y="-175"/>
      <point x="514" y="-180"/>
      <point x="542" y="-180" type="curve" smooth="yes"/>
      <point x="589" y="-180"/>
      <point x="624" y="-165"/>
      <point x="647" y="-137" type="curve" smooth="yes"/>
      <point x="670" y="-109"/>
      <point x="681" y="-68"/>
      <point x="681" y="-18" type="curve" smooth="yes"/>
      <point x="681" y="12" type="line"/>
      <point x="681" y="669" type="line"/>
      <point x="745" y="671" type="line"/>
      <point x="758" y="672"/>
      <point x="765" y="678"/>
      <point x="765" y="689" type="curve" smooth="yes"/>
      <point x="765" y="708" type="line"/>
      <point x="549" y="708" type="line"/>
      <point x="549" y="689" type="line" smooth="yes"/>
      <point x="549" y="678"/>
      <point x="556" y="672"/>
      <point x="569" y="671" type="curve"/>
      <point x="636" y="669" type="line"/>
      <point x="636" y="114" type="line" smooth="yes"/>
      <point x="636" y="105"/>
      <point x="636" y="95"/>
      <point x="637" y="85" type="curve"/>
      <point x="179" y="698" type="line" smooth="yes"/>
      <point x="175" y="703"/>
      <point x="172" y="708"/>
      <point x="160" y="708" type="curve" smooth="yes"/>
      <point x="50" y="708" type="line"/>
      <point x="50" y="688" type="line" smooth="yes"/>
      <point x="50" y="677"/>
      <point x="57" y="671"/>
      <point x="70" y="670" type="curve"/>
      <point x="135" y="668" type="line"/>
      <point x="135" y="40" type="line"/>
      <point x="70" y="38" type="line"/>
      <point x="57" y="37"/>
      <point x="50" y="31"/>
      <point x="50" y="20" type="curve" smooth="yes"/>
      <point x="50" y="0" type="line"/>
      <point x="266" y="0" type="line"/>
      <point x="266" y="20" type="line" smooth="yes"/>
      <point x="266" y="31"/>
      <point x="259" y="37"/>
      <point x="246" y="38" type="curve"/>
      <point x="179" y="40" type="line"/>
      <point x="179" y="595" type="line" smooth="yes"/>
      <point x="179" y="604"/>
      <point x="179" y="614"/>
      <point x="178" y="624" type="curve"/>
      <point x="636" y="13" type="line"/>
    </contour>
    <contour>
      <point x="395" y="708" type="move" name="top"/>
    </contour>
    <contour>
      <point x="395" y="0" type="move" name="bottom"/>
    </contour>
  </outline>
</glyph>
<glyph name="eng" format="1">
  <advance width="629"/>
  <unicode hex="014B"/>
  <outline>
    <contour>
      <point x="515" y="318" type="line" smooth="yes"/>
      <point x="515" y="431"/>
      <point x="460" y="505"/>
      <point x="349" y="505" type="curve" smooth="yes"/>
      <point x="274" y="505"/>
      <point x="214" y="467"/>
      <point x="169" y="410" type="curve"/>
      <point x="165" y="486" type="line"/>
      <point x="164" y="494"/>
      <point x="159" y="498"/>
      <point x="150" y="498" type="curve" smooth="yes"/>
      <point x="124" y="498" type="line"/>
      <point x="124" y="459" type="line"/>
      <point x="124" y="40" type="line"/>
      <point x="71" y="38" type="line"/>
      <point x="58" y="37"/>
      <point x="52" y="31"/>
      <point x="52" y="20" type="curve" smooth="yes"/>
      <point x="52" y="0" type="line"/>
      <point x="243" y="0" type="line"/>
      <point x="243" y="20" type="line" smooth="yes"/>
      <point x="243" y="31"/>
      <point x="237" y="37"/>
      <point x="224" y="38" type="curve"/>
      <point x="171" y="40" type="line"/>
      <point x="171" y="373" type="line"/>
      <point x="214" y="430"/>
      <point x="270" y="467"/>
      <point x="337" y="467" type="curve" smooth="yes"/>
      <point x="429" y="467"/>
      <point x="467" y="407"/>
      <point x="467" y="318" type="curve" smooth="yes"/>
      <point x="467" y="0" type="line"/>
      <point x="467" y="-23" type="line" smooth="yes"/>
      <point x="467" y="-103"/>
      <point x="432" y="-144"/>
      <point x="369" y="-144" type="curve" smooth="yes"/>
      <point x="354" y="-144"/>
      <point x="342" y="-142"/>
      <point x="333" y="-139" type="curve" smooth="yes"/>
      <point x="313" y="-132"/>
      <point x="307" y="-136"/>
      <point x="304" y="-145" type="curve"/>
      <point x="299" y="-165" type="line"/>
      <point x="324" y="-175"/>
      <point x="345" y="-180"/>
      <point x="373" y="-180" type="curve" smooth="yes"/>
      <point x="420" y="-180"/>
      <point x="457" y="-165"/>
      <point x="480" y="-137" type="curve" smooth="yes"/>
      <point x="503" y="-109"/>
      <point x="511" y="-68"/>
      <point x="514" y="-18" type="curve" smooth="yes"/>
      <point x="515" y="-1" type="line"/>
    </contour>
    <component base="SerifSpur" xOffset="124" yOffset="498"/>
  </outline>
</glyph>
<glyph name="oe" format="1">
  <advance width="847"/>
  <unicode hex="0153"/>
  <note>
    oe
  </note>
  <outline>
    <contour>
      <point x="539" y="506"/>
      <point x="470" y="453"/>
      <point x="441" y="361" type="curve"/>
      <point x="414" y="448"/>
      <point x="348" y="506"/>
      <point x="251" y="506" type="curve" smooth="yes"/>
      <point x="112" y="506"/>
      <point x="39" y="396"/>
      <point x="39" y="249" type="curve" smooth="yes"/>
      <point x="39" y="105"/>
      <point x="111" y="-6"/>
      <point x="250" y="-6" type="curve" smooth="yes"/>
      <point x="346" y="-6"/>
      <point x="414" y="48"/>
      <point x="442" y="141" type="curve"/>
      <point x="470" y="49"/>
      <point x="534" y="-6"/>
      <point x="629" y="-6" type="curve" smooth="yes"/>
      <point x="686" y="-6"/>
      <point x="762" y="17"/>
      <point x="799" y="64" type="curve"/>
      <point x="786" y="80" type="line"/>
      <point x="781" y="86"/>
      <point x="773" y="88"/>
      <point x="761" y="77" type="curve" smooth="yes"/>
      <point x="729" y="50"/>
      <point x="684" y="32"/>
      <point x="633" y="32" type="curve" smooth="yes"/>
      <point x="515" y="32"/>
      <point x="464" y="132"/>
      <point x="464" y="258" type="curve"/>
      <point x="794" y="258" type="line" smooth="yes"/>
      <point x="803" y="258"/>
      <point x="807" y="262"/>
      <point x="807" y="278" type="curve" smooth="yes"/>
      <point x="807" y="405"/>
      <point x="743" y="506"/>
      <point x="628" y="506" type="curve" smooth="yes"/>
    </contour>
    <contour>
      <point x="136" y="31"/>
      <point x="88" y="125"/>
      <point x="88" y="249" type="curve" smooth="yes"/>
      <point x="88" y="377"/>
      <point x="139" y="468"/>
      <point x="254" y="468" type="curve" smooth="yes"/>
      <point x="367" y="468"/>
      <point x="418" y="372"/>
      <point x="418" y="249" type="curve" smooth="yes"/>
      <point x="418" y="129"/>
      <point x="370" y="31"/>
      <point x="254" y="31" type="curve" smooth="yes"/>
    </contour>
    <contour>
      <point x="716" y="470"/>
      <point x="765" y="393"/>
      <point x="765" y="289" type="curve"/>
      <point x="466" y="289" type="line"/>
      <point x="473" y="396"/>
      <point x="528" y="470"/>
      <point x="628" y="470" type="curve" smooth="yes"/>
    </contour>
  </outline>
</glyph>
<glyph name="tbar" format="1">
  <advance width="355"/>
  <unicode hex="0167"/>
  <outline>
    <contour>
      <point x="305" y="306" type="line"/>
      <point x="305" y="337" type="line"/>
      <point x="24" y="337" type="line"/>
      <point x="24" y="306" type="line"/>
    </contour>
    <component base="t"/>
  </outline>
</glyph>
<glyph name="circumflex" format="1">
  <advance width="374"/>
  <unicode hex="02C6"/>
  <note>
    circumflex
  </note>
  <outline>
    <contour>
      <point x="316" y="584" type="line"/>
      <point x="208" y="708" type="line"/>
      <point x="166" y="708" type="line"/>
      <point x="56" y="584" type="line"/>
      <point x="90" y="584" type="line" smooth="yes"/>
      <point x="90" y="584"/>
      <point x="99" y="585"/>
      <point x="104" y="590" type="curve"/>
      <point x="187" y="678" type="line"/>
      <point x="270" y="590" type="line"/>
      <point x="274" y="586"/>
      <point x="279" y="584"/>
      <point x="284" y="584" type="curve" smooth="yes"/>
    </contour>
  </outline>
</glyph>
<glyph name="uni02C9" format="1">
  <advance width="405"/>
  <unicode hex="02C9"/>
  <note>
    uni02C9
  </note>
  <outline>
    <contour>
      <point x="66" y="658" type="line"/>
      <point x="66" y="626" type="line"/>
      <point x="339" y="626" type="line"/>
      <point x="339" y="658" type="line"/>
    </contour>
  </outline>
</glyph>
<glyph name="dotaccent" format="1">
  <advance width="224"/>
  <unicode hex="02D9"/>
  <note>
    dotaccent
  </note>
  <outline>
    <contour>
      <point x="138" y="631"/>
      <point x="158" y="651"/>
      <point x="158" y="676" type="curve" smooth="yes"/>
      <point x="158" y="700"/>
      <point x="138" y="720"/>
      <point x="114" y="720" type="curve" smooth="yes"/>
      <point x="89" y="720"/>
      <point x="69" y="700"/>
      <point x="69" y="676" type="curve" smooth="yes"/>
      <point x="69" y="651"/>
      <point x="89" y="631"/>
      <point x="114" y="631" type="curve" smooth="yes"/>
    </contour>
  </outline>
</glyph>
<glyph name="hungarumlaut" format="1">
  <advance width="388"/>
  <unicode hex="02DD"/>
  <note>
    hungarumlaut
  </note>
  <outline>
    <contour>
      <point x="196" y="716" type="line"/>
      <point x="164" y="716" type="line" smooth="yes"/>
      <point x="154" y="716"/>
      <point x="143" y="714"/>
      <point x="134" y="700" type="curve" smooth="yes"/>
      <point x="58" y="580" type="line"/>
      <point x="79" y="580" type="line" smooth="yes"/>
      <point x="87" y="580"/>
      <point x="92" y="583"/>
      <point x="98" y="589" type="curve"/>
    </contour>
    <contour>
      <point x="332" y="716" type="line"/>
      <point x="296" y="716" type="line" smooth="yes"/>
      <point x="286" y="716"/>
      <point x="275" y="714"/>
      <point x="266" y="700" type="curve"/>
      <point x="175" y="580" type="line"/>
      <point x="198" y="580" type="line" smooth="yes"/>
      <point x="208" y="580"/>
      <point x="211" y="583"/>
      <point x="217" y="589" type="curve"/>
    </contour>
  </outline>
</glyph>
<glyph name="gravecomb" format="1">
  <advance width="222"/>
  <unicode hex="0300"/>
  <outline>
    <contour>
      <point x="-61" y="885" type="line"/>
      <point x="85" y="777" type="line"/>
      <point x="90" y="772"/>
      <point x="97" y="771"/>
      <point x="104" y="771" type="curve"/>
      <point x="140" y="771" type="line"/>
      <point x="26" y="874" type="line"/>
      <point x="14" y="884"/>
      <point x="10" y="885"/>
      <point x="-5" y="885" type="curve" smooth="yes"/>
    </contour>
    <contour>
      <point x="40" y="885" type="move" name="top"/>
    </contour>
    <contour>
      <point x="129" y="708" type="move" name="_top"/>
    </contour>
  </outline>
</glyph>
<glyph name="acutecomb" format="1">
  <advance width="300"/>
  <unicode hex="0301"/>
  <outline>
    <contour>
      <point x="207" y="716" type="line"/>
      <point x="160" y="716" type="line" smooth="yes"/>
      <point x="146" y="716"/>
      <point x="139" y="712"/>
      <point x="131" y="700" type="curve" smooth="yes"/>
      <point x="52" y="580" type="line"/>
      <point x="81" y="580" type="line" smooth="yes"/>
      <point x="90" y="580"/>
      <point x="93" y="583"/>
      <point x="99" y="589" type="curve"/>
    </contour>
    <contour>
      <point x="170" y="716" type="move" name="top"/>
    </contour>
    <contour>
      <point x="100" y="498" type="move" name="_top"/>
    </contour>
  </outline>
</glyph>
<glyph name="brevecomb" format="1">
  <advance width="423"/>
  <unicode hex="0306"/>
  <outline>
    <contour>
      <point x="288" y="550"/>
      <point x="333" y="582"/>
      <point x="333" y="656" type="curve"/>
      <point x="301" y="656" type="line"/>
      <point x="301" y="607"/>
      <point x="271" y="580"/>
      <point x="212" y="580" type="curve" smooth="yes"/>
      <point x="157" y="580"/>
      <point x="123" y="603"/>
      <point x="123" y="656" type="curve"/>
      <point x="91" y="656" type="line"/>
      <point x="91" y="583"/>
      <point x="135" y="550"/>
      <point x="212" y="550" type="curve" smooth="yes"/>
    </contour>
    <contour>
      <point x="212" y="656" type="move" name="top"/>
    </contour>
    <contour>
      <point x="212" y="498" type="move" name="_top"/>
    </contour>
  </outline>
</glyph>
<glyph name="caroncomb" format="1">
  <advance width="600"/>
  <unicode hex="030C"/>
  <outline>
    <contour>
      <point x="187" y="708" type="line"/>
      <point x="296" y="585" type="line"/>
      <point x="338" y="585" type="line"/>
      <point x="447" y="708" type="line"/>
      <point x="414" y="708" type="line" smooth="yes"/>
      <point x="412" y="708"/>
      <point x="410" y="707"/>
      <point x="407" y="706" type="curve"/>
      <point x="405" y="705"/>
      <point x="403" y="704"/>
      <point x="401" y="702" type="curve" smooth="yes"/>
      <point x="323" y="621" type="line"/>
      <point x="318" y="614" type="line"/>
      <point x="312" y="621" type="line"/>
      <point x="234" y="702" type="line" smooth="yes"/>
      <point x="230" y="706"/>
      <point x="225" y="708"/>
      <point x="220" y="708" type="curve" smooth="yes"/>
    </contour>
    <contour>
      <point x="317" y="708" type="move" name="top"/>
    </contour>
    <contour>
      <point x="313" y="497" type="move" name="_top"/>
    </contour>
  </outline>
</glyph>
<glyph name="commaturnedabovecomb" format="1">
  <advance width="228"/>
  <unicode hex="0312"/>
  <outline>
    <component base="comma" xOffset="233" yOffset="685" xScale="-1" yScale="-1"/>
    <contour>
      <point x="119" y="830" type="move" name="top"/>
    </contour>
    <contour>
      <point x="119" y="506" type="move" name="_top"/>
    </contour>
  </outline>
</glyph>
<glyph name="cedillacomb" format="1">
  <advance width="200"/>
  <unicode hex="0327"/>
  <outline>
    <contour>
      <point x="123" y="-177"/>
      <point x="156" y="-167"/>
      <point x="172" y="-140" type="curve"/>
      <point x="176" y="-132"/>
      <point x="179" y="-123"/>
      <point x="179" y="-113" type="curve" smooth="yes"/>
      <point x="179" y="-72"/>
      <point x="145" y="-54"/>
      <point x="88" y="-45" type="curve"/>
      <point x="103" y="0" type="line"/>
      <point x="72" y="0" type="line"/>
      <point x="51" y="-64" type="line"/>
      <point x="95" y="-71"/>
      <point x="140" y="-74"/>
      <point x="140" y="-113" type="curve" smooth="yes"/>
      <point x="140" y="-142"/>
      <point x="116" y="-154"/>
      <point x="86" y="-154" type="curve" smooth="yes"/>
      <point x="70" y="-154"/>
      <point x="46" y="-147"/>
      <point x="34" y="-139" type="curve" smooth="yes"/>
      <point x="31" y="-137"/>
      <point x="25" y="-132"/>
      <point x="20" y="-142" type="curve"/>
      <point x="14" y="-156" type="line"/>
      <point x="34" y="-170"/>
      <point x="56" y="-177"/>
      <point x="87" y="-177" type="curve" smooth="yes"/>
    </contour>
    <contour>
      <point x="44" y="0" type="move" name="_bottom"/>
    </contour>
    <contour>
      <point x="97" y="-177" type="move" name="bottom"/>
    </contour>
  </outline>
</glyph>
<glyph name="slashshortcomb" format="1">
  <advance width="481"/>
  <unicode hex="0337"/>
  <outline>
    <contour>
      <point x="29" y="-38" type="line" smooth="yes"/>
      <point x="37" y="-38"/>
      <point x="52" y="-35"/>
      <point x="60" y="-22" type="curve"/>
      <point x="471" y="531" type="line"/>
      <point x="446" y="531" type="line" smooth="yes"/>
      <point x="436" y="531"/>
      <point x="432" y="530"/>
      <point x="424" y="519" type="curve" smooth="yes"/>
      <point x="10" y="-38" type="line"/>
    </contour>
  </outline>
</glyph>
<glyph name="slashlongcomb" format="1">
  <advance width="650"/>
  <unicode hex="0338"/>
  <outline>
    <contour>
      <point x="32" y="-52" type="line" smooth="yes"/>
      <point x="43" y="-52"/>
      <point x="55" y="-50"/>
      <point x="64" y="-36" type="curve"/>
      <point x="640" y="740" type="line"/>
      <point x="613" y="740" type="line" smooth="yes"/>
      <point x="601" y="740"/>
      <point x="597" y="736"/>
      <point x="588" y="725" type="curve" smooth="yes"/>
      <point x="10" y="-52" type="line"/>
    </contour>
  </outline>
</glyph>
<glyph name="pi" format="1">
  <advance width="667"/>
  <unicode hex="03C0"/>
  <note>
    pi
  </note>
  <outline>
    <contour>
      <point x="608" y="498" type="line"/>
      <point x="94" y="498" type="line" smooth="yes"/>
      <point x="84" y="498"/>
      <point x="74" y="489"/>
      <point x="74" y="478" type="curve" smooth="yes"/>
      <point x="74" y="462" type="line"/>
      <point x="175" y="462" type="line"/>
      <point x="175" y="108" type="line" smooth="yes"/>
      <point x="175" y="56"/>
      <point x="152" y="30"/>
      <point x="104" y="30" type="curve" smooth="yes"/>
      <point x="96" y="30"/>
      <point x="90" y="31"/>
      <point x="85" y="32" type="curve" smooth="yes"/>
      <point x="74" y="34"/>
      <point x="67" y="33"/>
      <point x="64" y="26" type="curve"/>
      <point x="62" y="6" type="line"/>
      <point x="76" y="-3"/>
      <point x="96" y="-5"/>
      <point x="116" y="-5" type="curve" smooth="yes"/>
      <point x="184" y="-5"/>
      <point x="222" y="33"/>
      <point x="222" y="108" type="curve" smooth="yes"/>
      <point x="222" y="462" type="line"/>
      <point x="456" y="462" type="line"/>
      <point x="456" y="0" type="line"/>
      <point x="504" y="0" type="line"/>
      <point x="504" y="462" type="line"/>
      <point x="590" y="462" type="line" smooth="yes"/>
      <point x="602" y="462"/>
      <point x="608" y="468"/>
      <point x="608" y="480" type="curve" smooth="yes"/>
    </contour>
  </outline>
</glyph>
<glyph name="endash" format="1">
  <advance width="528"/>
  <unicode hex="2013"/>
  <note>
    endash
  </note>
  <outline>
    <contour>
      <point x="68" y="307" type="line"/>
      <point x="68" y="272" type="line"/>
      <point x="462" y="272" type="line"/>
      <point x="462" y="307" type="line"/>
    </contour>
  </outline>
</glyph>
<glyph name="emdash" format="1">
  <advance width="783"/>
  <unicode hex="2014"/>
  <note>
    emdash
  </note>
  <outline>
    <contour>
      <point x="68" y="307" type="line"/>
      <point x="68" y="272" type="line"/>
      <point x="717" y="272" type="line"/>
      <point x="717" y="307" type="line"/>
    </contour>
  </outline>
</glyph>
<glyph name="quotesinglbase" format="1">
  <advance width="217"/>
  <unicode hex="201A"/>
  <note>
    quotesinglbase
  </note>
  <outline>
    <contour>
      <point x="98" y="75" type="line" smooth="yes"/>
      <point x="89" y="71"/>
      <point x="88" y="63"/>
      <point x="92" y="57" type="curve"/>
      <point x="104" y="37"/>
      <point x="110" y="17"/>
      <point x="110" y="-2" type="curve" smooth="yes"/>
      <point x="110" y="-40"/>
      <point x="92" y="-71"/>
      <point x="66" y="-105" type="curve"/>
      <point x="62" y="-109"/>
      <point x="62" y="-115"/>
      <point x="66" y="-119" type="curve"/>
      <point x="80" y="-128" type="line"/>
      <point x="119" y="-89"/>
      <point x="149" y="-43"/>
      <point x="149" y="12" type="curve" smooth="yes"/>
      <point x="149" y="39"/>
      <point x="142" y="63"/>
      <point x="128" y="88" type="curve"/>
    </contour>
  </outline>
</glyph>
<glyph name="quotedblbase" format="1">
  <advance width="352"/>
  <unicode hex="201E"/>
  <note>
    quotedblbase
  </note>
  <outline>
    <contour>
      <point x="98" y="75" type="line" smooth="yes"/>
      <point x="89" y="71"/>
      <point x="88" y="63"/>
      <point x="92" y="57" type="curve"/>
      <point x="104" y="37"/>
      <point x="110" y="17"/>
      <point x="110" y="-2" type="curve" smooth="yes"/>
      <point x="110" y="-40"/>
      <point x="92" y="-71"/>
      <point x="66" y="-105" type="curve"/>
      <point x="62" y="-109"/>
      <point x="62" y="-115"/>
      <point x="66" y="-119" type="curve"/>
      <point x="80" y="-128" type="line"/>
      <point x="119" y="-89"/>
      <point x="149" y="-43"/>
      <point x="149" y="12" type="curve" smooth="yes"/>
      <point x="149" y="39"/>
      <point x="142" y="63"/>
      <point x="128" y="88" type="curve"/>
    </contour>
    <contour>
      <point x="232" y="75" type="line" smooth="yes"/>
      <point x="227" y="73"/>
      <point x="220" y="67"/>
      <point x="227" y="57" type="curve"/>
      <point x="239" y="37"/>
      <point x="244" y="17"/>
      <point x="244" y="-2" type="curve" smooth="yes"/>
      <point x="244" y="-40"/>
      <point x="226" y="-71"/>
      <point x="200" y="-105" type="curve"/>
      <point x="197" y="-108"/>
      <point x="197" y="-115"/>
      <point x="201" y="-119" type="curve"/>
      <point x="215" y="-128" type="line"/>
      <point x="251" y="-92"/>
      <point x="284" y="-40"/>
      <point x="284" y="12" type="curve" smooth="yes"/>
      <point x="284" y="36"/>
      <point x="275" y="65"/>
      <point x="262" y="88" type="curve"/>
    </contour>
  </outline>
</glyph>
<glyph name="dagger" format="1">
  <advance width="476"/>
  <unicode hex="2020"/>
  <note>
    dagger
  </note>
  <outline>
    <contour>
      <point x="30" y="446" type="line"/>
      <point x="220" y="446" type="line"/>
      <point x="220" y="198" type="line"/>
      <point x="214" y="-174" type="line"/>
      <point x="232" y="-183"/>
      <point x="246" y="-183"/>
      <point x="264" y="-174" type="curve"/>
      <point x="258" y="198" type="line"/>
      <point x="258" y="446" type="line"/>
      <point x="448" y="446" type="line"/>
      <point x="448" y="462" type="line" smooth="yes"/>
      <point x="448" y="473"/>
      <point x="443" y="484"/>
      <point x="424" y="484" type="curve"/>
      <point x="421" y="484"/>
      <point x="259" y="474"/>
      <point x="258" y="474" type="curve"/>
      <point x="264" y="716" type="line"/>
      <point x="248" y="724"/>
      <point x="229" y="724"/>
      <point x="214" y="716" type="curve"/>
      <point x="220" y="474" type="line"/>
      <point x="179" y="475"/>
      <point x="101" y="482"/>
      <point x="53" y="484" type="curve"/>
      <point x="37" y="484"/>
      <point x="30" y="474"/>
      <point x="30" y="462" type="curve" smooth="yes"/>
    </contour>
  </outline>
</glyph>
<glyph name="daggerdbl" format="1">
  <advance width="492"/>
  <unicode hex="2021"/>
  <note>
    daggerdbl
  </note>
  <outline>
    <contour>
      <point x="38" y="95" type="line"/>
      <point x="38" y="79" type="line" smooth="yes"/>
      <point x="38" y="66"/>
      <point x="49" y="57"/>
      <point x="62" y="57" type="curve"/>
      <point x="88" y="58"/>
      <point x="200" y="66"/>
      <point x="228" y="67" type="curve"/>
      <point x="222" y="-174" type="line"/>
      <point x="240" y="-183"/>
      <point x="254" y="-183"/>
      <point x="272" y="-174" type="curve"/>
      <point x="266" y="67" type="line"/>
      <point x="293" y="66"/>
      <point x="409" y="58"/>
      <point x="433" y="57" type="curve"/>
      <point x="446" y="57"/>
      <point x="456" y="66"/>
      <point x="456" y="79" type="curve" smooth="yes"/>
      <point x="456" y="95" type="line"/>
      <point x="266" y="95" type="line"/>
      <point x="266" y="446" type="line"/>
      <point x="456" y="446" type="line"/>
      <point x="456" y="462" type="line" smooth="yes"/>
      <point x="456" y="472"/>
      <point x="451" y="484"/>
      <point x="433" y="484" type="curve"/>
      <point x="430" y="484"/>
      <point x="267" y="474"/>
      <point x="266" y="474" type="curve"/>
      <point x="272" y="716" type="line"/>
      <point x="256" y="724"/>
      <point x="238" y="724"/>
      <point x="222" y="716" type="curve"/>
      <point x="228" y="474" type="line"/>
      <point x="189" y="475"/>
      <point x="107" y="482"/>
      <point x="62" y="484" type="curve"/>
      <point x="45" y="484"/>
      <point x="38" y="475"/>
      <point x="38" y="462" type="curve" smooth="yes"/>
      <point x="38" y="446" type="line"/>
      <point x="228" y="446" type="line"/>
      <point x="228" y="95" type="line"/>
    </contour>
  </outline>
</glyph>
<glyph name="ellipsis" format="1">
  <advance width="721"/>
  <unicode hex="2026"/>
  <note>
    ellipsis
  </note>
  <outline>
    <contour>
      <point x="386" y="-8"/>
      <point x="407" y="13"/>
      <point x="407" y="39" type="curve" smooth="yes"/>
      <point x="407" y="64"/>
      <point x="386" y="85"/>
      <point x="361" y="85" type="curve" smooth="yes"/>
      <point x="336" y="85"/>
      <point x="315" y="64"/>
      <point x="315" y="39" type="curve" smooth="yes"/>
      <point x="315" y="13"/>
      <point x="336" y="-8"/>
      <point x="361" y="-8" type="curve" smooth="yes"/>
    </contour>
    <contour>
      <point x="631" y="-8"/>
      <point x="652" y="13"/>
      <point x="652" y="39" type="curve" smooth="yes"/>
      <point x="652" y="64"/>
      <point x="631" y="85"/>
      <point x="606" y="85" type="curve" smooth="yes"/>
      <point x="581" y="85"/>
      <point x="560" y="64"/>
      <point x="560" y="39" type="curve" smooth="yes"/>
      <point x="560" y="13"/>
      <point x="581" y="-8"/>
      <point x="606" y="-8" type="curve" smooth="yes"/>
    </contour>
    <contour>
      <point x="141" y="-8"/>
      <point x="162" y="13"/>
      <point x="162" y="39" type="curve" smooth="yes"/>
      <point x="162" y="64"/>
      <point x="141" y="85"/>
      <point x="116" y="85" type="curve" smooth="yes"/>
      <point x="91" y="85"/>
      <point x="70" y="64"/>
      <point x="70" y="39" type="curve" smooth="yes"/>
      <point x="70" y="13"/>
      <point x="91" y="-8"/>
      <point x="116" y="-8" type="curve" smooth="yes"/>
    </contour>
  </outline>
</glyph>
<glyph name="perthousand" format="1">
  <advance width="1127"/>
  <unicode hex="2030"/>
  <note>
    perthousand
  </note>
  <outline>
    <contour>
      <point x="342" y="640"/>
      <point x="288" y="716"/>
      <point x="194" y="716" type="curve" smooth="yes"/>
      <point x="101" y="716"/>
      <point x="45" y="644"/>
      <point x="45" y="538" type="curve" smooth="yes"/>
      <point x="45" y="509"/>
      <point x="48" y="483"/>
      <point x="56" y="461" type="curve" smooth="yes"/>
      <point x="78" y="400"/>
      <point x="124" y="361"/>
      <point x="194" y="361" type="curve" smooth="yes"/>
      <point x="285" y="361"/>
      <point x="342" y="435"/>
      <point x="342" y="538" type="curve" smooth="yes"/>
    </contour>
    <contour>
      <point x="304" y="452"/>
      <point x="269" y="393"/>
      <point x="194" y="393" type="curve" smooth="yes"/>
      <point x="142" y="393"/>
      <point x="109" y="422"/>
      <point x="92" y="472" type="curve" smooth="yes"/>
      <point x="86" y="490"/>
      <point x="84" y="512"/>
      <point x="84" y="538" type="curve" smooth="yes"/>
      <point x="84" y="625"/>
      <point x="120" y="683"/>
      <point x="194" y="683" type="curve" smooth="yes"/>
      <point x="268" y="683"/>
      <point x="304" y="625"/>
      <point x="304" y="538" type="curve" smooth="yes"/>
    </contour>
    <contour>
      <point x="104" y="0" type="line"/>
      <point x="138" y="0" type="line" smooth="yes"/>
      <point x="145" y="0"/>
      <point x="151" y="3"/>
      <point x="155" y="9" type="curve"/>
      <point x="663" y="708" type="line"/>
      <point x="630" y="708" type="line"/>
      <point x="621" y="708"/>
      <point x="618" y="708"/>
      <point x="611" y="698" type="curve"/>
    </contour>
    <contour>
      <point x="724" y="271"/>
      <point x="670" y="347"/>
      <point x="576" y="347" type="curve" smooth="yes"/>
      <point x="483" y="347"/>
      <point x="427" y="275"/>
      <point x="427" y="169" type="curve" smooth="yes"/>
      <point x="427" y="140"/>
      <point x="430" y="114"/>
      <point x="438" y="92" type="curve" smooth="yes"/>
      <point x="460" y="31"/>
      <point x="506" y="-8"/>
      <point x="576" y="-8" type="curve" smooth="yes"/>
      <point x="667" y="-8"/>
      <point x="724" y="66"/>
      <point x="724" y="169" type="curve" smooth="yes"/>
    </contour>
    <contour>
      <point x="686" y="83"/>
      <point x="651" y="24"/>
      <point x="576" y="24" type="curve" smooth="yes"/>
      <point x="524" y="24"/>
      <point x="491" y="53"/>
      <point x="474" y="103" type="curve" smooth="yes"/>
      <point x="468" y="121"/>
      <point x="466" y="143"/>
      <point x="466" y="169" type="curve" smooth="yes"/>
      <point x="466" y="256"/>
      <point x="502" y="314"/>
      <point x="576" y="314" type="curve" smooth="yes"/>
      <point x="650" y="314"/>
      <point x="686" y="256"/>
      <point x="686" y="169" type="curve" smooth="yes"/>
    </contour>
    <contour>
      <point x="1086" y="270"/>
      <point x="1032" y="346"/>
      <point x="938" y="346" type="curve" smooth="yes"/>
      <point x="845" y="346"/>
      <point x="789" y="274"/>
      <point x="789" y="168" type="curve" smooth="yes"/>
      <point x="789" y="139"/>
      <point x="792" y="113"/>
      <point x="800" y="91" type="curve" smooth="yes"/>
      <point x="822" y="30"/>
      <point x="868" y="-9"/>
      <point x="938" y="-9" type="curve" smooth="yes"/>
      <point x="1029" y="-9"/>
      <point x="1086" y="65"/>
      <point x="1086" y="168" type="curve" smooth="yes"/>
    </contour>
    <contour>
      <point x="1048" y="82"/>
      <point x="1013" y="23"/>
      <point x="938" y="23" type="curve" smooth="yes"/>
      <point x="886" y="23"/>
      <point x="853" y="52"/>
      <point x="836" y="102" type="curve" smooth="yes"/>
      <point x="830" y="120"/>
      <point x="828" y="142"/>
      <point x="828" y="168" type="curve" smooth="yes"/>
      <point x="828" y="255"/>
      <point x="864" y="313"/>
      <point x="938" y="313" type="curve" smooth="yes"/>
      <point x="1012" y="313"/>
      <point x="1048" y="255"/>
      <point x="1048" y="168" type="curve" smooth="yes"/>
    </contour>
  </outline>
</glyph>
<glyph name="Omega" format="1">
  <advance width="760"/>
  <unicode hex="2126"/>
  <note>
    Omega
  </note>
  <outline>
    <contour>
      <point x="436" y="0" type="line"/>
      <point x="687" y="0" type="line" smooth="yes"/>
      <point x="698" y="0"/>
      <point x="705" y="7"/>
      <point x="705" y="18" type="curve" smooth="yes"/>
      <point x="705" y="44" type="line"/>
      <point x="477" y="44" type="line"/>
      <point x="477" y="155" type="line"/>
      <point x="610" y="183"/>
      <point x="703" y="284"/>
      <point x="703" y="425" type="curve" smooth="yes"/>
      <point x="703" y="605"/>
      <point x="561" y="716"/>
      <point x="380" y="716" type="curve" smooth="yes"/>
      <point x="199" y="716"/>
      <point x="57" y="605"/>
      <point x="57" y="424" type="curve" smooth="yes"/>
      <point x="57" y="286"/>
      <point x="147" y="184"/>
      <point x="283" y="155" type="curve"/>
      <point x="283" y="44" type="line"/>
      <point x="54" y="44" type="line"/>
      <point x="54" y="18" type="line" smooth="yes"/>
      <point x="54" y="11"/>
      <point x="60" y="0"/>
      <point x="73" y="0" type="curve" smooth="yes"/>
      <point x="324" y="0" type="line"/>
      <point x="324" y="182" type="line"/>
      <point x="192" y="211"/>
      <point x="109" y="285"/>
      <point x="109" y="422" type="curve" smooth="yes"/>
      <point x="109" y="581"/>
      <point x="222" y="674"/>
      <point x="380" y="674" type="curve" smooth="yes"/>
      <point x="536" y="674"/>
      <point x="651" y="584"/>
      <point x="651" y="422" type="curve" smooth="yes"/>
      <point x="651" y="292"/>
      <point x="576" y="213"/>
      <point x="436" y="182" type="curve"/>
    </contour>
  </outline>
</glyph>
<glyph name="Delta" format="1">
  <advance width="706"/>
  <unicode hex="2206"/>
  <note>
    Delta
  </note>
  <outline>
    <contour>
      <point x="324" y="708" type="line"/>
      <point x="30" y="0" type="line"/>
      <point x="664" y="0" type="line"/>
      <point x="370" y="708" type="line"/>
    </contour>
    <contour>
      <point x="99" y="42" type="line"/>
      <point x="334" y="614" type="line"/>
      <point x="347" y="652" type="line"/>
      <point x="360" y="614" type="line"/>
      <point x="595" y="42" type="line"/>
    </contour>
  </outline>
</glyph>
<glyph name="minus" format="1">
  <advance width="556"/>
  <unicode hex="2212"/>
  <note>
    minus
  </note>
  <outline>
    <contour>
      <point x="70" y="354" type="line"/>
      <point x="70" y="317" type="line"/>
      <point x="485" y="317" type="line"/>
      <point x="485" y="354" type="line"/>
    </contour>
  </outline>
</glyph>
<glyph name="radical" format="1">
  <advance width="627"/>
  <unicode hex="221A"/>
  <note>
    radical
  </note>
  <outline>
    <contour>
      <point x="158" y="345" type="line"/>
      <point x="292" y="0" type="line"/>
      <point x="332" y="0" type="line"/>
      <point x="610" y="860" type="line"/>
      <point x="582" y="860" type="line" smooth="yes"/>
      <point x="574" y="860"/>
      <point x="566" y="855"/>
      <point x="564" y="848" type="curve"/>
      <point x="320" y="93" type="line"/>
      <point x="312" y="55" type="line"/>
      <point x="302" y="98" type="line"/>
      <point x="199" y="368" type="line"/>
      <point x="196" y="377"/>
      <point x="190" y="380"/>
      <point x="181" y="380" type="curve" smooth="yes"/>
      <point x="24" y="380" type="line"/>
      <point x="24" y="366" type="line" smooth="yes"/>
      <point x="24" y="353"/>
      <point x="32" y="345"/>
      <point x="44" y="345" type="curve" smooth="yes"/>
    </contour>
  </outline>
</glyph>
<glyph name="integral" format="1">
  <advance width="532"/>
  <unicode hex="222B"/>
  <note>
    integral
  </note>
  <outline>
    <contour>
      <point x="212" y="6" type="line" smooth="yes"/>
      <point x="203" y="-84"/>
      <point x="162" y="-143"/>
      <point x="70" y="-143" type="curve" smooth="yes"/>
      <point x="62" y="-143"/>
      <point x="34" y="-141"/>
      <point x="34" y="-141" type="curve" smooth="yes"/>
      <point x="27" y="-141"/>
      <point x="24" y="-144"/>
      <point x="22" y="-149" type="curve"/>
      <point x="18" y="-168" type="line"/>
      <point x="31" y="-176"/>
      <point x="59" y="-180"/>
      <point x="80" y="-180" type="curve" smooth="yes"/>
      <point x="184" y="-180"/>
      <point x="244" y="-108"/>
      <point x="258" y="6" type="curve" smooth="yes"/>
      <point x="324" y="537" type="line" smooth="yes"/>
      <point x="336" y="619"/>
      <point x="374" y="675"/>
      <point x="454" y="675" type="curve" smooth="yes"/>
      <point x="478" y="675"/>
      <point x="482" y="674"/>
      <point x="486" y="674" type="curve" smooth="yes"/>
      <point x="490" y="674"/>
      <point x="499" y="673"/>
      <point x="501" y="682" type="curve"/>
      <point x="504" y="704" type="line"/>
      <point x="486" y="712"/>
      <point x="464" y="716"/>
      <point x="442" y="716" type="curve" smooth="yes"/>
      <point x="350" y="716"/>
      <point x="288" y="644"/>
      <point x="278" y="543" type="curve" smooth="yes"/>
    </contour>
  </outline>
</glyph>
<glyph name="lessequal" format="1">
  <advance width="486"/>
  <unicode hex="2264"/>
  <note>
    lessequal
  </note>
  <outline>
    <contour>
      <point x="52" y="364" type="line"/>
      <point x="52" y="344" type="line"/>
      <point x="427" y="156" type="line"/>
      <point x="427" y="188" type="line" smooth="yes"/>
      <point x="427" y="192"/>
      <point x="426" y="195"/>
      <point x="424" y="198" type="curve" smooth="yes"/>
      <point x="422" y="201"/>
      <point x="418" y="203"/>
      <point x="412" y="206" type="curve" smooth="yes"/>
      <point x="137" y="342" type="line" smooth="yes"/>
      <point x="132" y="345"/>
      <point x="111" y="352"/>
      <point x="98" y="354" type="curve"/>
      <point x="111" y="356"/>
      <point x="132" y="363"/>
      <point x="137" y="366" type="curve" smooth="yes"/>
      <point x="412" y="502" type="line" smooth="yes"/>
      <point x="418" y="505"/>
      <point x="422" y="507"/>
      <point x="424" y="510" type="curve" smooth="yes"/>
      <point x="426" y="513"/>
      <point x="427" y="516"/>
      <point x="427" y="520" type="curve" smooth="yes"/>
      <point x="427" y="552" type="line"/>
    </contour>
    <contour>
      <point x="52" y="76" type="line"/>
      <point x="52" y="40" type="line"/>
      <point x="427" y="40" type="line"/>
      <point x="427" y="76" type="line"/>
    </contour>
  </outline>
</glyph>
<glyph name="greaterequal" format="1">
  <advance width="487"/>
  <unicode hex="2265"/>
  <note>
    greaterequal
  </note>
  <outline>
    <contour>
      <point x="436" y="364" type="line"/>
      <point x="60" y="552" type="line"/>
      <point x="60" y="520" type="line" smooth="yes"/>
      <point x="60" y="511"/>
      <point x="67" y="506"/>
      <point x="76" y="502" type="curve" smooth="yes"/>
      <point x="350" y="366" type="line" smooth="yes"/>
      <point x="360" y="361"/>
      <point x="378" y="357"/>
      <point x="388" y="354" type="curve"/>
      <point x="378" y="351"/>
      <point x="360" y="347"/>
      <point x="350" y="342" type="curve" smooth="yes"/>
      <point x="76" y="206" type="line" smooth="yes"/>
      <point x="66" y="201"/>
      <point x="60" y="196"/>
      <point x="60" y="188" type="curve" smooth="yes"/>
      <point x="60" y="156" type="line"/>
      <point x="436" y="344" type="line"/>
    </contour>
    <contour>
      <point x="436" y="40" type="line"/>
      <point x="436" y="76" type="line"/>
      <point x="60" y="76" type="line"/>
      <point x="60" y="40" type="line"/>
    </contour>
  </outline>
</glyph>
<glyph name="SerfiBottomSymmetrical" format="1">
  <advance width="138"/>
  <outline>
    <contour>
      <point x="119" y="0" type="line"/>
      <point x="119" y="20" type="line" smooth="yes"/>
      <point x="119" y="33"/>
      <point x="112" y="37"/>
      <point x="100" y="38" type="curve"/>
      <point x="37" y="40" type="line"/>
      <point x="10" y="40" type="line"/>
      <point x="-53" y="38" type="line"/>
      <point x="-65" y="37"/>
      <point x="-72" y="33"/>
      <point x="-72" y="20" type="curve" smooth="yes"/>
      <point x="-72" y="0" type="line" smooth="yes"/>
    </contour>
  </outline>
</glyph>
<glyph name="SerifBottomLeft" format="1">
  <advance width="100"/>
  <outline>
    <contour>
      <point x="0" y="0" type="line" smooth="yes"/>
      <point x="46" y="0" type="line"/>
      <point x="130" y="0" type="line"/>
      <point x="130" y="23" type="line" smooth="yes"/>
      <point x="130" y="41"/>
      <point x="113" y="43"/>
      <point x="101" y="44" type="curve"/>
      <point x="30" y="48" type="line"/>
      <point x="-23" y="43" type="line" smooth="yes"/>
      <point x="-36" y="42"/>
      <point x="-42" y="35"/>
      <point x="-42" y="23" type="curve" smooth="yes"/>
      <point x="-42" y="0" type="line"/>
    </contour>
  </outline>
</glyph>
<glyph name="SerifBottomRight" format="1">
  <advance width="100"/>
  <outline>
    <contour>
      <point x="-46" y="0" type="line"/>
      <point x="0" y="0" type="line"/>
      <point x="42" y="0" type="line"/>
      <point x="42" y="23" type="line" smooth="yes"/>
      <point x="42" y="35"/>
      <point x="36" y="42"/>
      <point x="23" y="43" type="curve" smooth="yes"/>
      <point x="-30" y="48" type="line"/>
      <point x="-101" y="44" type="line"/>
      <point x="-113" y="43"/>
      <point x="-130" y="41"/>
      <point x="-130" y="23" type="curve" smooth="yes"/>
      <point x="-130" y="0" type="line"/>
    </contour>
  </outline>
</glyph>
<glyph name="SerifSpur" format="1">
  <advance width="300"/>
  <outline>
    <contour>
      <point x="15" y="-39" type="line"/>
      <point x="15" y="0" type="line"/>
      <point x="0" y="0" type="line"/>
      <point x="-73" y="0" type="line"/>
      <point x="-73" y="-19" type="line" smooth="yes"/>
      <point x="-73" y="-32"/>
      <point x="-66" y="-36"/>
      <point x="-54" y="-37" type="curve"/>
      <point x="0" y="-39" type="line"/>
    </contour>
  </outline>
</glyph>
<glyph name="SerifUpLeft" format="1">
  <advance width="100"/>
  <outline>
    <contour>
      <point x="51" y="24" type="line"/>
      <point x="46" y="134" type="line"/>
      <point x="45" y="150"/>
      <point x="38" y="158"/>
      <point x="24" y="158" type="curve" smooth="yes"/>
      <point x="0" y="158" type="line"/>
      <point x="0" y="0" type="line"/>
    </contour>
  </outline>
</glyph>
<glyph name="SerifUpRight" format="1">
  <advance width="100"/>
  <outline>
    <contour>
      <point x="0" y="152" type="line"/>
      <point x="-24" y="152" type="line" smooth="yes"/>
      <point x="-38" y="152"/>
      <point x="-44" y="143"/>
      <point x="-45" y="127" type="curve"/>
      <point x="-52" y="42" type="line"/>
      <point x="0" y="0" type="line"/>
    </contour>
  </outline>
</glyph>
<glyph name=".notdef" format="1">
  <advance width="630"/>
  <note>
    .notdef
  </note>
  <outline>
    <contour>
      <point x="202" y="546" type="line"/>
      <point x="204" y="542"/>
      <point x="207" y="541"/>
      <point x="212" y="541" type="curve" smooth="yes"/>
      <point x="214" y="541"/>
      <point x="219" y="543"/>
      <point x="223" y="547" type="curve" smooth="yes"/>
      <point x="227" y="551"/>
      <point x="233" y="555"/>
      <point x="241" y="560" type="curve" smooth="yes"/>
      <point x="249" y="565"/>
      <point x="258" y="569"/>
      <point x="269" y="573" type="curve" smooth="yes"/>
      <point x="280" y="577"/>
      <point x="293" y="578"/>
      <point x="308" y="578" type="curve" smooth="yes"/>
      <point x="320" y="578"/>
      <point x="331" y="577"/>
      <point x="342" y="573" type="curve" smooth="yes"/>
      <point x="352" y="569"/>
      <point x="361" y="564"/>
      <point x="369" y="558" type="curve" smooth="yes"/>
      <point x="377" y="552"/>
      <point x="383" y="543"/>
      <point x="388" y="534" type="curve" smooth="yes"/>
      <point x="393" y="525"/>
      <point x="395" y="514"/>
      <point x="395" y="502" type="curve" smooth="yes"/>
      <point x="395" y="486"/>
      <point x="393" y="473"/>
      <point x="387" y="462" type="curve" smooth="yes"/>
      <point x="381" y="451"/>
      <point x="374" y="441"/>
      <point x="366" y="432" type="curve" smooth="yes"/>
      <point x="358" y="423"/>
      <point x="348" y="416"/>
      <point x="338" y="409" type="curve" smooth="yes"/>
      <point x="328" y="402"/>
      <point x="319" y="395"/>
      <point x="311" y="388" type="curve" smooth="yes"/>
      <point x="303" y="381"/>
      <point x="296" y="373"/>
      <point x="291" y="365" type="curve" smooth="yes"/>
      <point x="286" y="357"/>
      <point x="283" y="348"/>
      <point x="284" y="338" type="curve"/>
      <point x="287" y="277" type="line"/>
      <point x="320" y="277" type="line"/>
      <point x="324" y="334" type="line"/>
      <point x="325" y="342"/>
      <point x="329" y="350"/>
      <point x="335" y="356" type="curve" smooth="yes"/>
      <point x="341" y="362"/>
      <point x="349" y="369"/>
      <point x="357" y="376" type="curve" smooth="yes"/>
      <point x="365" y="383"/>
      <point x="374" y="389"/>
      <point x="384" y="397" type="curve" smooth="yes"/>
      <point x="394" y="405"/>
      <point x="403" y="413"/>
      <point x="411" y="423" type="curve" smooth="yes"/>
      <point x="419" y="433"/>
      <point x="425" y="445"/>
      <point x="431" y="458" type="curve" smooth="yes"/>
      <point x="437" y="471"/>
      <point x="440" y="487"/>
      <point x="440" y="505" type="curve" smooth="yes"/>
      <point x="440" y="522"/>
      <point x="436" y="538"/>
      <point x="430" y="552" type="curve" smooth="yes"/>
      <point x="424" y="566"/>
      <point x="415" y="577"/>
      <point x="403" y="587" type="curve" smooth="yes"/>
      <point x="391" y="597"/>
      <point x="378" y="605"/>
      <point x="362" y="610" type="curve" smooth="yes"/>
      <point x="346" y="615"/>
      <point x="330" y="618"/>
      <point x="312" y="618" type="curve" smooth="yes"/>
      <point x="298" y="618"/>
      <point x="285" y="616"/>
      <point x="273" y="613" type="curve" smooth="yes"/>
      <point x="261" y="610"/>
      <point x="250" y="607"/>
      <point x="240" y="602" type="curve" smooth="yes"/>
      <point x="230" y="597"/>
      <point x="221" y="592"/>
      <point x="213" y="586" type="curve" smooth="yes"/>
      <point x="205" y="580"/>
      <point x="197" y="574"/>
      <point x="190" y="567" type="curve"/>
    </contour>
    <contour>
      <point x="264" y="122"/>
      <point x="267" y="113"/>
      <point x="274" y="105" type="curve" smooth="yes"/>
      <point x="281" y="97"/>
      <point x="291" y="94"/>
      <point x="302" y="94" type="curve" smooth="yes"/>
      <point x="313" y="94"/>
      <point x="322" y="97"/>
      <point x="329" y="105" type="curve" smooth="yes"/>
      <point x="336" y="113"/>
      <point x="340" y="122"/>
      <point x="340" y="133" type="curve" smooth="yes"/>
      <point x="340" y="144"/>
      <point x="336" y="152"/>
      <point x="329" y="160" type="curve" smooth="yes"/>
      <point x="322" y="168"/>
      <point x="313" y="172"/>
      <point x="302" y="172" type="curve" smooth="yes"/>
      <point x="291" y="172"/>
      <point x="281" y="168"/>
      <point x="274" y="160" type="curve" smooth="yes"/>
      <point x="267" y="152"/>
      <point x="264" y="144"/>
      <point x="264" y="133" type="curve" smooth="yes"/>
    </contour>
    <contour>
      <point x="82" y="708" type="line"/>
      <point x="82" y="0" type="line"/>
      <point x="548" y="0" type="line"/>
      <point x="548" y="708" type="line"/>
    </contour>
    <contour>
      <point x="100" y="18" type="line"/>
      <point x="100" y="690" type="line"/>
      <point x="529" y="690" type="line"/>
      <point x="529" y="18" type="line"/>
    </contour>
  </outline>
</glyph>
<glyph name="a.sc" format="1">
  <advance width="600"/>
  <outline>
    <contour>
      <point x="127" y="0" type="line"/>
      <point x="193" y="167" type="line"/>
      <point x="396" y="167" type="line"/>
      <point x="462" y="0" type="line"/>
      <point x="517" y="0" type="line"/>
      <point x="314" y="498" type="line"/>
      <point x="275" y="498" type="line"/>
      <point x="71" y="0" type="line"/>
    </contour>
    <contour>
      <point x="286" y="404" type="line"/>
      <point x="294" y="426" type="line"/>
      <point x="303" y="404" type="line"/>
      <point x="381" y="205" type="line"/>
      <point x="208" y="205" type="line"/>
    </contour>
    <component base="SerfiBottomSymmetrical" xOffset="90"/>
    <component base="SerfiBottomSymmetrical" xOffset="455"/>
    <contour>
      <point x="540" y="10" type="move" name="ogonek"/>
    </contour>
    <contour>
      <point x="300" y="0" type="move" name="bottom"/>
    </contour>
    <contour>
      <point x="294" y="498" type="move" name="top"/>
    </contour>
  </outline>
</glyph>
<glyph name="breve.case" format="1">
  <advance width="423"/>
  <note>
    breve.case
  </note>
  <outline>
    <contour>
      <point x="288" y="764"/>
      <point x="333" y="796"/>
      <point x="333" y="870" type="curve"/>
      <point x="301" y="870" type="line"/>
      <point x="301" y="821"/>
      <point x="271" y="794"/>
      <point x="212" y="794" type="curve" smooth="yes"/>
      <point x="157" y="794"/>
      <point x="123" y="817"/>
      <point x="123" y="870" type="curve"/>
      <point x="91" y="870" type="line"/>
      <point x="91" y="797"/>
      <point x="135" y="764"/>
      <point x="212" y="764" type="curve" smooth="yes"/>
    </contour>
  </outline>
</glyph>
<glyph name="caron.case" format="1">
  <advance width="460"/>
  <note>
    caron.case
  </note>
  <outline>
    <contour>
      <point x="90" y="870" type="line"/>
      <point x="208" y="771" type="line"/>
      <point x="253" y="771" type="line"/>
      <point x="370" y="870" type="line"/>
      <point x="334" y="870" type="line" smooth="yes"/>
      <point x="329" y="870"/>
      <point x="321" y="870"/>
      <point x="317" y="866" type="curve"/>
      <point x="239" y="804" type="line"/>
      <point x="230" y="797" type="line"/>
      <point x="222" y="804" type="line"/>
      <point x="144" y="866" type="line"/>
      <point x="141" y="869"/>
      <point x="133" y="870"/>
      <point x="128" y="870" type="curve" smooth="yes"/>
    </contour>
  </outline>
</glyph>
<glyph name="caron.salt" format="1">
  <advance width="199"/>
  <note>
    caron.salt
  </note>
  <outline>
    <contour>
      <point x="136" y="723"/>
      <point x="133" y="728"/>
      <point x="122" y="728" type="curve" smooth="yes"/>
      <point x="92" y="728" type="line"/>
      <point x="66" y="578" type="line"/>
      <point x="82" y="578" type="line" smooth="yes"/>
      <point x="90" y="578"/>
      <point x="96" y="577"/>
      <point x="101" y="590" type="curve"/>
      <point x="134" y="713" type="line"/>
    </contour>
    <contour>
      <point x="37" y="518" type="move" name="_topright"/>
    </contour>
  </outline>
</glyph>
<glyph name="circumflex.case" format="1">
  <advance width="460"/>
  <note>
    circumflex.case
  </note>
  <outline>
    <contour>
      <point x="370" y="771" type="line"/>
      <point x="252" y="870" type="line"/>
      <point x="208" y="870" type="line"/>
      <point x="90" y="771" type="line"/>
      <point x="127" y="771" type="line" smooth="yes"/>
      <point x="128" y="771"/>
      <point x="139" y="771"/>
      <point x="144" y="776" type="curve"/>
      <point x="222" y="838" type="line"/>
      <point x="230" y="844" type="line"/>
      <point x="238" y="838" type="line"/>
      <point x="316" y="776" type="line"/>
      <point x="319" y="773"/>
      <point x="328" y="771"/>
      <point x="333" y="771" type="curve" smooth="yes"/>
    </contour>
  </outline>
</glyph>
<glyph name="dotaccentcomb.case" format="1">
  <advance width="270"/>
  <outline>
    <contour>
      <point x="159" y="796"/>
      <point x="179" y="815"/>
      <point x="179" y="839" type="curve" smooth="yes"/>
      <point x="179" y="862"/>
      <point x="159" y="882"/>
      <point x="136" y="882" type="curve" smooth="yes"/>
      <point x="112" y="882"/>
      <point x="93" y="862"/>
      <point x="93" y="839" type="curve" smooth="yes"/>
      <point x="93" y="815"/>
      <point x="112" y="796"/>
      <point x="136" y="796" type="curve" smooth="yes"/>
    </contour>
    <contour>
      <point x="136" y="882" type="move" name="top"/>
    </contour>
    <contour>
      <point x="136" y="708" type="move" name="_top"/>
    </contour>
  </outline>
</glyph>
<glyph name="fTopEnd" format="1">
  <advance width="241"/>
  <outline>
    <contour>
      <point x="138" y="667"/>
      <point x="145" y="673"/>
      <point x="147" y="681" type="curve" smooth="yes"/>
      <point x="155" y="701" type="line"/>
      <point x="137" y="710"/>
      <point x="113" y="716"/>
      <point x="92" y="716" type="curve"/>
      <point x="92" y="679" type="line"/>
      <point x="113" y="679"/>
      <point x="119" y="674"/>
      <point x="129" y="670" type="curve"/>
    </contour>
  </outline>
</glyph>
<glyph name="gravecomb.case" format="1">
  <advance width="222"/>
  <outline>
    <contour>
      <point x="-11" y="885" type="line"/>
      <point x="135" y="777" type="line"/>
      <point x="140" y="772"/>
      <point x="147" y="771"/>
      <point x="154" y="771" type="curve"/>
      <point x="190" y="771" type="line"/>
      <point x="76" y="874" type="line"/>
      <point x="64" y="884"/>
      <point x="60" y="885"/>
      <point x="45" y="885" type="curve" smooth="yes"/>
    </contour>
    <contour>
      <point x="40" y="885" type="move" name="top"/>
    </contour>
    <contour>
      <point x="129" y="708" type="move" name="_top"/>
    </contour>
  </outline>
</glyph>
<glyph name="hungarumlaut.case" format="1">
  <advance width="472"/>
  <note>
    hungarumlaut.case
  </note>
  <outline>
    <contour>
      <point x="232" y="882" type="line"/>
      <point x="199" y="882" type="line" smooth="yes"/>
      <point x="187" y="882"/>
      <point x="178" y="880"/>
      <point x="167" y="866" type="curve" smooth="yes"/>
      <point x="90" y="771" type="line"/>
      <point x="114" y="771" type="line" smooth="yes"/>
      <point x="123" y="771"/>
      <point x="126" y="774"/>
      <point x="132" y="780" type="curve" smooth="yes"/>
    </contour>
    <contour>
      <point x="384" y="882" type="line"/>
      <point x="346" y="882" type="line" smooth="yes"/>
      <point x="330" y="882"/>
      <point x="325" y="878"/>
      <point x="313" y="866" type="curve" smooth="yes"/>
      <point x="222" y="771" type="line"/>
      <point x="248" y="771" type="line" smooth="yes"/>
      <point x="257" y="771"/>
      <point x="259" y="773"/>
      <point x="268" y="780" type="curve"/>
    </contour>
  </outline>
</glyph>
<glyph name="macron.case" format="1">
  <advance width="391"/>
  <note>
    macron.case
  </note>
  <outline>
    <contour>
      <point x="92" y="824" type="line"/>
      <point x="92" y="794" type="line"/>
      <point x="300" y="794" type="line"/>
      <point x="300" y="824" type="line"/>
    </contour>
  </outline>
</glyph>
<glyph name="macroncomb.case" format="1">
  <advance width="391"/>
  <outline>
    <contour>
      <point x="60" y="642" type="line"/>
      <point x="60" y="610" type="line"/>
      <point x="332" y="610" type="line"/>
      <point x="332" y="642" type="line"/>
    </contour>
    <contour>
      <point x="196" y="594" type="move" name="top"/>
    </contour>
    <contour>
      <point x="196" y="498" type="move" name="_top"/>
    </contour>
  </outline>
</glyph>
<glyph name="undercommaaccent" format="1">
  <advance width="232"/>
  <note>
    undercommaaccent
  </note>
  <outline>
    <contour>
      <point x="174" y="-50"/>
      <point x="171" y="-45"/>
      <point x="160" y="-45" type="curve" smooth="yes"/>
      <point x="130" y="-45" type="line"/>
      <point x="108" y="-175" type="line"/>
      <point x="124" y="-175" type="line" smooth="yes"/>
      <point x="132" y="-175"/>
      <point x="141" y="-176"/>
      <point x="146" y="-163" type="curve"/>
      <point x="172" y="-60" type="line"/>
    </contour>
    <contour>
      <point x="134" y="2" type="move" name="_bottom"/>
    </contour>
  </outline>
</glyph>
